%TF.GenerationSoftware,KiCad,Pcbnew,7.0.1*%
%TF.CreationDate,2023-10-09T01:52:17+02:00*%
%TF.ProjectId,current_probe,63757272-656e-4745-9f70-726f62652e6b,rev?*%
%TF.SameCoordinates,Original*%
%TF.FileFunction,Paste,Bot*%
%TF.FilePolarity,Positive*%
%FSLAX46Y46*%
G04 Gerber Fmt 4.6, Leading zero omitted, Abs format (unit mm)*
G04 Created by KiCad (PCBNEW 7.0.1) date 2023-10-09 01:52:17*
%MOMM*%
%LPD*%
G01*
G04 APERTURE LIST*
G04 Aperture macros list*
%AMRoundRect*
0 Rectangle with rounded corners*
0 $1 Rounding radius*
0 $2 $3 $4 $5 $6 $7 $8 $9 X,Y pos of 4 corners*
0 Add a 4 corners polygon primitive as box body*
4,1,4,$2,$3,$4,$5,$6,$7,$8,$9,$2,$3,0*
0 Add four circle primitives for the rounded corners*
1,1,$1+$1,$2,$3*
1,1,$1+$1,$4,$5*
1,1,$1+$1,$6,$7*
1,1,$1+$1,$8,$9*
0 Add four rect primitives between the rounded corners*
20,1,$1+$1,$2,$3,$4,$5,0*
20,1,$1+$1,$4,$5,$6,$7,0*
20,1,$1+$1,$6,$7,$8,$9,0*
20,1,$1+$1,$8,$9,$2,$3,0*%
G04 Aperture macros list end*
%ADD10R,1.500000X5.080000*%
%ADD11RoundRect,0.243750X-0.243750X-0.456250X0.243750X-0.456250X0.243750X0.456250X-0.243750X0.456250X0*%
%ADD12RoundRect,0.230000X-0.230000X-0.375000X0.230000X-0.375000X0.230000X0.375000X-0.230000X0.375000X0*%
%ADD13RoundRect,0.150000X-0.825000X-0.150000X0.825000X-0.150000X0.825000X0.150000X-0.825000X0.150000X0*%
%ADD14RoundRect,0.225000X0.250000X-0.225000X0.250000X0.225000X-0.250000X0.225000X-0.250000X-0.225000X0*%
%ADD15RoundRect,0.250000X-0.250000X-0.475000X0.250000X-0.475000X0.250000X0.475000X-0.250000X0.475000X0*%
%ADD16RoundRect,0.225000X-0.225000X-0.250000X0.225000X-0.250000X0.225000X0.250000X-0.225000X0.250000X0*%
%ADD17RoundRect,0.218750X0.256250X-0.218750X0.256250X0.218750X-0.256250X0.218750X-0.256250X-0.218750X0*%
%ADD18RoundRect,0.250000X-0.475000X0.250000X-0.475000X-0.250000X0.475000X-0.250000X0.475000X0.250000X0*%
%ADD19RoundRect,0.250000X0.475000X-0.250000X0.475000X0.250000X-0.475000X0.250000X-0.475000X-0.250000X0*%
%ADD20RoundRect,0.218750X0.218750X0.256250X-0.218750X0.256250X-0.218750X-0.256250X0.218750X-0.256250X0*%
%ADD21RoundRect,0.218750X-0.218750X-0.256250X0.218750X-0.256250X0.218750X0.256250X-0.218750X0.256250X0*%
%ADD22RoundRect,0.218750X-0.381250X0.218750X-0.381250X-0.218750X0.381250X-0.218750X0.381250X0.218750X0*%
%ADD23RoundRect,0.225000X-0.250000X0.225000X-0.250000X-0.225000X0.250000X-0.225000X0.250000X0.225000X0*%
%ADD24RoundRect,0.218750X0.381250X-0.218750X0.381250X0.218750X-0.381250X0.218750X-0.381250X-0.218750X0*%
%ADD25RoundRect,0.218750X0.218750X0.381250X-0.218750X0.381250X-0.218750X-0.381250X0.218750X-0.381250X0*%
%ADD26RoundRect,0.250000X0.250000X0.475000X-0.250000X0.475000X-0.250000X-0.475000X0.250000X-0.475000X0*%
G04 APERTURE END LIST*
D10*
%TO.C,J1*%
X111749200Y-98750600D03*
X120249200Y-98750600D03*
%TD*%
%TO.C,J1*%
X133749200Y-98750600D03*
X142249200Y-98750600D03*
%TD*%
%TO.C,J1*%
X155749200Y-98750600D03*
X164249200Y-98750600D03*
%TD*%
%TO.C,J1*%
X177749200Y-98750600D03*
X186249200Y-98750600D03*
%TD*%
%TO.C,J1*%
X199749200Y-98750600D03*
X208249200Y-98750600D03*
%TD*%
D11*
%TO.C,F1*%
X166226700Y-102875600D03*
X168101700Y-102875600D03*
%TD*%
D12*
%TO.C,U2*%
X181154200Y-116725600D03*
X181154200Y-118225600D03*
X182294200Y-116725600D03*
X182294200Y-118225600D03*
D13*
X179249200Y-119380600D03*
X179249200Y-118110600D03*
X179249200Y-116840600D03*
X179249200Y-115570600D03*
X184199200Y-115570600D03*
X184199200Y-116840600D03*
X184199200Y-118110600D03*
X184199200Y-119380600D03*
%TD*%
D14*
%TO.C,C25*%
X168774200Y-121027148D03*
X168774200Y-119477148D03*
%TD*%
D15*
%TO.C,C27*%
X205320748Y-121205600D03*
X207220748Y-121205600D03*
%TD*%
D16*
%TO.C,C11*%
X178974200Y-123000600D03*
X180524200Y-123000600D03*
%TD*%
%TO.C,C13*%
X176224200Y-128750600D03*
X177774200Y-128750600D03*
%TD*%
D17*
%TO.C,FB7*%
X129040594Y-121297165D03*
X129040594Y-119722165D03*
%TD*%
D14*
%TO.C,C29*%
X174744200Y-119774052D03*
X174744200Y-118224052D03*
%TD*%
D18*
%TO.C,C31*%
X177004200Y-114572148D03*
X177004200Y-116472148D03*
%TD*%
%TO.C,C22*%
X211284200Y-112100482D03*
X211284200Y-114000482D03*
%TD*%
D12*
%TO.C,U2*%
X137154200Y-116725600D03*
X137154200Y-118225600D03*
X138294200Y-116725600D03*
X138294200Y-118225600D03*
D13*
X135249200Y-119380600D03*
X135249200Y-118110600D03*
X135249200Y-116840600D03*
X135249200Y-115570600D03*
X140199200Y-115570600D03*
X140199200Y-116840600D03*
X140199200Y-118110600D03*
X140199200Y-119380600D03*
%TD*%
D14*
%TO.C,C26*%
X189214200Y-121274052D03*
X189214200Y-119724052D03*
%TD*%
D18*
%TO.C,C31*%
X111004200Y-114572148D03*
X111004200Y-116472148D03*
%TD*%
D17*
%TO.C,FB7*%
X107040594Y-121297165D03*
X107040594Y-119722165D03*
%TD*%
D16*
%TO.C,C11*%
X134974200Y-123000600D03*
X136524200Y-123000600D03*
%TD*%
D19*
%TO.C,C28*%
X110474200Y-120179052D03*
X110474200Y-118279052D03*
%TD*%
D20*
%TO.C,FB5*%
X133786700Y-131750600D03*
X132211700Y-131750600D03*
%TD*%
D18*
%TO.C,C22*%
X167284200Y-112100482D03*
X167284200Y-114000482D03*
%TD*%
D21*
%TO.C,FB4*%
X159956404Y-124035600D03*
X161531404Y-124035600D03*
%TD*%
D16*
%TO.C,C14*%
X110224200Y-130250600D03*
X111774200Y-130250600D03*
%TD*%
D14*
%TO.C,C29*%
X108744200Y-119774052D03*
X108744200Y-118224052D03*
%TD*%
%TO.C,C25*%
X146774200Y-121027148D03*
X146774200Y-119477148D03*
%TD*%
D22*
%TO.C,L1*%
X212749200Y-115688100D03*
X212749200Y-117813100D03*
%TD*%
D18*
%TO.C,C21*%
X145174200Y-106935600D03*
X145174200Y-108835600D03*
%TD*%
D23*
%TO.C,C24*%
X117504200Y-112055482D03*
X117504200Y-113605482D03*
%TD*%
D24*
%TO.C,L3*%
X146749200Y-124813100D03*
X146749200Y-122688100D03*
%TD*%
D25*
%TO.C,L2*%
X189030152Y-118125600D03*
X186905152Y-118125600D03*
%TD*%
D18*
%TO.C,C21*%
X123174200Y-106935600D03*
X123174200Y-108835600D03*
%TD*%
D16*
%TO.C,C12*%
X156974200Y-124500600D03*
X158524200Y-124500600D03*
%TD*%
D25*
%TO.C,L2*%
X167030152Y-118125600D03*
X164905152Y-118125600D03*
%TD*%
D17*
%TO.C,FB7*%
X151040594Y-121297165D03*
X151040594Y-119722165D03*
%TD*%
D16*
%TO.C,C13*%
X132224200Y-128750600D03*
X133774200Y-128750600D03*
%TD*%
D20*
%TO.C,FB5*%
X111786700Y-131750600D03*
X110211700Y-131750600D03*
%TD*%
D16*
%TO.C,C13*%
X110224200Y-128750600D03*
X111774200Y-128750600D03*
%TD*%
D21*
%TO.C,FB4*%
X115956404Y-124035600D03*
X117531404Y-124035600D03*
%TD*%
D11*
%TO.C,F1*%
X210226700Y-102875600D03*
X212101700Y-102875600D03*
%TD*%
D19*
%TO.C,C28*%
X198474200Y-120179052D03*
X198474200Y-118279052D03*
%TD*%
D18*
%TO.C,C31*%
X199004200Y-114572148D03*
X199004200Y-116472148D03*
%TD*%
D26*
%TO.C,C33*%
X144177652Y-116285600D03*
X142277652Y-116285600D03*
%TD*%
D23*
%TO.C,C23*%
X185014200Y-112055482D03*
X185014200Y-113605482D03*
%TD*%
D18*
%TO.C,C21*%
X211174200Y-106935600D03*
X211174200Y-108835600D03*
%TD*%
D22*
%TO.C,L1*%
X124749200Y-115688100D03*
X124749200Y-117813100D03*
%TD*%
D24*
%TO.C,L3*%
X168749200Y-124813100D03*
X168749200Y-122688100D03*
%TD*%
D22*
%TO.C,L1*%
X190749200Y-115688100D03*
X190749200Y-117813100D03*
%TD*%
D16*
%TO.C,C11*%
X200974200Y-123000600D03*
X202524200Y-123000600D03*
%TD*%
D21*
%TO.C,FB4*%
X137956404Y-124035600D03*
X139531404Y-124035600D03*
%TD*%
D18*
%TO.C,C22*%
X123284200Y-112100482D03*
X123284200Y-114000482D03*
%TD*%
D12*
%TO.C,U2*%
X159154200Y-116725600D03*
X159154200Y-118225600D03*
X160294200Y-116725600D03*
X160294200Y-118225600D03*
D13*
X157249200Y-119380600D03*
X157249200Y-118110600D03*
X157249200Y-116840600D03*
X157249200Y-115570600D03*
X162199200Y-115570600D03*
X162199200Y-116840600D03*
X162199200Y-118110600D03*
X162199200Y-119380600D03*
%TD*%
D23*
%TO.C,C23*%
X119014200Y-112055482D03*
X119014200Y-113605482D03*
%TD*%
D25*
%TO.C,L2*%
X145030152Y-118125600D03*
X142905152Y-118125600D03*
%TD*%
D26*
%TO.C,C32*%
X181427652Y-121265600D03*
X179527652Y-121265600D03*
%TD*%
D25*
%TO.C,L2*%
X123030152Y-118125600D03*
X120905152Y-118125600D03*
%TD*%
D16*
%TO.C,C12*%
X178974200Y-124500600D03*
X180524200Y-124500600D03*
%TD*%
D23*
%TO.C,C30*%
X130764200Y-121227148D03*
X130764200Y-122777148D03*
%TD*%
D14*
%TO.C,C25*%
X124774200Y-121027148D03*
X124774200Y-119477148D03*
%TD*%
D15*
%TO.C,C27*%
X161320748Y-121205600D03*
X163220748Y-121205600D03*
%TD*%
D23*
%TO.C,C30*%
X108764200Y-121227148D03*
X108764200Y-122777148D03*
%TD*%
D16*
%TO.C,C13*%
X198224200Y-128750600D03*
X199774200Y-128750600D03*
%TD*%
D14*
%TO.C,C25*%
X190774200Y-121027148D03*
X190774200Y-119477148D03*
%TD*%
D24*
%TO.C,L3*%
X190749200Y-124813100D03*
X190749200Y-122688100D03*
%TD*%
D26*
%TO.C,C32*%
X203427652Y-121265600D03*
X201527652Y-121265600D03*
%TD*%
D16*
%TO.C,C11*%
X156974200Y-123000600D03*
X158524200Y-123000600D03*
%TD*%
D18*
%TO.C,C31*%
X155004200Y-114572148D03*
X155004200Y-116472148D03*
%TD*%
D17*
%TO.C,FB7*%
X173040594Y-121297165D03*
X173040594Y-119722165D03*
%TD*%
D16*
%TO.C,C11*%
X112974200Y-123000600D03*
X114524200Y-123000600D03*
%TD*%
D18*
%TO.C,C22*%
X189284200Y-112100482D03*
X189284200Y-114000482D03*
%TD*%
D26*
%TO.C,C33*%
X210177652Y-116285600D03*
X208277652Y-116285600D03*
%TD*%
D22*
%TO.C,L1*%
X146749200Y-115688100D03*
X146749200Y-117813100D03*
%TD*%
D16*
%TO.C,C14*%
X154224200Y-130250600D03*
X155774200Y-130250600D03*
%TD*%
D23*
%TO.C,C30*%
X152764200Y-121227148D03*
X152764200Y-122777148D03*
%TD*%
D12*
%TO.C,U2*%
X203154200Y-116725600D03*
X203154200Y-118225600D03*
X204294200Y-116725600D03*
X204294200Y-118225600D03*
D13*
X201249200Y-119380600D03*
X201249200Y-118110600D03*
X201249200Y-116840600D03*
X201249200Y-115570600D03*
X206199200Y-115570600D03*
X206199200Y-116840600D03*
X206199200Y-118110600D03*
X206199200Y-119380600D03*
%TD*%
D26*
%TO.C,C33*%
X166177652Y-116285600D03*
X164277652Y-116285600D03*
%TD*%
D16*
%TO.C,C14*%
X176224200Y-130250600D03*
X177774200Y-130250600D03*
%TD*%
D14*
%TO.C,C26*%
X167214200Y-121274052D03*
X167214200Y-119724052D03*
%TD*%
D20*
%TO.C,FB5*%
X155786700Y-131750600D03*
X154211700Y-131750600D03*
%TD*%
D26*
%TO.C,C33*%
X188177652Y-116285600D03*
X186277652Y-116285600D03*
%TD*%
D19*
%TO.C,C28*%
X132474200Y-120179052D03*
X132474200Y-118279052D03*
%TD*%
D14*
%TO.C,C29*%
X152744200Y-119774052D03*
X152744200Y-118224052D03*
%TD*%
D11*
%TO.C,F1*%
X122226700Y-102875600D03*
X124101700Y-102875600D03*
%TD*%
D19*
%TO.C,C28*%
X154474200Y-120179052D03*
X154474200Y-118279052D03*
%TD*%
D14*
%TO.C,C26*%
X145214200Y-121274052D03*
X145214200Y-119724052D03*
%TD*%
D11*
%TO.C,F1*%
X188226700Y-102875600D03*
X190101700Y-102875600D03*
%TD*%
D23*
%TO.C,C24*%
X205504200Y-112055482D03*
X205504200Y-113605482D03*
%TD*%
D18*
%TO.C,C21*%
X189174200Y-106935600D03*
X189174200Y-108835600D03*
%TD*%
D24*
%TO.C,L3*%
X124749200Y-124813100D03*
X124749200Y-122688100D03*
%TD*%
D23*
%TO.C,C30*%
X196764200Y-121227148D03*
X196764200Y-122777148D03*
%TD*%
D15*
%TO.C,C27*%
X117320748Y-121205600D03*
X119220748Y-121205600D03*
%TD*%
D20*
%TO.C,FB5*%
X177786700Y-131750600D03*
X176211700Y-131750600D03*
%TD*%
D25*
%TO.C,L2*%
X211030152Y-118125600D03*
X208905152Y-118125600D03*
%TD*%
D14*
%TO.C,C25*%
X212774200Y-121027148D03*
X212774200Y-119477148D03*
%TD*%
D16*
%TO.C,C14*%
X198224200Y-130250600D03*
X199774200Y-130250600D03*
%TD*%
D11*
%TO.C,F1*%
X144226700Y-102875600D03*
X146101700Y-102875600D03*
%TD*%
D16*
%TO.C,C12*%
X200974200Y-124500600D03*
X202524200Y-124500600D03*
%TD*%
D23*
%TO.C,C24*%
X161504200Y-112055482D03*
X161504200Y-113605482D03*
%TD*%
D14*
%TO.C,C26*%
X211214200Y-121274052D03*
X211214200Y-119724052D03*
%TD*%
D26*
%TO.C,C32*%
X159427652Y-121265600D03*
X157527652Y-121265600D03*
%TD*%
D16*
%TO.C,C12*%
X134974200Y-124500600D03*
X136524200Y-124500600D03*
%TD*%
D26*
%TO.C,C32*%
X137427652Y-121265600D03*
X135527652Y-121265600D03*
%TD*%
D18*
%TO.C,C31*%
X133004200Y-114572148D03*
X133004200Y-116472148D03*
%TD*%
D23*
%TO.C,C23*%
X141014200Y-112055482D03*
X141014200Y-113605482D03*
%TD*%
D15*
%TO.C,C27*%
X183320748Y-121205600D03*
X185220748Y-121205600D03*
%TD*%
D23*
%TO.C,C24*%
X139504200Y-112055482D03*
X139504200Y-113605482D03*
%TD*%
%TO.C,C30*%
X174764200Y-121227148D03*
X174764200Y-122777148D03*
%TD*%
D24*
%TO.C,L3*%
X212749200Y-124813100D03*
X212749200Y-122688100D03*
%TD*%
D16*
%TO.C,C14*%
X132224200Y-130250600D03*
X133774200Y-130250600D03*
%TD*%
D17*
%TO.C,FB7*%
X195040594Y-121297165D03*
X195040594Y-119722165D03*
%TD*%
D14*
%TO.C,C29*%
X130744200Y-119774052D03*
X130744200Y-118224052D03*
%TD*%
D23*
%TO.C,C24*%
X183504200Y-112055482D03*
X183504200Y-113605482D03*
%TD*%
D15*
%TO.C,C27*%
X139320748Y-121205600D03*
X141220748Y-121205600D03*
%TD*%
D19*
%TO.C,C28*%
X176474200Y-120179052D03*
X176474200Y-118279052D03*
%TD*%
D14*
%TO.C,C26*%
X123214200Y-121274052D03*
X123214200Y-119724052D03*
%TD*%
D21*
%TO.C,FB4*%
X203956404Y-124035600D03*
X205531404Y-124035600D03*
%TD*%
D26*
%TO.C,C33*%
X122177652Y-116285600D03*
X120277652Y-116285600D03*
%TD*%
D18*
%TO.C,C22*%
X145284200Y-112100482D03*
X145284200Y-114000482D03*
%TD*%
D14*
%TO.C,C29*%
X196744200Y-119774052D03*
X196744200Y-118224052D03*
%TD*%
D21*
%TO.C,FB4*%
X181956404Y-124035600D03*
X183531404Y-124035600D03*
%TD*%
D26*
%TO.C,C32*%
X115427652Y-121265600D03*
X113527652Y-121265600D03*
%TD*%
D20*
%TO.C,FB5*%
X199786700Y-131750600D03*
X198211700Y-131750600D03*
%TD*%
D18*
%TO.C,C21*%
X167174200Y-106935600D03*
X167174200Y-108835600D03*
%TD*%
D23*
%TO.C,C23*%
X207014200Y-112055482D03*
X207014200Y-113605482D03*
%TD*%
D12*
%TO.C,U2*%
X115154200Y-116725600D03*
X115154200Y-118225600D03*
X116294200Y-116725600D03*
X116294200Y-118225600D03*
D13*
X113249200Y-119380600D03*
X113249200Y-118110600D03*
X113249200Y-116840600D03*
X113249200Y-115570600D03*
X118199200Y-115570600D03*
X118199200Y-116840600D03*
X118199200Y-118110600D03*
X118199200Y-119380600D03*
%TD*%
D23*
%TO.C,C23*%
X163014200Y-112055482D03*
X163014200Y-113605482D03*
%TD*%
D16*
%TO.C,C13*%
X154224200Y-128750600D03*
X155774200Y-128750600D03*
%TD*%
%TO.C,C12*%
X112974200Y-124500600D03*
X114524200Y-124500600D03*
%TD*%
D22*
%TO.C,L1*%
X168749200Y-115688100D03*
X168749200Y-117813100D03*
%TD*%
M02*
