%TF.GenerationSoftware,KiCad,Pcbnew,7.0.1*%
%TF.CreationDate,2023-10-09T01:00:06+02:00*%
%TF.ProjectId,current_probe,63757272-656e-4745-9f70-726f62652e6b,rev?*%
%TF.SameCoordinates,Original*%
%TF.FileFunction,Paste,Top*%
%TF.FilePolarity,Positive*%
%FSLAX46Y46*%
G04 Gerber Fmt 4.6, Leading zero omitted, Abs format (unit mm)*
G04 Created by KiCad (PCBNEW 7.0.1) date 2023-10-09 01:00:06*
%MOMM*%
%LPD*%
G01*
G04 APERTURE LIST*
G04 Aperture macros list*
%AMRoundRect*
0 Rectangle with rounded corners*
0 $1 Rounding radius*
0 $2 $3 $4 $5 $6 $7 $8 $9 X,Y pos of 4 corners*
0 Add a 4 corners polygon primitive as box body*
4,1,4,$2,$3,$4,$5,$6,$7,$8,$9,$2,$3,0*
0 Add four circle primitives for the rounded corners*
1,1,$1+$1,$2,$3*
1,1,$1+$1,$4,$5*
1,1,$1+$1,$6,$7*
1,1,$1+$1,$8,$9*
0 Add four rect primitives between the rounded corners*
20,1,$1+$1,$2,$3,$4,$5,0*
20,1,$1+$1,$4,$5,$6,$7,0*
20,1,$1+$1,$6,$7,$8,$9,0*
20,1,$1+$1,$8,$9,$2,$3,0*%
G04 Aperture macros list end*
%ADD10RoundRect,0.200000X0.275000X-0.200000X0.275000X0.200000X-0.275000X0.200000X-0.275000X-0.200000X0*%
%ADD11RoundRect,0.225000X0.225000X0.250000X-0.225000X0.250000X-0.225000X-0.250000X0.225000X-0.250000X0*%
%ADD12R,0.304800X1.676400*%
%ADD13RoundRect,0.218750X0.256250X-0.218750X0.256250X0.218750X-0.256250X0.218750X-0.256250X-0.218750X0*%
%ADD14RoundRect,0.225000X-0.250000X0.225000X-0.250000X-0.225000X0.250000X-0.225000X0.250000X0.225000X0*%
%ADD15RoundRect,0.200000X-0.275000X0.200000X-0.275000X-0.200000X0.275000X-0.200000X0.275000X0.200000X0*%
%ADD16RoundRect,0.200000X-0.200000X-0.275000X0.200000X-0.275000X0.200000X0.275000X-0.200000X0.275000X0*%
%ADD17RoundRect,0.225000X-0.225000X-0.250000X0.225000X-0.250000X0.225000X0.250000X-0.225000X0.250000X0*%
%ADD18RoundRect,0.200000X0.200000X0.275000X-0.200000X0.275000X-0.200000X-0.275000X0.200000X-0.275000X0*%
%ADD19R,1.500000X5.080000*%
%ADD20RoundRect,0.218750X0.218750X0.256250X-0.218750X0.256250X-0.218750X-0.256250X0.218750X-0.256250X0*%
%ADD21RoundRect,0.250000X0.650000X-1.000000X0.650000X1.000000X-0.650000X1.000000X-0.650000X-1.000000X0*%
%ADD22RoundRect,0.225000X0.250000X-0.225000X0.250000X0.225000X-0.250000X0.225000X-0.250000X-0.225000X0*%
%ADD23RoundRect,0.218750X-0.256250X0.218750X-0.256250X-0.218750X0.256250X-0.218750X0.256250X0.218750X0*%
%ADD24R,1.650000X2.540000*%
%ADD25RoundRect,0.243750X0.456250X-0.243750X0.456250X0.243750X-0.456250X0.243750X-0.456250X-0.243750X0*%
G04 APERTURE END LIST*
D10*
%TO.C,R12*%
X162499200Y-121075600D03*
X162499200Y-119425600D03*
%TD*%
D11*
%TO.C,C4*%
X181759319Y-130646415D03*
X180209319Y-130646415D03*
%TD*%
D12*
%TO.C,U1*%
X177641700Y-128913600D03*
X178276700Y-128913600D03*
X178911700Y-128913600D03*
X179546700Y-128913600D03*
X180181700Y-128913600D03*
X180816700Y-128913600D03*
X181451700Y-128913600D03*
X182086700Y-128913600D03*
X182721700Y-128913600D03*
X183356700Y-128913600D03*
X183356700Y-124087600D03*
X182721700Y-124087600D03*
X182086700Y-124087600D03*
X181451700Y-124087600D03*
X180816700Y-124087600D03*
X180181700Y-124087600D03*
X179546700Y-124087600D03*
X178911700Y-124087600D03*
X178276700Y-124087600D03*
X177641700Y-124087600D03*
%TD*%
D13*
%TO.C,FB3*%
X180004972Y-122443196D03*
X180004972Y-120868196D03*
%TD*%
D11*
%TO.C,C9*%
X110524200Y-129500600D03*
X108974200Y-129500600D03*
%TD*%
D14*
%TO.C,C15*%
X209499200Y-119975600D03*
X209499200Y-121525600D03*
%TD*%
D13*
%TO.C,FB2*%
X178238904Y-140098100D03*
X178238904Y-138523100D03*
%TD*%
%TO.C,FB2*%
X200238904Y-140098100D03*
X200238904Y-138523100D03*
%TD*%
D14*
%TO.C,C16*%
X119999200Y-119975600D03*
X119999200Y-121525600D03*
%TD*%
D15*
%TO.C,R10*%
X121843904Y-134300896D03*
X121843904Y-135950896D03*
%TD*%
D16*
%TO.C,R8*%
X116924200Y-118000600D03*
X118574200Y-118000600D03*
%TD*%
D17*
%TO.C,C1*%
X134213904Y-134060600D03*
X135763904Y-134060600D03*
%TD*%
D11*
%TO.C,C19*%
X143524200Y-123750600D03*
X141974200Y-123750600D03*
%TD*%
D18*
%TO.C,R2*%
X118574200Y-116500600D03*
X116924200Y-116500600D03*
%TD*%
D17*
%TO.C,C10*%
X132974200Y-115000600D03*
X134524200Y-115000600D03*
%TD*%
D19*
%TO.C,J1*%
X115999200Y-98750600D03*
X111749200Y-98750600D03*
X120249200Y-98750600D03*
%TD*%
D17*
%TO.C,C10*%
X154974200Y-115000600D03*
X156524200Y-115000600D03*
%TD*%
D14*
%TO.C,C16*%
X207999200Y-119975600D03*
X207999200Y-121525600D03*
%TD*%
D10*
%TO.C,R4*%
X138999200Y-121075600D03*
X138999200Y-119425600D03*
%TD*%
D14*
%TO.C,C18*%
X141024200Y-129500600D03*
X141024200Y-131050600D03*
%TD*%
D20*
%TO.C,D1*%
X202276404Y-142060600D03*
X200701404Y-142060600D03*
%TD*%
D15*
%TO.C,R10*%
X187843904Y-134300896D03*
X187843904Y-135950896D03*
%TD*%
D11*
%TO.C,C20*%
X121524200Y-125250600D03*
X119974200Y-125250600D03*
%TD*%
D18*
%TO.C,R9*%
X134574200Y-116500600D03*
X132924200Y-116500600D03*
%TD*%
D10*
%TO.C,R4*%
X204999200Y-121075600D03*
X204999200Y-119425600D03*
%TD*%
D15*
%TO.C,R7*%
X178499200Y-120425600D03*
X178499200Y-122075600D03*
%TD*%
%TO.C,R10*%
X209843904Y-134300896D03*
X209843904Y-135950896D03*
%TD*%
D18*
%TO.C,R9*%
X200574200Y-116500600D03*
X198924200Y-116500600D03*
%TD*%
D13*
%TO.C,FB2*%
X134238904Y-140098100D03*
X134238904Y-138523100D03*
%TD*%
D14*
%TO.C,C18*%
X207024200Y-129500600D03*
X207024200Y-131050600D03*
%TD*%
D11*
%TO.C,C9*%
X132524200Y-129500600D03*
X130974200Y-129500600D03*
%TD*%
D14*
%TO.C,C18*%
X119024200Y-129500600D03*
X119024200Y-131050600D03*
%TD*%
D11*
%TO.C,C2*%
X134224530Y-132553966D03*
X132674530Y-132553966D03*
%TD*%
D12*
%TO.C,U1*%
X155641700Y-128913600D03*
X156276700Y-128913600D03*
X156911700Y-128913600D03*
X157546700Y-128913600D03*
X158181700Y-128913600D03*
X158816700Y-128913600D03*
X159451700Y-128913600D03*
X160086700Y-128913600D03*
X160721700Y-128913600D03*
X161356700Y-128913600D03*
X161356700Y-124087600D03*
X160721700Y-124087600D03*
X160086700Y-124087600D03*
X159451700Y-124087600D03*
X158816700Y-124087600D03*
X158181700Y-124087600D03*
X157546700Y-124087600D03*
X156911700Y-124087600D03*
X156276700Y-124087600D03*
X155641700Y-124087600D03*
%TD*%
D16*
%TO.C,R8*%
X138924200Y-118000600D03*
X140574200Y-118000600D03*
%TD*%
D17*
%TO.C,C1*%
X156213904Y-134060600D03*
X157763904Y-134060600D03*
%TD*%
D18*
%TO.C,R2*%
X162574200Y-116500600D03*
X160924200Y-116500600D03*
%TD*%
D11*
%TO.C,C7*%
X159755220Y-132142322D03*
X158205220Y-132142322D03*
%TD*%
%TO.C,C7*%
X203755220Y-132142322D03*
X202205220Y-132142322D03*
%TD*%
D18*
%TO.C,R9*%
X178574200Y-116500600D03*
X176924200Y-116500600D03*
%TD*%
D14*
%TO.C,C16*%
X185999200Y-119975600D03*
X185999200Y-121525600D03*
%TD*%
D13*
%TO.C,FB2*%
X112238904Y-140098100D03*
X112238904Y-138523100D03*
%TD*%
D21*
%TO.C,D2*%
X124104200Y-101770600D03*
X124104200Y-97770600D03*
%TD*%
D20*
%TO.C,D1*%
X136276404Y-142060600D03*
X134701404Y-142060600D03*
%TD*%
D14*
%TO.C,C8*%
X113979381Y-117915145D03*
X113979381Y-119465145D03*
%TD*%
D10*
%TO.C,R6*%
X136012051Y-116538801D03*
X136012051Y-114888801D03*
%TD*%
D11*
%TO.C,C2*%
X156224530Y-132553966D03*
X154674530Y-132553966D03*
%TD*%
D16*
%TO.C,R13*%
X186079200Y-116995600D03*
X187729200Y-116995600D03*
%TD*%
D11*
%TO.C,C9*%
X154524200Y-129500600D03*
X152974200Y-129500600D03*
%TD*%
D18*
%TO.C,R9*%
X156574200Y-116500600D03*
X154924200Y-116500600D03*
%TD*%
D11*
%TO.C,C4*%
X137759319Y-130646415D03*
X136209319Y-130646415D03*
%TD*%
D10*
%TO.C,R6*%
X158012051Y-116538801D03*
X158012051Y-114888801D03*
%TD*%
D15*
%TO.C,R10*%
X165843904Y-134300896D03*
X165843904Y-135950896D03*
%TD*%
D17*
%TO.C,C3*%
X138974200Y-115000600D03*
X140524200Y-115000600D03*
%TD*%
D14*
%TO.C,C5*%
X115462123Y-117917475D03*
X115462123Y-119467475D03*
%TD*%
D11*
%TO.C,C4*%
X115759319Y-130646415D03*
X114209319Y-130646415D03*
%TD*%
%TO.C,C20*%
X209524200Y-125250600D03*
X207974200Y-125250600D03*
%TD*%
D10*
%TO.C,R1*%
X115261341Y-135243501D03*
X115261341Y-133593501D03*
%TD*%
D14*
%TO.C,C16*%
X141999200Y-119975600D03*
X141999200Y-121525600D03*
%TD*%
D16*
%TO.C,R3*%
X176924200Y-118000600D03*
X178574200Y-118000600D03*
%TD*%
D22*
%TO.C,C17*%
X184999200Y-134025600D03*
X184999200Y-132475600D03*
%TD*%
D14*
%TO.C,C6*%
X178238904Y-135535600D03*
X178238904Y-137085600D03*
%TD*%
D12*
%TO.C,U1*%
X133641700Y-128913600D03*
X134276700Y-128913600D03*
X134911700Y-128913600D03*
X135546700Y-128913600D03*
X136181700Y-128913600D03*
X136816700Y-128913600D03*
X137451700Y-128913600D03*
X138086700Y-128913600D03*
X138721700Y-128913600D03*
X139356700Y-128913600D03*
X139356700Y-124087600D03*
X138721700Y-124087600D03*
X138086700Y-124087600D03*
X137451700Y-124087600D03*
X136816700Y-124087600D03*
X136181700Y-124087600D03*
X135546700Y-124087600D03*
X134911700Y-124087600D03*
X134276700Y-124087600D03*
X133641700Y-124087600D03*
%TD*%
D14*
%TO.C,C15*%
X121499200Y-119975600D03*
X121499200Y-121525600D03*
%TD*%
D13*
%TO.C,FB2*%
X156238904Y-140098100D03*
X156238904Y-138523100D03*
%TD*%
D11*
%TO.C,C7*%
X181755220Y-132142322D03*
X180205220Y-132142322D03*
%TD*%
D10*
%TO.C,R12*%
X184499200Y-121075600D03*
X184499200Y-119425600D03*
%TD*%
D18*
%TO.C,R2*%
X206574200Y-116500600D03*
X204924200Y-116500600D03*
%TD*%
D12*
%TO.C,U1*%
X111641700Y-128913600D03*
X112276700Y-128913600D03*
X112911700Y-128913600D03*
X113546700Y-128913600D03*
X114181700Y-128913600D03*
X114816700Y-128913600D03*
X115451700Y-128913600D03*
X116086700Y-128913600D03*
X116721700Y-128913600D03*
X117356700Y-128913600D03*
X117356700Y-124087600D03*
X116721700Y-124087600D03*
X116086700Y-124087600D03*
X115451700Y-124087600D03*
X114816700Y-124087600D03*
X114181700Y-124087600D03*
X113546700Y-124087600D03*
X112911700Y-124087600D03*
X112276700Y-124087600D03*
X111641700Y-124087600D03*
%TD*%
D10*
%TO.C,R12*%
X206499200Y-121075600D03*
X206499200Y-119425600D03*
%TD*%
D11*
%TO.C,C19*%
X121524200Y-123750600D03*
X119974200Y-123750600D03*
%TD*%
D20*
%TO.C,D1*%
X114276404Y-142060600D03*
X112701404Y-142060600D03*
%TD*%
D14*
%TO.C,C15*%
X143499200Y-119975600D03*
X143499200Y-121525600D03*
%TD*%
D10*
%TO.C,R1*%
X203261341Y-135243501D03*
X203261341Y-133593501D03*
%TD*%
D15*
%TO.C,R10*%
X143843904Y-134300896D03*
X143843904Y-135950896D03*
%TD*%
D20*
%TO.C,D1*%
X180276404Y-142060600D03*
X178701404Y-142060600D03*
%TD*%
D13*
%TO.C,FB3*%
X136004972Y-122443196D03*
X136004972Y-120868196D03*
%TD*%
D23*
%TO.C,FB1*%
X203497395Y-120871256D03*
X203497395Y-122446256D03*
%TD*%
D16*
%TO.C,R3*%
X110924200Y-118000600D03*
X112574200Y-118000600D03*
%TD*%
D12*
%TO.C,U1*%
X199641700Y-128913600D03*
X200276700Y-128913600D03*
X200911700Y-128913600D03*
X201546700Y-128913600D03*
X202181700Y-128913600D03*
X202816700Y-128913600D03*
X203451700Y-128913600D03*
X204086700Y-128913600D03*
X204721700Y-128913600D03*
X205356700Y-128913600D03*
X205356700Y-124087600D03*
X204721700Y-124087600D03*
X204086700Y-124087600D03*
X203451700Y-124087600D03*
X202816700Y-124087600D03*
X202181700Y-124087600D03*
X201546700Y-124087600D03*
X200911700Y-124087600D03*
X200276700Y-124087600D03*
X199641700Y-124087600D03*
%TD*%
D11*
%TO.C,C7*%
X137755220Y-132142322D03*
X136205220Y-132142322D03*
%TD*%
D23*
%TO.C,FB6*%
X161237556Y-131282976D03*
X161237556Y-132857976D03*
%TD*%
D11*
%TO.C,C9*%
X198524200Y-129500600D03*
X196974200Y-129500600D03*
%TD*%
D14*
%TO.C,C15*%
X165499200Y-119975600D03*
X165499200Y-121525600D03*
%TD*%
D10*
%TO.C,R4*%
X160999200Y-121075600D03*
X160999200Y-119425600D03*
%TD*%
D21*
%TO.C,D2*%
X190104200Y-101770600D03*
X190104200Y-97770600D03*
%TD*%
D17*
%TO.C,C1*%
X178213904Y-134060600D03*
X179763904Y-134060600D03*
%TD*%
D16*
%TO.C,R8*%
X204924200Y-118000600D03*
X206574200Y-118000600D03*
%TD*%
D11*
%TO.C,C4*%
X203759319Y-130646415D03*
X202209319Y-130646415D03*
%TD*%
D24*
%TO.C,TR1*%
X134264200Y-112705600D03*
X136804200Y-112705600D03*
X139344200Y-112705600D03*
X139344200Y-107625600D03*
X136804200Y-107625600D03*
X134264200Y-107625600D03*
%TD*%
D21*
%TO.C,D2*%
X168104200Y-101770600D03*
X168104200Y-97770600D03*
%TD*%
D11*
%TO.C,C9*%
X176524200Y-129500600D03*
X174974200Y-129500600D03*
%TD*%
D23*
%TO.C,FB6*%
X205237556Y-131282976D03*
X205237556Y-132857976D03*
%TD*%
D16*
%TO.C,R13*%
X164079200Y-116995600D03*
X165729200Y-116995600D03*
%TD*%
D14*
%TO.C,C5*%
X137462123Y-117917475D03*
X137462123Y-119467475D03*
%TD*%
D11*
%TO.C,C19*%
X187524200Y-123750600D03*
X185974200Y-123750600D03*
%TD*%
D19*
%TO.C,J1*%
X137999200Y-98750600D03*
X133749200Y-98750600D03*
X142249200Y-98750600D03*
%TD*%
D13*
%TO.C,FB3*%
X158004972Y-122443196D03*
X158004972Y-120868196D03*
%TD*%
D23*
%TO.C,FB1*%
X181497395Y-120871256D03*
X181497395Y-122446256D03*
%TD*%
D10*
%TO.C,R12*%
X140499200Y-121075600D03*
X140499200Y-119425600D03*
%TD*%
%TO.C,R5*%
X137521496Y-116552371D03*
X137521496Y-114902371D03*
%TD*%
D23*
%TO.C,FB1*%
X115497395Y-120871256D03*
X115497395Y-122446256D03*
%TD*%
D25*
%TO.C,D3*%
X168499200Y-121938100D03*
X168499200Y-120063100D03*
%TD*%
D10*
%TO.C,R4*%
X116999200Y-121075600D03*
X116999200Y-119425600D03*
%TD*%
D23*
%TO.C,FB6*%
X183237556Y-131282976D03*
X183237556Y-132857976D03*
%TD*%
D14*
%TO.C,C6*%
X112238904Y-135535600D03*
X112238904Y-137085600D03*
%TD*%
D11*
%TO.C,C2*%
X178224530Y-132553966D03*
X176674530Y-132553966D03*
%TD*%
D10*
%TO.C,R5*%
X159521496Y-116552371D03*
X159521496Y-114902371D03*
%TD*%
D18*
%TO.C,R2*%
X140574200Y-116500600D03*
X138924200Y-116500600D03*
%TD*%
D10*
%TO.C,R1*%
X137261341Y-135243501D03*
X137261341Y-133593501D03*
%TD*%
%TO.C,R1*%
X181261341Y-135243501D03*
X181261341Y-133593501D03*
%TD*%
%TO.C,R5*%
X115521496Y-116552371D03*
X115521496Y-114902371D03*
%TD*%
D21*
%TO.C,D2*%
X212104200Y-101770600D03*
X212104200Y-97770600D03*
%TD*%
D19*
%TO.C,J1*%
X159999200Y-98750600D03*
X155749200Y-98750600D03*
X164249200Y-98750600D03*
%TD*%
D23*
%TO.C,FB1*%
X159497395Y-120871256D03*
X159497395Y-122446256D03*
%TD*%
D14*
%TO.C,C6*%
X200238904Y-135535600D03*
X200238904Y-137085600D03*
%TD*%
%TO.C,C5*%
X159462123Y-117917475D03*
X159462123Y-119467475D03*
%TD*%
%TO.C,C8*%
X157979381Y-117915145D03*
X157979381Y-119465145D03*
%TD*%
%TO.C,C6*%
X134238904Y-135535600D03*
X134238904Y-137085600D03*
%TD*%
D16*
%TO.C,R13*%
X142079200Y-116995600D03*
X143729200Y-116995600D03*
%TD*%
D23*
%TO.C,FB6*%
X139237556Y-131282976D03*
X139237556Y-132857976D03*
%TD*%
D22*
%TO.C,C17*%
X206999200Y-134025600D03*
X206999200Y-132475600D03*
%TD*%
D15*
%TO.C,R7*%
X156499200Y-120425600D03*
X156499200Y-122075600D03*
%TD*%
D17*
%TO.C,C1*%
X200213904Y-134060600D03*
X201763904Y-134060600D03*
%TD*%
D13*
%TO.C,FB3*%
X114004972Y-122443196D03*
X114004972Y-120868196D03*
%TD*%
D10*
%TO.C,R6*%
X202012051Y-116538801D03*
X202012051Y-114888801D03*
%TD*%
%TO.C,R5*%
X181521496Y-116552371D03*
X181521496Y-114902371D03*
%TD*%
D17*
%TO.C,C10*%
X110974200Y-115000600D03*
X112524200Y-115000600D03*
%TD*%
D16*
%TO.C,R13*%
X208079200Y-116995600D03*
X209729200Y-116995600D03*
%TD*%
D25*
%TO.C,D3*%
X190499200Y-121938100D03*
X190499200Y-120063100D03*
%TD*%
D20*
%TO.C,D1*%
X158276404Y-142060600D03*
X156701404Y-142060600D03*
%TD*%
D15*
%TO.C,R7*%
X134499200Y-120425600D03*
X134499200Y-122075600D03*
%TD*%
D11*
%TO.C,C2*%
X200224530Y-132553966D03*
X198674530Y-132553966D03*
%TD*%
D18*
%TO.C,R2*%
X184574200Y-116500600D03*
X182924200Y-116500600D03*
%TD*%
D15*
%TO.C,R7*%
X112499200Y-120425600D03*
X112499200Y-122075600D03*
%TD*%
D10*
%TO.C,R12*%
X118499200Y-121075600D03*
X118499200Y-119425600D03*
%TD*%
D19*
%TO.C,J1*%
X181999200Y-98750600D03*
X177749200Y-98750600D03*
X186249200Y-98750600D03*
%TD*%
D11*
%TO.C,C4*%
X159759319Y-130646415D03*
X158209319Y-130646415D03*
%TD*%
D22*
%TO.C,C17*%
X162999200Y-134025600D03*
X162999200Y-132475600D03*
%TD*%
D21*
%TO.C,D2*%
X146104200Y-101770600D03*
X146104200Y-97770600D03*
%TD*%
D10*
%TO.C,R6*%
X114012051Y-116538801D03*
X114012051Y-114888801D03*
%TD*%
D14*
%TO.C,C15*%
X187499200Y-119975600D03*
X187499200Y-121525600D03*
%TD*%
D17*
%TO.C,C3*%
X160974200Y-115000600D03*
X162524200Y-115000600D03*
%TD*%
D23*
%TO.C,FB1*%
X137497395Y-120871256D03*
X137497395Y-122446256D03*
%TD*%
D14*
%TO.C,C6*%
X156238904Y-135535600D03*
X156238904Y-137085600D03*
%TD*%
D10*
%TO.C,R6*%
X180012051Y-116538801D03*
X180012051Y-114888801D03*
%TD*%
D24*
%TO.C,TR1*%
X156264200Y-112705600D03*
X158804200Y-112705600D03*
X161344200Y-112705600D03*
X161344200Y-107625600D03*
X158804200Y-107625600D03*
X156264200Y-107625600D03*
%TD*%
D11*
%TO.C,C19*%
X209524200Y-123750600D03*
X207974200Y-123750600D03*
%TD*%
D10*
%TO.C,R5*%
X203521496Y-116552371D03*
X203521496Y-114902371D03*
%TD*%
D25*
%TO.C,D3*%
X124499200Y-121938100D03*
X124499200Y-120063100D03*
%TD*%
%TO.C,D3*%
X212499200Y-121938100D03*
X212499200Y-120063100D03*
%TD*%
D11*
%TO.C,C19*%
X165524200Y-123750600D03*
X163974200Y-123750600D03*
%TD*%
D17*
%TO.C,C3*%
X182974200Y-115000600D03*
X184524200Y-115000600D03*
%TD*%
D11*
%TO.C,C20*%
X165524200Y-125250600D03*
X163974200Y-125250600D03*
%TD*%
D24*
%TO.C,TR1*%
X178264200Y-112705600D03*
X180804200Y-112705600D03*
X183344200Y-112705600D03*
X183344200Y-107625600D03*
X180804200Y-107625600D03*
X178264200Y-107625600D03*
%TD*%
D14*
%TO.C,C5*%
X181462123Y-117917475D03*
X181462123Y-119467475D03*
%TD*%
D13*
%TO.C,FB3*%
X202004972Y-122443196D03*
X202004972Y-120868196D03*
%TD*%
D17*
%TO.C,C3*%
X116974200Y-115000600D03*
X118524200Y-115000600D03*
%TD*%
D16*
%TO.C,R3*%
X198924200Y-118000600D03*
X200574200Y-118000600D03*
%TD*%
D15*
%TO.C,R7*%
X200499200Y-120425600D03*
X200499200Y-122075600D03*
%TD*%
D24*
%TO.C,TR1*%
X200264200Y-112705600D03*
X202804200Y-112705600D03*
X205344200Y-112705600D03*
X205344200Y-107625600D03*
X202804200Y-107625600D03*
X200264200Y-107625600D03*
%TD*%
D14*
%TO.C,C8*%
X179979381Y-117915145D03*
X179979381Y-119465145D03*
%TD*%
D11*
%TO.C,C7*%
X115755220Y-132142322D03*
X114205220Y-132142322D03*
%TD*%
D14*
%TO.C,C8*%
X135979381Y-117915145D03*
X135979381Y-119465145D03*
%TD*%
D24*
%TO.C,TR1*%
X112264200Y-112705600D03*
X114804200Y-112705600D03*
X117344200Y-112705600D03*
X117344200Y-107625600D03*
X114804200Y-107625600D03*
X112264200Y-107625600D03*
%TD*%
D16*
%TO.C,R8*%
X160924200Y-118000600D03*
X162574200Y-118000600D03*
%TD*%
D14*
%TO.C,C16*%
X163999200Y-119975600D03*
X163999200Y-121525600D03*
%TD*%
D11*
%TO.C,C20*%
X187524200Y-125250600D03*
X185974200Y-125250600D03*
%TD*%
D16*
%TO.C,R3*%
X132924200Y-118000600D03*
X134574200Y-118000600D03*
%TD*%
D14*
%TO.C,C18*%
X185024200Y-129500600D03*
X185024200Y-131050600D03*
%TD*%
%TO.C,C5*%
X203462123Y-117917475D03*
X203462123Y-119467475D03*
%TD*%
D22*
%TO.C,C17*%
X118999200Y-134025600D03*
X118999200Y-132475600D03*
%TD*%
D17*
%TO.C,C10*%
X176974200Y-115000600D03*
X178524200Y-115000600D03*
%TD*%
D19*
%TO.C,J1*%
X203999200Y-98750600D03*
X199749200Y-98750600D03*
X208249200Y-98750600D03*
%TD*%
D18*
%TO.C,R9*%
X112574200Y-116500600D03*
X110924200Y-116500600D03*
%TD*%
D17*
%TO.C,C3*%
X204974200Y-115000600D03*
X206524200Y-115000600D03*
%TD*%
D16*
%TO.C,R8*%
X182924200Y-118000600D03*
X184574200Y-118000600D03*
%TD*%
D11*
%TO.C,C20*%
X143524200Y-125250600D03*
X141974200Y-125250600D03*
%TD*%
D17*
%TO.C,C10*%
X198974200Y-115000600D03*
X200524200Y-115000600D03*
%TD*%
%TO.C,C1*%
X112213904Y-134060600D03*
X113763904Y-134060600D03*
%TD*%
D14*
%TO.C,C18*%
X163024200Y-129500600D03*
X163024200Y-131050600D03*
%TD*%
D11*
%TO.C,C2*%
X112224530Y-132553966D03*
X110674530Y-132553966D03*
%TD*%
D16*
%TO.C,R13*%
X120079200Y-116995600D03*
X121729200Y-116995600D03*
%TD*%
D10*
%TO.C,R4*%
X182999200Y-121075600D03*
X182999200Y-119425600D03*
%TD*%
%TO.C,R1*%
X159261341Y-135243501D03*
X159261341Y-133593501D03*
%TD*%
D23*
%TO.C,FB6*%
X117237556Y-131282976D03*
X117237556Y-132857976D03*
%TD*%
D22*
%TO.C,C17*%
X140999200Y-134025600D03*
X140999200Y-132475600D03*
%TD*%
D14*
%TO.C,C8*%
X201979381Y-117915145D03*
X201979381Y-119465145D03*
%TD*%
D25*
%TO.C,D3*%
X146499200Y-121938100D03*
X146499200Y-120063100D03*
%TD*%
D16*
%TO.C,R3*%
X154924200Y-118000600D03*
X156574200Y-118000600D03*
%TD*%
M02*
