%TF.GenerationSoftware,KiCad,Pcbnew,7.0.1*%
%TF.CreationDate,2023-10-09T01:00:08+02:00*%
%TF.ProjectId,current_probe,63757272-656e-4745-9f70-726f62652e6b,rev?*%
%TF.SameCoordinates,Original*%
%TF.FileFunction,Profile,NP*%
%FSLAX46Y46*%
G04 Gerber Fmt 4.6, Leading zero omitted, Abs format (unit mm)*
G04 Created by KiCad (PCBNEW 7.0.1) date 2023-10-09 01:00:08*
%MOMM*%
%LPD*%
G01*
G04 APERTURE LIST*
%TA.AperFunction,Profile*%
%ADD10C,0.100000*%
%TD*%
G04 APERTURE END LIST*
D10*
X147999978Y-96000000D02*
X147999851Y-109916554D01*
X146300800Y-94999400D02*
G75*
G03*
X146300800Y-94999400I-300000J0D01*
G01*
X166300647Y-146999253D02*
G75*
G03*
X166300647Y-146999253I-300000J0D01*
G01*
X191999807Y-109916554D02*
G75*
G03*
X193999807Y-109916554I1000000J0D01*
G01*
X105289500Y-128320400D02*
G75*
G03*
X105289500Y-128320400I-300000J0D01*
G01*
X142250800Y-95999400D02*
G75*
G03*
X142250800Y-93999400I0J1000000D01*
G01*
X128250000Y-96000000D02*
G75*
G03*
X128250000Y-94000000I0J1000000D01*
G01*
X197299803Y-146999853D02*
G75*
G03*
X197299803Y-146999853I-300000J0D01*
G01*
X105989500Y-132070400D02*
G75*
G03*
X103989500Y-132070400I-1000000J0D01*
G01*
X147999851Y-132083204D02*
X148000669Y-145999253D01*
X120250691Y-147999347D02*
G75*
G03*
X120250691Y-145999253I9J1000047D01*
G01*
X120250000Y-94000000D02*
X111749200Y-94000600D01*
X131299869Y-146999853D02*
G75*
G03*
X131299869Y-146999853I-300000J0D01*
G01*
X106249200Y-94000600D02*
X103999200Y-94000600D01*
X213750603Y-147999253D02*
X216000603Y-147999253D01*
X215999784Y-145999854D02*
X215999785Y-132083204D01*
X105289500Y-129320400D02*
G75*
G03*
X105289500Y-129320400I-300000J0D01*
G01*
X190300800Y-94999400D02*
G75*
G03*
X190300800Y-94999400I-300000J0D01*
G01*
X127299873Y-129333204D02*
G75*
G03*
X127299873Y-129333204I-300000J0D01*
G01*
X130300000Y-95000000D02*
G75*
G03*
X130300000Y-95000000I-300000J0D01*
G01*
X213750800Y-93999400D02*
G75*
G03*
X213750800Y-95999400I0J-1000000D01*
G01*
X133750000Y-94000000D02*
X142250800Y-93999400D01*
X186250800Y-95999400D02*
X177750000Y-96000000D01*
X199749803Y-145999853D02*
X208250603Y-145999253D01*
X208250800Y-95999400D02*
G75*
G03*
X208250800Y-93999400I0J1000000D01*
G01*
X168300800Y-94999400D02*
G75*
G03*
X168300800Y-94999400I-300000J0D01*
G01*
X109299200Y-95000600D02*
G75*
G03*
X109299200Y-95000600I-300000J0D01*
G01*
X189300625Y-146999253D02*
G75*
G03*
X189300625Y-146999253I-300000J0D01*
G01*
X110299891Y-146999853D02*
G75*
G03*
X110299891Y-146999853I-300000J0D01*
G01*
X216000000Y-94000000D02*
X213750800Y-93999400D01*
X196300000Y-95000000D02*
G75*
G03*
X196300000Y-95000000I-300000J0D01*
G01*
X147999851Y-126583204D02*
G75*
G03*
X149999851Y-126583204I1000000J0D01*
G01*
X177750000Y-94000000D02*
X186250800Y-93999400D01*
X169750800Y-93999906D02*
G75*
G03*
X169750800Y-95998894I0J-999494D01*
G01*
X150250000Y-96000000D02*
X149999850Y-95999904D01*
X171999829Y-132083204D02*
G75*
G03*
X169999829Y-132083204I-1000000J0D01*
G01*
X215299785Y-113666554D02*
G75*
G03*
X215299785Y-113666554I-300000J0D01*
G01*
X171299829Y-130333204D02*
G75*
G03*
X171299829Y-130333204I-300000J0D01*
G01*
X186250625Y-147999347D02*
G75*
G03*
X186250625Y-145999253I-25J1000047D01*
G01*
X196299803Y-146999853D02*
G75*
G03*
X196299803Y-146999853I-300000J0D01*
G01*
X149299851Y-113666554D02*
G75*
G03*
X149299851Y-113666554I-300000J0D01*
G01*
X193299807Y-112666554D02*
G75*
G03*
X193299807Y-112666554I-300000J0D01*
G01*
X171999828Y-145999854D02*
X171999829Y-132083204D01*
X191750625Y-145999347D02*
G75*
G03*
X191750625Y-147999253I-25J-999953D01*
G01*
X133749869Y-145999947D02*
G75*
G03*
X133749869Y-147999853I31J-999953D01*
G01*
X177749825Y-147999853D02*
X186250625Y-147999253D01*
X215299785Y-130333204D02*
G75*
G03*
X215299785Y-130333204I-300000J0D01*
G01*
X149299851Y-112666554D02*
G75*
G03*
X149299851Y-112666554I-300000J0D01*
G01*
X125750000Y-94000000D02*
X128250000Y-94000000D01*
X169750647Y-147999253D02*
X172250644Y-147999254D01*
X186250800Y-95999400D02*
G75*
G03*
X186250800Y-93999400I0J1000000D01*
G01*
X169999829Y-126583204D02*
G75*
G03*
X171999829Y-126583204I1000000J0D01*
G01*
X111749891Y-145999947D02*
G75*
G03*
X111749891Y-147999853I9J-999953D01*
G01*
X149999850Y-145999854D02*
X149999851Y-132083204D01*
X130299869Y-146999853D02*
G75*
G03*
X130299869Y-146999853I-300000J0D01*
G01*
X106249200Y-96000600D02*
G75*
G03*
X106249200Y-94000600I0J1000000D01*
G01*
X191999934Y-96000000D02*
X191999807Y-109916554D01*
X191750800Y-93999400D02*
G75*
G03*
X191750800Y-95999400I0J-1000000D01*
G01*
X213999912Y-96000000D02*
X213999785Y-109916554D01*
X125999873Y-109916554D02*
G75*
G03*
X127999873Y-109916554I1000000J0D01*
G01*
X177750000Y-94000000D02*
G75*
G03*
X177750000Y-96000000I0J-1000000D01*
G01*
X155749847Y-145999947D02*
G75*
G03*
X155749847Y-147999853I-47J-999953D01*
G01*
X191999807Y-115416554D02*
X191999807Y-126583204D01*
X191750800Y-93999400D02*
X194250000Y-94000000D01*
X123300000Y-95000000D02*
G75*
G03*
X123300000Y-95000000I-300000J0D01*
G01*
X125750000Y-96000000D02*
X126000000Y-96000000D01*
X144300669Y-146999253D02*
G75*
G03*
X144300669Y-146999253I-300000J0D01*
G01*
X155749847Y-145999853D02*
X164250647Y-145999253D01*
X213999786Y-145999854D02*
X213750603Y-145999253D01*
X211300800Y-94999400D02*
G75*
G03*
X211300800Y-94999400I-300000J0D01*
G01*
X124300691Y-146999253D02*
G75*
G03*
X124300691Y-146999253I-300000J0D01*
G01*
X103989500Y-115405400D02*
X103989500Y-126570400D01*
X149999851Y-109916554D02*
X149999850Y-95999904D01*
X122300691Y-146999253D02*
G75*
G03*
X122300691Y-146999253I-300000J0D01*
G01*
X127999872Y-95999904D02*
X128250000Y-96000000D01*
X131300000Y-95000000D02*
G75*
G03*
X131300000Y-95000000I-300000J0D01*
G01*
X152300000Y-95000000D02*
G75*
G03*
X152300000Y-95000000I-300000J0D01*
G01*
X127299873Y-112666554D02*
G75*
G03*
X127299873Y-112666554I-300000J0D01*
G01*
X147750669Y-147999253D02*
X150249847Y-147999853D01*
X148000000Y-96000000D02*
X147750800Y-96000000D01*
X166300800Y-94999400D02*
G75*
G03*
X166300800Y-94999400I-300000J0D01*
G01*
X103999896Y-147999852D02*
X106249891Y-147999853D01*
X171999829Y-109916554D02*
X171999828Y-95999904D01*
X212300800Y-94999400D02*
G75*
G03*
X212300800Y-94999400I-300000J0D01*
G01*
X193299807Y-113666554D02*
G75*
G03*
X193299807Y-113666554I-300000J0D01*
G01*
X199749803Y-145999947D02*
G75*
G03*
X199749803Y-147999853I-3J-999953D01*
G01*
X150249847Y-147999947D02*
G75*
G03*
X150249847Y-145999853I-47J1000047D01*
G01*
X199749803Y-147999853D02*
X208250603Y-147999253D01*
X215299785Y-129333204D02*
G75*
G03*
X215299785Y-129333204I-300000J0D01*
G01*
X169999830Y-96000096D02*
X169750800Y-95999496D01*
X142250669Y-147999347D02*
G75*
G03*
X142250669Y-145999253I31J1000047D01*
G01*
X215299785Y-128333204D02*
G75*
G03*
X215299785Y-128333204I-300000J0D01*
G01*
X125750000Y-94000000D02*
G75*
G03*
X125750000Y-96000000I0J-1000000D01*
G01*
X125750691Y-145999347D02*
G75*
G03*
X125750691Y-147999253I9J-999953D01*
G01*
X192000625Y-145999253D02*
X191750625Y-145999253D01*
X168300647Y-146999253D02*
G75*
G03*
X168300647Y-146999253I-300000J0D01*
G01*
X198299803Y-146999853D02*
G75*
G03*
X198299803Y-146999853I-300000J0D01*
G01*
X175299825Y-146999853D02*
G75*
G03*
X175299825Y-146999853I-300000J0D01*
G01*
X169999829Y-115416554D02*
X169999829Y-126583204D01*
X167300800Y-94999400D02*
G75*
G03*
X167300800Y-94999400I-300000J0D01*
G01*
X105289500Y-111655400D02*
G75*
G03*
X105289500Y-111655400I-300000J0D01*
G01*
X169999829Y-132083204D02*
X169999830Y-145999854D01*
X147999851Y-109916554D02*
G75*
G03*
X149999851Y-109916554I1000000J0D01*
G01*
X215999785Y-132083204D02*
G75*
G03*
X213999785Y-132083204I-1000000J0D01*
G01*
X213999785Y-115416554D02*
X213999785Y-126583204D01*
X147750800Y-93998800D02*
G75*
G03*
X147750800Y-96000000I0J-1000600D01*
G01*
X191999807Y-126583204D02*
G75*
G03*
X193999807Y-126583204I1000000J0D01*
G01*
X120250000Y-96000000D02*
G75*
G03*
X120250000Y-94000000I0J1000000D01*
G01*
X188300625Y-146999253D02*
G75*
G03*
X188300625Y-146999253I-300000J0D01*
G01*
X126000691Y-145999253D02*
X125750691Y-145999253D01*
X189300800Y-94999400D02*
G75*
G03*
X189300800Y-94999400I-300000J0D01*
G01*
X171999829Y-126583204D02*
X171999829Y-115416554D01*
X216000603Y-147999253D02*
X215999784Y-145999854D01*
X124300000Y-95000000D02*
G75*
G03*
X124300000Y-95000000I-300000J0D01*
G01*
X108299200Y-95000600D02*
G75*
G03*
X108299200Y-95000600I-300000J0D01*
G01*
X194249803Y-145999853D02*
X193999806Y-145999854D01*
X149299851Y-111666554D02*
G75*
G03*
X149299851Y-111666554I-300000J0D01*
G01*
X133749869Y-145999853D02*
X142250669Y-145999253D01*
X125999873Y-126583204D02*
G75*
G03*
X127999873Y-126583204I1000000J0D01*
G01*
X103989500Y-132070400D02*
X103999896Y-147666519D01*
X210300603Y-146999253D02*
G75*
G03*
X210300603Y-146999253I-300000J0D01*
G01*
X155750000Y-94000000D02*
X164250800Y-93999400D01*
X132299869Y-146999853D02*
G75*
G03*
X132299869Y-146999853I-300000J0D01*
G01*
X215999785Y-126583204D02*
X215999785Y-115416554D01*
X146300669Y-146999253D02*
G75*
G03*
X146300669Y-146999253I-300000J0D01*
G01*
X142250800Y-95999400D02*
X133750000Y-96000000D01*
X149299851Y-128333204D02*
G75*
G03*
X149299851Y-128333204I-300000J0D01*
G01*
X149299851Y-129333204D02*
G75*
G03*
X149299851Y-129333204I-300000J0D01*
G01*
X106249891Y-145999853D02*
X105999891Y-145999853D01*
X154300000Y-95000000D02*
G75*
G03*
X154300000Y-95000000I-300000J0D01*
G01*
X153299847Y-146999853D02*
G75*
G03*
X153299847Y-146999853I-300000J0D01*
G01*
X126000000Y-96000000D02*
X125999873Y-109916554D01*
X147750669Y-145999347D02*
G75*
G03*
X147750669Y-147999253I31J-999953D01*
G01*
X171999828Y-95999904D02*
X172250000Y-96000000D01*
X172250000Y-96000000D02*
G75*
G03*
X172250000Y-94000000I0J1000000D01*
G01*
X191750625Y-147999253D02*
X194250622Y-147999254D01*
X212300603Y-146999253D02*
G75*
G03*
X212300603Y-146999253I-300000J0D01*
G01*
X150249847Y-145999853D02*
X149999850Y-145999854D01*
X147999851Y-115416554D02*
X147999851Y-126583204D01*
X174300000Y-95000000D02*
G75*
G03*
X174300000Y-95000000I-300000J0D01*
G01*
X127299873Y-130333204D02*
G75*
G03*
X127299873Y-130333204I-300000J0D01*
G01*
X171299829Y-128333204D02*
G75*
G03*
X171299829Y-128333204I-300000J0D01*
G01*
X111749891Y-147999853D02*
X120250691Y-147999253D01*
X199750000Y-96000000D02*
X208250800Y-95999400D01*
X128249869Y-145999853D02*
X127999872Y-145999854D01*
X164250647Y-147999347D02*
G75*
G03*
X164250647Y-145999253I-47J1000047D01*
G01*
X215299785Y-112666554D02*
G75*
G03*
X215299785Y-112666554I-300000J0D01*
G01*
X127299873Y-113666554D02*
G75*
G03*
X127299873Y-113666554I-300000J0D01*
G01*
X167300647Y-146999253D02*
G75*
G03*
X167300647Y-146999253I-300000J0D01*
G01*
X108299891Y-146999853D02*
G75*
G03*
X108299891Y-146999853I-300000J0D01*
G01*
X176299825Y-146999853D02*
G75*
G03*
X176299825Y-146999853I-300000J0D01*
G01*
X153300000Y-95000000D02*
G75*
G03*
X153300000Y-95000000I-300000J0D01*
G01*
X144300800Y-94999400D02*
G75*
G03*
X144300800Y-94999400I-300000J0D01*
G01*
X191999807Y-132083204D02*
X191999808Y-145999854D01*
X213999785Y-109916554D02*
G75*
G03*
X215999785Y-109916554I1000000J0D01*
G01*
X210300800Y-94999400D02*
G75*
G03*
X210300800Y-94999400I-300000J0D01*
G01*
X213999785Y-126583204D02*
G75*
G03*
X215999785Y-126583204I1000000J0D01*
G01*
X109299891Y-146999853D02*
G75*
G03*
X109299891Y-146999853I-300000J0D01*
G01*
X106249891Y-147999947D02*
G75*
G03*
X106249891Y-145999853I9J1000047D01*
G01*
X122300000Y-95000000D02*
G75*
G03*
X122300000Y-95000000I-300000J0D01*
G01*
X171299829Y-129333204D02*
G75*
G03*
X171299829Y-129333204I-300000J0D01*
G01*
X127999873Y-126583204D02*
X127999873Y-115416554D01*
X125999873Y-115416554D02*
X125999873Y-126583204D01*
X213999785Y-132083204D02*
X213999786Y-145999854D01*
X127299873Y-111666554D02*
G75*
G03*
X127299873Y-111666554I-300000J0D01*
G01*
X193999807Y-132083204D02*
G75*
G03*
X191999807Y-132083204I-1000000J0D01*
G01*
X172250000Y-94000000D02*
X169750800Y-93999906D01*
X148000669Y-145999253D02*
X147750669Y-145999253D01*
X105989500Y-109905400D02*
X105999200Y-96000600D01*
X145300800Y-94999400D02*
G75*
G03*
X145300800Y-94999400I-300000J0D01*
G01*
X105289500Y-113655400D02*
G75*
G03*
X105289500Y-113655400I-300000J0D01*
G01*
X193299807Y-130333204D02*
G75*
G03*
X193299807Y-130333204I-300000J0D01*
G01*
X103989500Y-109905400D02*
X103999200Y-94000600D01*
X103989500Y-126570400D02*
G75*
G03*
X105989500Y-126570400I1000000J0D01*
G01*
X123300691Y-146999253D02*
G75*
G03*
X123300691Y-146999253I-300000J0D01*
G01*
X193999807Y-126583204D02*
X193999807Y-115416554D01*
X164250800Y-95999400D02*
X155750000Y-96000000D01*
X194249803Y-147999947D02*
G75*
G03*
X194249803Y-145999853I-3J1000047D01*
G01*
X171999829Y-115416554D02*
G75*
G03*
X169999829Y-115416554I-1000000J0D01*
G01*
X111749200Y-94000600D02*
G75*
G03*
X111749200Y-96000600I0J-1000000D01*
G01*
X149999851Y-115416554D02*
G75*
G03*
X147999851Y-115416554I-1000000J0D01*
G01*
X110299200Y-95000600D02*
G75*
G03*
X110299200Y-95000600I-300000J0D01*
G01*
X127999872Y-145999854D02*
X127999873Y-132083204D01*
X169750647Y-145999347D02*
G75*
G03*
X169750647Y-147999253I-47J-999953D01*
G01*
X191750800Y-95999400D02*
X191999934Y-96000000D01*
X171299829Y-112666554D02*
G75*
G03*
X171299829Y-112666554I-300000J0D01*
G01*
X175300000Y-95000000D02*
G75*
G03*
X175300000Y-95000000I-300000J0D01*
G01*
X213750800Y-95999400D02*
X213999912Y-96000000D01*
X127999873Y-115416554D02*
G75*
G03*
X125999873Y-115416554I-1000000J0D01*
G01*
X98999200Y-89000600D02*
X220999200Y-89000600D01*
X220999200Y-153000600D01*
X98999200Y-153000600D01*
X98999200Y-89000600D01*
X149999851Y-132083204D02*
G75*
G03*
X147999851Y-132083204I-1000000J0D01*
G01*
X199750000Y-94000000D02*
G75*
G03*
X199750000Y-96000000I0J-1000000D01*
G01*
X215999785Y-109916554D02*
X215999784Y-95999904D01*
X169999830Y-96000000D02*
X169999829Y-109916554D01*
X171299829Y-113666554D02*
G75*
G03*
X171299829Y-113666554I-300000J0D01*
G01*
X149299851Y-130333204D02*
G75*
G03*
X149299851Y-130333204I-300000J0D01*
G01*
X169999829Y-109916554D02*
G75*
G03*
X171999829Y-109916554I1000000J0D01*
G01*
X127999873Y-109916554D02*
X127999872Y-95999904D01*
X190300625Y-146999253D02*
G75*
G03*
X190300625Y-146999253I-300000J0D01*
G01*
X103999896Y-147666519D02*
X103999896Y-147999852D01*
X125999873Y-132083204D02*
X125999874Y-145999854D01*
X105289500Y-130320400D02*
G75*
G03*
X105289500Y-130320400I-300000J0D01*
G01*
X105289500Y-112655400D02*
G75*
G03*
X105289500Y-112655400I-300000J0D01*
G01*
X149999851Y-126583204D02*
X149999851Y-115416554D01*
X105999200Y-96000600D02*
X106249200Y-96000600D01*
X208250603Y-147999347D02*
G75*
G03*
X208250603Y-145999253I-3J1000047D01*
G01*
X155750000Y-94000000D02*
G75*
G03*
X155750000Y-96000000I0J-1000000D01*
G01*
X150250000Y-96000000D02*
G75*
G03*
X150250000Y-94000000I0J1000000D01*
G01*
X105989500Y-115405400D02*
G75*
G03*
X103989500Y-115405400I-1000000J0D01*
G01*
X188300800Y-94999400D02*
G75*
G03*
X188300800Y-94999400I-300000J0D01*
G01*
X105989500Y-126570400D02*
X105989500Y-115405400D01*
X211300603Y-146999253D02*
G75*
G03*
X211300603Y-146999253I-300000J0D01*
G01*
X155749847Y-147999853D02*
X164250647Y-147999253D01*
X215299785Y-111666554D02*
G75*
G03*
X215299785Y-111666554I-300000J0D01*
G01*
X193299807Y-129333204D02*
G75*
G03*
X193299807Y-129333204I-300000J0D01*
G01*
X170000647Y-145999253D02*
X169750647Y-145999253D01*
X193999807Y-109916554D02*
X193999806Y-95999904D01*
X111749200Y-96000600D02*
X120250000Y-96000000D01*
X120250691Y-145999253D02*
X111749891Y-145999853D01*
X177749825Y-145999853D02*
X186250625Y-145999253D01*
X177749825Y-145999947D02*
G75*
G03*
X177749825Y-147999853I-25J-999953D01*
G01*
X171299829Y-111666554D02*
G75*
G03*
X171299829Y-111666554I-300000J0D01*
G01*
X174299825Y-146999853D02*
G75*
G03*
X174299825Y-146999853I-300000J0D01*
G01*
X103989500Y-109905400D02*
G75*
G03*
X105989500Y-109905400I1000000J0D01*
G01*
X198300000Y-95000000D02*
G75*
G03*
X198300000Y-95000000I-300000J0D01*
G01*
X132300000Y-95000000D02*
G75*
G03*
X132300000Y-95000000I-300000J0D01*
G01*
X147750800Y-93999400D02*
X150250000Y-94000000D01*
X127999873Y-132083204D02*
G75*
G03*
X125999873Y-132083204I-1000000J0D01*
G01*
X145300669Y-146999253D02*
G75*
G03*
X145300669Y-146999253I-300000J0D01*
G01*
X125750691Y-147999253D02*
X128250688Y-147999254D01*
X172249825Y-147999947D02*
G75*
G03*
X172249825Y-145999853I-25J1000047D01*
G01*
X194250000Y-95999904D02*
G75*
G03*
X194250000Y-94000096I0J999904D01*
G01*
X193299807Y-111666554D02*
G75*
G03*
X193299807Y-111666554I-300000J0D01*
G01*
X127299873Y-128333204D02*
G75*
G03*
X127299873Y-128333204I-300000J0D01*
G01*
X197300000Y-95000000D02*
G75*
G03*
X197300000Y-95000000I-300000J0D01*
G01*
X164250800Y-95999400D02*
G75*
G03*
X164250800Y-93999400I0J1000000D01*
G01*
X215999785Y-115416554D02*
G75*
G03*
X213999785Y-115416554I-1000000J0D01*
G01*
X133749869Y-147999853D02*
X142250669Y-147999253D01*
X154299847Y-146999853D02*
G75*
G03*
X154299847Y-146999853I-300000J0D01*
G01*
X208250800Y-93999400D02*
X199750000Y-94000000D01*
X176300000Y-95000000D02*
G75*
G03*
X176300000Y-95000000I-300000J0D01*
G01*
X193999806Y-145999854D02*
X193999807Y-132083204D01*
X128249869Y-147999947D02*
G75*
G03*
X128249869Y-145999853I31J1000047D01*
G01*
X133750000Y-94000000D02*
G75*
G03*
X133750000Y-96000000I0J-1000000D01*
G01*
X194250000Y-95999904D02*
X193999806Y-95999904D01*
X193299807Y-128333204D02*
G75*
G03*
X193299807Y-128333204I-300000J0D01*
G01*
X213750603Y-145999347D02*
G75*
G03*
X213750603Y-147999253I-3J-999953D01*
G01*
X215999784Y-95999904D02*
X216000000Y-94000000D01*
X193999807Y-115416554D02*
G75*
G03*
X191999807Y-115416554I-1000000J0D01*
G01*
X172249825Y-145999853D02*
X171999828Y-145999854D01*
X152299847Y-146999853D02*
G75*
G03*
X152299847Y-146999853I-300000J0D01*
G01*
X105999894Y-145999854D02*
X105989500Y-132070400D01*
M02*
