M48
; DRILL file {KiCad 7.0.1} date Mon 09 Oct 2023 01:00:01 AM CEST
; FORMAT={-:-/ absolute / metric / decimal}
; #@! TF.CreationDate,2023-10-09T01:00:01+02:00
; #@! TF.GenerationSoftware,Kicad,Pcbnew,7.0.1
; #@! TF.FileFunction,Plated,1,2,PTH
FMAT,2
METRIC
; #@! TA.AperFunction,Plated,PTH,ViaDrill
T1C0.300
; #@! TA.AperFunction,Plated,PTH,ComponentDrill
T2C0.800
; #@! TA.AperFunction,Plated,PTH,ComponentDrill
T3C1.000
; #@! TA.AperFunction,Plated,PTH,ComponentDrill
T4C1.075
%
G90
G05
T1
X106.489Y-111.311
X106.489Y-129.561
X106.489Y-137.561
X106.499Y-96.501
X106.499Y-109.251
X106.499Y-117.001
X106.499Y-123.001
X106.499Y-124.751
X106.59Y-141.315
X106.749Y-102.251
X106.749Y-132.501
X107.999Y-102.501
X107.999Y-104.751
X107.999Y-120.501
X107.999Y-141.501
X108.046Y-113.177
X108.124Y-139.208
X108.135Y-144.712
X108.489Y-133.061
X108.749Y-134.501
X108.999Y-124.251
X108.999Y-126.001
X108.999Y-128.251
X108.999Y-130.501
X109.249Y-102.001
X109.489Y-113.811
X109.499Y-116.251
X109.663Y-119.239
X109.999Y-106.501
X109.999Y-122.751
X110.249Y-96.501
X110.249Y-98.501
X110.249Y-100.501
X110.249Y-143.001
X110.249Y-145.001
X110.749Y-105.001
X110.749Y-124.751
X110.749Y-126.501
X110.749Y-128.251
X110.783Y-112.01
X110.989Y-134.311
X110.989Y-135.311
X110.989Y-136.811
X110.989Y-138.311
X110.989Y-139.811
X110.999Y-122.001
X111.489Y-141.061
X111.489Y-143.061
X111.939Y-121.249
X112.249Y-125.751
X112.249Y-127.251
X112.749Y-130.251
X112.842Y-131.302
X113.239Y-143.311
X113.247Y-132.308
X113.249Y-96.501
X113.249Y-98.501
X113.249Y-100.501
X113.249Y-145.001
X113.489Y-135.561
X113.489Y-136.811
X113.489Y-138.061
X113.489Y-139.561
X113.499Y-109.501
X113.499Y-125.751
X113.499Y-127.251
X113.55Y-112.704
X114.239Y-140.811
X114.489Y-136.311
X114.499Y-96.501
X114.499Y-98.501
X114.499Y-100.501
X114.709Y-118.699
X114.732Y-117.218
X114.736Y-120.171
X114.749Y-125.751
X114.749Y-127.251
X114.75Y-115.725
X115.047Y-138.072
X115.489Y-136.311
X115.489Y-142.061
X115.641Y-125.426
X115.739Y-145.561
X115.999Y-109.501
X115.999Y-127.251
X116.057Y-112.696
X116.062Y-139.601
X116.178Y-115.743
X116.237Y-134.472
X116.239Y-126.061
X116.242Y-118.716
X116.245Y-117.245
X116.252Y-120.167
X116.65Y-122.36
X117.204Y-130.295
X117.239Y-125.811
X117.239Y-142.811
X117.249Y-127.251
X117.281Y-136.7
X117.311Y-140.813
X117.499Y-96.501
X117.499Y-98.501
X117.499Y-100.501
X117.524Y-110.98
X117.989Y-134.45
X118.016Y-129.351
X118.499Y-124.751
X118.499Y-126.501
X118.499Y-128.251
X118.739Y-143.811
X118.739Y-145.311
X118.749Y-96.501
X118.749Y-98.501
X118.749Y-100.501
X118.767Y-142.024
X118.999Y-107.251
X118.999Y-108.751
X118.999Y-111.001
X119.014Y-135.145
X119.249Y-139.751
X119.499Y-137.751
X119.739Y-104.811
X120.249Y-129.001
X120.499Y-133.501
X120.499Y-134.501
X120.749Y-120.501
X120.749Y-139.001
X120.999Y-143.751
X121.239Y-129.561
X121.249Y-137.501
X121.249Y-145.251
X121.489Y-133.061
X121.739Y-104.561
X121.989Y-112.811
X121.999Y-140.001
X122.249Y-141.251
X122.489Y-97.811
X122.489Y-99.811
X122.489Y-130.061
X122.499Y-115.251
X122.588Y-135.132
X122.749Y-124.001
X122.749Y-125.501
X122.749Y-145.251
X122.999Y-105.501
X123.249Y-111.001
X123.489Y-133.561
X123.499Y-140.251
X123.65Y-136.637
X123.815Y-113.038
X123.999Y-99.751
X124.249Y-104.001
X124.249Y-105.001
X124.749Y-137.501
X124.749Y-139.001
X124.999Y-141.251
X125.249Y-109.251
X125.249Y-111.751
X125.249Y-114.001
X125.249Y-126.251
X125.249Y-129.501
X125.249Y-131.501
X125.32Y-136.188
X125.489Y-145.311
X125.499Y-96.501
X125.499Y-99.751
X125.499Y-106.001
X128.489Y-111.311
X128.489Y-129.561
X128.489Y-137.561
X128.499Y-96.501
X128.499Y-109.251
X128.499Y-117.001
X128.499Y-123.001
X128.499Y-124.751
X128.59Y-141.315
X128.749Y-102.251
X128.749Y-132.501
X129.999Y-102.501
X129.999Y-104.751
X129.999Y-120.501
X129.999Y-141.501
X130.046Y-113.177
X130.124Y-139.208
X130.135Y-144.712
X130.489Y-133.061
X130.749Y-134.501
X130.999Y-124.251
X130.999Y-126.001
X130.999Y-128.251
X130.999Y-130.501
X131.249Y-102.001
X131.489Y-113.811
X131.499Y-116.251
X131.663Y-119.239
X131.999Y-106.501
X131.999Y-122.751
X132.249Y-96.501
X132.249Y-98.501
X132.249Y-100.501
X132.249Y-143.001
X132.249Y-145.001
X132.749Y-105.001
X132.749Y-124.751
X132.749Y-126.501
X132.749Y-128.251
X132.783Y-112.01
X132.989Y-134.311
X132.989Y-135.311
X132.989Y-136.811
X132.989Y-138.311
X132.989Y-139.811
X132.999Y-122.001
X133.489Y-141.061
X133.489Y-143.061
X133.939Y-121.249
X134.249Y-125.751
X134.249Y-127.251
X134.749Y-130.251
X134.842Y-131.302
X135.239Y-143.311
X135.247Y-132.308
X135.249Y-96.501
X135.249Y-98.501
X135.249Y-100.501
X135.249Y-145.001
X135.489Y-135.561
X135.489Y-136.811
X135.489Y-138.061
X135.489Y-139.561
X135.499Y-109.501
X135.499Y-125.751
X135.499Y-127.251
X135.55Y-112.704
X136.239Y-140.811
X136.489Y-136.311
X136.499Y-96.501
X136.499Y-98.501
X136.499Y-100.501
X136.709Y-118.699
X136.732Y-117.218
X136.736Y-120.171
X136.749Y-125.751
X136.749Y-127.251
X136.75Y-115.725
X137.047Y-138.072
X137.489Y-136.311
X137.489Y-142.061
X137.641Y-125.426
X137.739Y-145.561
X137.999Y-109.501
X137.999Y-127.251
X138.057Y-112.696
X138.062Y-139.601
X138.178Y-115.743
X138.237Y-134.472
X138.239Y-126.061
X138.242Y-118.716
X138.245Y-117.245
X138.252Y-120.167
X138.65Y-122.36
X139.204Y-130.295
X139.239Y-125.811
X139.239Y-142.811
X139.249Y-127.251
X139.281Y-136.7
X139.311Y-140.813
X139.499Y-96.501
X139.499Y-98.501
X139.499Y-100.501
X139.524Y-110.98
X139.989Y-134.45
X140.016Y-129.351
X140.499Y-124.751
X140.499Y-126.501
X140.499Y-128.251
X140.739Y-143.811
X140.739Y-145.311
X140.749Y-96.501
X140.749Y-98.501
X140.749Y-100.501
X140.767Y-142.024
X140.999Y-107.251
X140.999Y-108.751
X140.999Y-111.001
X141.014Y-135.145
X141.249Y-139.751
X141.499Y-137.751
X141.739Y-104.811
X142.249Y-129.001
X142.499Y-133.501
X142.499Y-134.501
X142.749Y-120.501
X142.749Y-139.001
X142.999Y-143.751
X143.239Y-129.561
X143.249Y-137.501
X143.249Y-145.251
X143.489Y-133.061
X143.739Y-104.561
X143.989Y-112.811
X143.999Y-140.001
X144.249Y-141.251
X144.489Y-97.811
X144.489Y-99.811
X144.489Y-130.061
X144.499Y-115.251
X144.588Y-135.132
X144.749Y-124.001
X144.749Y-125.501
X144.749Y-145.251
X144.999Y-105.501
X145.249Y-111.001
X145.489Y-133.561
X145.499Y-140.251
X145.65Y-136.637
X145.815Y-113.038
X145.999Y-99.751
X146.249Y-104.001
X146.249Y-105.001
X146.749Y-137.501
X146.749Y-139.001
X146.999Y-141.251
X147.249Y-109.251
X147.249Y-111.751
X147.249Y-114.001
X147.249Y-126.251
X147.249Y-129.501
X147.249Y-131.501
X147.32Y-136.188
X147.489Y-145.311
X147.499Y-96.501
X147.499Y-99.751
X147.499Y-106.001
X150.489Y-111.311
X150.489Y-129.561
X150.489Y-137.561
X150.499Y-96.501
X150.499Y-109.251
X150.499Y-117.001
X150.499Y-123.001
X150.499Y-124.751
X150.59Y-141.315
X150.749Y-102.251
X150.749Y-132.501
X151.999Y-102.501
X151.999Y-104.751
X151.999Y-120.501
X151.999Y-141.501
X152.046Y-113.177
X152.124Y-139.208
X152.135Y-144.712
X152.489Y-133.061
X152.749Y-134.501
X152.999Y-124.251
X152.999Y-126.001
X152.999Y-128.251
X152.999Y-130.501
X153.249Y-102.001
X153.489Y-113.811
X153.499Y-116.251
X153.663Y-119.239
X153.999Y-106.501
X153.999Y-122.751
X154.249Y-96.501
X154.249Y-98.501
X154.249Y-100.501
X154.249Y-143.001
X154.249Y-145.001
X154.749Y-105.001
X154.749Y-124.751
X154.749Y-126.501
X154.749Y-128.251
X154.783Y-112.01
X154.989Y-134.311
X154.989Y-135.311
X154.989Y-136.811
X154.989Y-138.311
X154.989Y-139.811
X154.999Y-122.001
X155.489Y-141.061
X155.489Y-143.061
X155.939Y-121.249
X156.249Y-125.751
X156.249Y-127.251
X156.749Y-130.251
X156.842Y-131.302
X157.239Y-143.311
X157.247Y-132.308
X157.249Y-96.501
X157.249Y-98.501
X157.249Y-100.501
X157.249Y-145.001
X157.489Y-135.561
X157.489Y-136.811
X157.489Y-138.061
X157.489Y-139.561
X157.499Y-109.501
X157.499Y-125.751
X157.499Y-127.251
X157.55Y-112.704
X158.239Y-140.811
X158.489Y-136.311
X158.499Y-96.501
X158.499Y-98.501
X158.499Y-100.501
X158.709Y-118.699
X158.732Y-117.218
X158.736Y-120.171
X158.749Y-125.751
X158.749Y-127.251
X158.75Y-115.725
X159.047Y-138.072
X159.489Y-136.311
X159.489Y-142.061
X159.641Y-125.426
X159.739Y-145.561
X159.999Y-109.501
X159.999Y-127.251
X160.057Y-112.696
X160.062Y-139.601
X160.178Y-115.743
X160.237Y-134.472
X160.239Y-126.061
X160.242Y-118.716
X160.245Y-117.245
X160.252Y-120.167
X160.65Y-122.36
X161.204Y-130.295
X161.239Y-125.811
X161.239Y-142.811
X161.249Y-127.251
X161.281Y-136.7
X161.311Y-140.813
X161.499Y-96.501
X161.499Y-98.501
X161.499Y-100.501
X161.524Y-110.98
X161.989Y-134.45
X162.016Y-129.351
X162.499Y-124.751
X162.499Y-126.501
X162.499Y-128.251
X162.739Y-143.811
X162.739Y-145.311
X162.749Y-96.501
X162.749Y-98.501
X162.749Y-100.501
X162.767Y-142.024
X162.999Y-107.251
X162.999Y-108.751
X162.999Y-111.001
X163.014Y-135.145
X163.249Y-139.751
X163.499Y-137.751
X163.739Y-104.811
X164.249Y-129.001
X164.499Y-133.501
X164.499Y-134.501
X164.749Y-120.501
X164.749Y-139.001
X164.999Y-143.751
X165.239Y-129.561
X165.249Y-137.501
X165.249Y-145.251
X165.489Y-133.061
X165.739Y-104.561
X165.989Y-112.811
X165.999Y-140.001
X166.249Y-141.251
X166.489Y-97.811
X166.489Y-99.811
X166.489Y-130.061
X166.499Y-115.251
X166.588Y-135.132
X166.749Y-124.001
X166.749Y-125.501
X166.749Y-145.251
X166.999Y-105.501
X167.249Y-111.001
X167.489Y-133.561
X167.499Y-140.251
X167.65Y-136.637
X167.815Y-113.038
X167.999Y-99.751
X168.249Y-104.001
X168.249Y-105.001
X168.749Y-137.501
X168.749Y-139.001
X168.999Y-141.251
X169.249Y-109.251
X169.249Y-111.751
X169.249Y-114.001
X169.249Y-126.251
X169.249Y-129.501
X169.249Y-131.501
X169.32Y-136.188
X169.489Y-145.311
X169.499Y-96.501
X169.499Y-99.751
X169.499Y-106.001
X172.489Y-111.311
X172.489Y-129.561
X172.489Y-137.561
X172.499Y-96.501
X172.499Y-109.251
X172.499Y-117.001
X172.499Y-123.001
X172.499Y-124.751
X172.59Y-141.315
X172.749Y-102.251
X172.749Y-132.501
X173.999Y-102.501
X173.999Y-104.751
X173.999Y-120.501
X173.999Y-141.501
X174.046Y-113.177
X174.124Y-139.208
X174.135Y-144.712
X174.489Y-133.061
X174.749Y-134.501
X174.999Y-124.251
X174.999Y-126.001
X174.999Y-128.251
X174.999Y-130.501
X175.249Y-102.001
X175.489Y-113.811
X175.499Y-116.251
X175.663Y-119.239
X175.999Y-106.501
X175.999Y-122.751
X176.249Y-96.501
X176.249Y-98.501
X176.249Y-100.501
X176.249Y-143.001
X176.249Y-145.001
X176.749Y-105.001
X176.749Y-124.751
X176.749Y-126.501
X176.749Y-128.251
X176.783Y-112.01
X176.989Y-134.311
X176.989Y-135.311
X176.989Y-136.811
X176.989Y-138.311
X176.989Y-139.811
X176.999Y-122.001
X177.489Y-141.061
X177.489Y-143.061
X177.939Y-121.249
X178.249Y-125.751
X178.249Y-127.251
X178.749Y-130.251
X178.842Y-131.302
X179.239Y-143.311
X179.247Y-132.308
X179.249Y-96.501
X179.249Y-98.501
X179.249Y-100.501
X179.249Y-145.001
X179.489Y-135.561
X179.489Y-136.811
X179.489Y-138.061
X179.489Y-139.561
X179.499Y-109.501
X179.499Y-125.751
X179.499Y-127.251
X179.55Y-112.704
X180.239Y-140.811
X180.489Y-136.311
X180.499Y-96.501
X180.499Y-98.501
X180.499Y-100.501
X180.709Y-118.699
X180.732Y-117.218
X180.736Y-120.171
X180.749Y-125.751
X180.749Y-127.251
X180.75Y-115.725
X181.047Y-138.072
X181.489Y-136.311
X181.489Y-142.061
X181.641Y-125.426
X181.739Y-145.561
X181.999Y-109.501
X181.999Y-127.251
X182.057Y-112.696
X182.062Y-139.601
X182.178Y-115.743
X182.237Y-134.472
X182.239Y-126.061
X182.242Y-118.716
X182.245Y-117.245
X182.252Y-120.167
X182.65Y-122.36
X183.204Y-130.295
X183.239Y-125.811
X183.239Y-142.811
X183.249Y-127.251
X183.281Y-136.7
X183.311Y-140.813
X183.499Y-96.501
X183.499Y-98.501
X183.499Y-100.501
X183.524Y-110.98
X183.989Y-134.45
X184.016Y-129.351
X184.499Y-124.751
X184.499Y-126.501
X184.499Y-128.251
X184.739Y-143.811
X184.739Y-145.311
X184.749Y-96.501
X184.749Y-98.501
X184.749Y-100.501
X184.767Y-142.024
X184.999Y-107.251
X184.999Y-108.751
X184.999Y-111.001
X185.014Y-135.145
X185.249Y-139.751
X185.499Y-137.751
X185.739Y-104.811
X186.249Y-129.001
X186.499Y-133.501
X186.499Y-134.501
X186.749Y-120.501
X186.749Y-139.001
X186.999Y-143.751
X187.239Y-129.561
X187.249Y-137.501
X187.249Y-145.251
X187.489Y-133.061
X187.739Y-104.561
X187.989Y-112.811
X187.999Y-140.001
X188.249Y-141.251
X188.489Y-97.811
X188.489Y-99.811
X188.489Y-130.061
X188.499Y-115.251
X188.588Y-135.132
X188.749Y-124.001
X188.749Y-125.501
X188.749Y-145.251
X188.999Y-105.501
X189.249Y-111.001
X189.489Y-133.561
X189.499Y-140.251
X189.65Y-136.637
X189.815Y-113.038
X189.999Y-99.751
X190.249Y-104.001
X190.249Y-105.001
X190.749Y-137.501
X190.749Y-139.001
X190.999Y-141.251
X191.249Y-109.251
X191.249Y-111.751
X191.249Y-114.001
X191.249Y-126.251
X191.249Y-129.501
X191.249Y-131.501
X191.32Y-136.188
X191.489Y-145.311
X191.499Y-96.501
X191.499Y-99.751
X191.499Y-106.001
X194.489Y-111.311
X194.489Y-129.561
X194.489Y-137.561
X194.499Y-96.501
X194.499Y-109.251
X194.499Y-117.001
X194.499Y-123.001
X194.499Y-124.751
X194.59Y-141.315
X194.749Y-102.251
X194.749Y-132.501
X195.999Y-102.501
X195.999Y-104.751
X195.999Y-120.501
X195.999Y-141.501
X196.046Y-113.177
X196.124Y-139.208
X196.135Y-144.712
X196.489Y-133.061
X196.749Y-134.501
X196.999Y-124.251
X196.999Y-126.001
X196.999Y-128.251
X196.999Y-130.501
X197.249Y-102.001
X197.489Y-113.811
X197.499Y-116.251
X197.663Y-119.239
X197.999Y-106.501
X197.999Y-122.751
X198.249Y-96.501
X198.249Y-98.501
X198.249Y-100.501
X198.249Y-143.001
X198.249Y-145.001
X198.749Y-105.001
X198.749Y-124.751
X198.749Y-126.501
X198.749Y-128.251
X198.783Y-112.01
X198.989Y-134.311
X198.989Y-135.311
X198.989Y-136.811
X198.989Y-138.311
X198.989Y-139.811
X198.999Y-122.001
X199.489Y-141.061
X199.489Y-143.061
X199.939Y-121.249
X200.249Y-125.751
X200.249Y-127.251
X200.749Y-130.251
X200.842Y-131.302
X201.239Y-143.311
X201.247Y-132.308
X201.249Y-96.501
X201.249Y-98.501
X201.249Y-100.501
X201.249Y-145.001
X201.489Y-135.561
X201.489Y-136.811
X201.489Y-138.061
X201.489Y-139.561
X201.499Y-109.501
X201.499Y-125.751
X201.499Y-127.251
X201.55Y-112.704
X202.239Y-140.811
X202.489Y-136.311
X202.499Y-96.501
X202.499Y-98.501
X202.499Y-100.501
X202.709Y-118.699
X202.732Y-117.218
X202.736Y-120.171
X202.749Y-125.751
X202.749Y-127.251
X202.75Y-115.725
X203.047Y-138.072
X203.489Y-136.311
X203.489Y-142.061
X203.641Y-125.426
X203.739Y-145.561
X203.999Y-109.501
X203.999Y-127.251
X204.057Y-112.696
X204.062Y-139.601
X204.178Y-115.743
X204.237Y-134.472
X204.239Y-126.061
X204.242Y-118.716
X204.245Y-117.245
X204.252Y-120.167
X204.65Y-122.36
X205.204Y-130.295
X205.239Y-125.811
X205.239Y-142.811
X205.249Y-127.251
X205.281Y-136.7
X205.311Y-140.813
X205.499Y-96.501
X205.499Y-98.501
X205.499Y-100.501
X205.524Y-110.98
X205.989Y-134.45
X206.016Y-129.351
X206.499Y-124.751
X206.499Y-126.501
X206.499Y-128.251
X206.739Y-143.811
X206.739Y-145.311
X206.749Y-96.501
X206.749Y-98.501
X206.749Y-100.501
X206.767Y-142.024
X206.999Y-107.251
X206.999Y-108.751
X206.999Y-111.001
X207.014Y-135.145
X207.249Y-139.751
X207.499Y-137.751
X207.739Y-104.811
X208.249Y-129.001
X208.499Y-133.501
X208.499Y-134.501
X208.749Y-120.501
X208.749Y-139.001
X208.999Y-143.751
X209.239Y-129.561
X209.249Y-137.501
X209.249Y-145.251
X209.489Y-133.061
X209.739Y-104.561
X209.989Y-112.811
X209.999Y-140.001
X210.249Y-141.251
X210.489Y-97.811
X210.489Y-99.811
X210.489Y-130.061
X210.499Y-115.251
X210.588Y-135.132
X210.749Y-124.001
X210.749Y-125.501
X210.749Y-145.251
X210.999Y-105.501
X211.249Y-111.001
X211.489Y-133.561
X211.499Y-140.251
X211.65Y-136.637
X211.815Y-113.038
X211.999Y-99.751
X212.249Y-104.001
X212.249Y-105.001
X212.749Y-137.501
X212.749Y-139.001
X212.999Y-141.251
X213.249Y-109.251
X213.249Y-111.751
X213.249Y-114.001
X213.249Y-126.251
X213.249Y-129.501
X213.249Y-131.501
X213.32Y-136.188
X213.489Y-145.311
X213.499Y-96.501
X213.499Y-99.751
X213.499Y-106.001
T2
X117.804Y-138.426
X120.344Y-140.966
X122.884Y-138.426
X139.804Y-138.426
X142.344Y-140.966
X144.884Y-138.426
X161.804Y-138.426
X164.344Y-140.966
X166.884Y-138.426
X183.804Y-138.426
X186.344Y-140.966
X188.884Y-138.426
X205.804Y-138.426
X208.344Y-140.966
X210.884Y-138.426
T3
X107.614Y-114.636
X108.024Y-107.666
X109.239Y-112.061
X109.664Y-103.001
X112.204Y-103.001
X114.734Y-144.251
X114.744Y-103.001
X117.274Y-144.251
X117.284Y-103.001
X119.824Y-103.001
X123.024Y-131.676
X124.194Y-135.016
X129.614Y-114.636
X130.024Y-107.666
X131.239Y-112.061
X131.664Y-103.001
X134.204Y-103.001
X136.734Y-144.251
X136.744Y-103.001
X139.274Y-144.251
X139.284Y-103.001
X141.824Y-103.001
X145.024Y-131.676
X146.194Y-135.016
X151.614Y-114.636
X152.024Y-107.666
X153.239Y-112.061
X153.664Y-103.001
X156.204Y-103.001
X158.734Y-144.251
X158.744Y-103.001
X161.274Y-144.251
X161.284Y-103.001
X163.824Y-103.001
X167.024Y-131.676
X168.194Y-135.016
X173.614Y-114.636
X174.024Y-107.666
X175.239Y-112.061
X175.664Y-103.001
X178.204Y-103.001
X180.734Y-144.251
X180.744Y-103.001
X183.274Y-144.251
X183.284Y-103.001
X185.824Y-103.001
X189.024Y-131.676
X190.194Y-135.016
X195.614Y-114.636
X196.024Y-107.666
X197.239Y-112.061
X197.664Y-103.001
X200.204Y-103.001
X202.734Y-144.251
X202.744Y-103.001
X205.274Y-144.251
X205.284Y-103.001
X207.824Y-103.001
X211.024Y-131.676
X212.194Y-135.016
T4
X120.809Y-106.471
X120.809Y-109.011
X120.809Y-111.551
X120.809Y-114.091
X142.809Y-106.471
X142.809Y-109.011
X142.809Y-111.551
X142.809Y-114.091
X164.809Y-106.471
X164.809Y-109.011
X164.809Y-111.551
X164.809Y-114.091
X186.809Y-106.471
X186.809Y-109.011
X186.809Y-111.551
X186.809Y-114.091
X208.809Y-106.471
X208.809Y-109.011
X208.809Y-111.551
X208.809Y-114.091
T0
M30
