%TF.GenerationSoftware,KiCad,Pcbnew,7.0.1*%
%TF.CreationDate,2023-10-09T01:00:07+02:00*%
%TF.ProjectId,current_probe,63757272-656e-4745-9f70-726f62652e6b,rev?*%
%TF.SameCoordinates,Original*%
%TF.FileFunction,Soldermask,Top*%
%TF.FilePolarity,Negative*%
%FSLAX46Y46*%
G04 Gerber Fmt 4.6, Leading zero omitted, Abs format (unit mm)*
G04 Created by KiCad (PCBNEW 7.0.1) date 2023-10-09 01:00:07*
%MOMM*%
%LPD*%
G01*
G04 APERTURE LIST*
G04 Aperture macros list*
%AMRoundRect*
0 Rectangle with rounded corners*
0 $1 Rounding radius*
0 $2 $3 $4 $5 $6 $7 $8 $9 X,Y pos of 4 corners*
0 Add a 4 corners polygon primitive as box body*
4,1,4,$2,$3,$4,$5,$6,$7,$8,$9,$2,$3,0*
0 Add four circle primitives for the rounded corners*
1,1,$1+$1,$2,$3*
1,1,$1+$1,$4,$5*
1,1,$1+$1,$6,$7*
1,1,$1+$1,$8,$9*
0 Add four rect primitives between the rounded corners*
20,1,$1+$1,$2,$3,$4,$5,0*
20,1,$1+$1,$4,$5,$6,$7,0*
20,1,$1+$1,$6,$7,$8,$9,0*
20,1,$1+$1,$8,$9,$2,$3,0*%
G04 Aperture macros list end*
%ADD10C,0.200000*%
%ADD11C,0.150000*%
%ADD12RoundRect,0.200000X0.275000X-0.200000X0.275000X0.200000X-0.275000X0.200000X-0.275000X-0.200000X0*%
%ADD13R,1.700000X1.700000*%
%ADD14O,1.700000X1.700000*%
%ADD15RoundRect,0.225000X0.225000X0.250000X-0.225000X0.250000X-0.225000X-0.250000X0.225000X-0.250000X0*%
%ADD16R,2.250000X1.750000*%
%ADD17O,2.250000X1.750000*%
%ADD18R,0.304800X1.676400*%
%ADD19RoundRect,0.218750X0.256250X-0.218750X0.256250X0.218750X-0.256250X0.218750X-0.256250X-0.218750X0*%
%ADD20RoundRect,0.225000X-0.250000X0.225000X-0.250000X-0.225000X0.250000X-0.225000X0.250000X0.225000X0*%
%ADD21RoundRect,0.200000X-0.275000X0.200000X-0.275000X-0.200000X0.275000X-0.200000X0.275000X0.200000X0*%
%ADD22RoundRect,0.200000X-0.200000X-0.275000X0.200000X-0.275000X0.200000X0.275000X-0.200000X0.275000X0*%
%ADD23RoundRect,0.225000X-0.225000X-0.250000X0.225000X-0.250000X0.225000X0.250000X-0.225000X0.250000X0*%
%ADD24RoundRect,0.200000X0.200000X0.275000X-0.200000X0.275000X-0.200000X-0.275000X0.200000X-0.275000X0*%
%ADD25R,1.500000X5.080000*%
%ADD26RoundRect,0.218750X0.218750X0.256250X-0.218750X0.256250X-0.218750X-0.256250X0.218750X-0.256250X0*%
%ADD27C,2.000000*%
%ADD28C,1.440000*%
%ADD29RoundRect,0.250000X0.650000X-1.000000X0.650000X1.000000X-0.650000X1.000000X-0.650000X-1.000000X0*%
%ADD30RoundRect,0.225000X0.250000X-0.225000X0.250000X0.225000X-0.250000X0.225000X-0.250000X-0.225000X0*%
%ADD31RoundRect,0.218750X-0.256250X0.218750X-0.256250X-0.218750X0.256250X-0.218750X0.256250X0.218750X0*%
%ADD32R,1.650000X2.540000*%
%ADD33RoundRect,0.243750X0.456250X-0.243750X0.456250X0.243750X-0.456250X0.243750X-0.456250X-0.243750X0*%
G04 APERTURE END LIST*
D10*
X157876819Y-99614885D02*
X157876819Y-99443457D01*
X157876819Y-99443457D02*
X157924438Y-99357742D01*
X157924438Y-99357742D02*
X158019676Y-99272028D01*
X158019676Y-99272028D02*
X158210152Y-99229171D01*
X158210152Y-99229171D02*
X158543485Y-99229171D01*
X158543485Y-99229171D02*
X158733961Y-99272028D01*
X158733961Y-99272028D02*
X158829200Y-99357742D01*
X158829200Y-99357742D02*
X158876819Y-99443457D01*
X158876819Y-99443457D02*
X158876819Y-99614885D01*
X158876819Y-99614885D02*
X158829200Y-99700600D01*
X158829200Y-99700600D02*
X158733961Y-99786314D01*
X158733961Y-99786314D02*
X158543485Y-99829171D01*
X158543485Y-99829171D02*
X158210152Y-99829171D01*
X158210152Y-99829171D02*
X158019676Y-99786314D01*
X158019676Y-99786314D02*
X157924438Y-99700600D01*
X157924438Y-99700600D02*
X157876819Y-99614885D01*
X157876819Y-98843457D02*
X158686342Y-98843457D01*
X158686342Y-98843457D02*
X158781580Y-98800600D01*
X158781580Y-98800600D02*
X158829200Y-98757743D01*
X158829200Y-98757743D02*
X158876819Y-98672028D01*
X158876819Y-98672028D02*
X158876819Y-98500600D01*
X158876819Y-98500600D02*
X158829200Y-98414885D01*
X158829200Y-98414885D02*
X158781580Y-98372028D01*
X158781580Y-98372028D02*
X158686342Y-98329171D01*
X158686342Y-98329171D02*
X157876819Y-98329171D01*
X157876819Y-98029171D02*
X157876819Y-97514886D01*
X158876819Y-97772028D02*
X157876819Y-97772028D01*
X128626819Y-144786314D02*
X128626819Y-145262504D01*
X128626819Y-145262504D02*
X129103009Y-145310123D01*
X129103009Y-145310123D02*
X129055390Y-145262504D01*
X129055390Y-145262504D02*
X129007771Y-145167266D01*
X129007771Y-145167266D02*
X129007771Y-144929171D01*
X129007771Y-144929171D02*
X129055390Y-144833933D01*
X129055390Y-144833933D02*
X129103009Y-144786314D01*
X129103009Y-144786314D02*
X129198247Y-144738695D01*
X129198247Y-144738695D02*
X129436342Y-144738695D01*
X129436342Y-144738695D02*
X129531580Y-144786314D01*
X129531580Y-144786314D02*
X129579200Y-144833933D01*
X129579200Y-144833933D02*
X129626819Y-144929171D01*
X129626819Y-144929171D02*
X129626819Y-145167266D01*
X129626819Y-145167266D02*
X129579200Y-145262504D01*
X129579200Y-145262504D02*
X129531580Y-145310123D01*
X128626819Y-143833933D02*
X128626819Y-144310123D01*
X128626819Y-144310123D02*
X129103009Y-144357742D01*
X129103009Y-144357742D02*
X129055390Y-144310123D01*
X129055390Y-144310123D02*
X129007771Y-144214885D01*
X129007771Y-144214885D02*
X129007771Y-143976790D01*
X129007771Y-143976790D02*
X129055390Y-143881552D01*
X129055390Y-143881552D02*
X129103009Y-143833933D01*
X129103009Y-143833933D02*
X129198247Y-143786314D01*
X129198247Y-143786314D02*
X129436342Y-143786314D01*
X129436342Y-143786314D02*
X129531580Y-143833933D01*
X129531580Y-143833933D02*
X129579200Y-143881552D01*
X129579200Y-143881552D02*
X129626819Y-143976790D01*
X129626819Y-143976790D02*
X129626819Y-144214885D01*
X129626819Y-144214885D02*
X129579200Y-144310123D01*
X129579200Y-144310123D02*
X129531580Y-144357742D01*
X129626819Y-142929171D02*
X128626819Y-142929171D01*
X129579200Y-142929171D02*
X129626819Y-143024409D01*
X129626819Y-143024409D02*
X129626819Y-143214885D01*
X129626819Y-143214885D02*
X129579200Y-143310123D01*
X129579200Y-143310123D02*
X129531580Y-143357742D01*
X129531580Y-143357742D02*
X129436342Y-143405361D01*
X129436342Y-143405361D02*
X129150628Y-143405361D01*
X129150628Y-143405361D02*
X129055390Y-143357742D01*
X129055390Y-143357742D02*
X129007771Y-143310123D01*
X129007771Y-143310123D02*
X128960152Y-143214885D01*
X128960152Y-143214885D02*
X128960152Y-143024409D01*
X128960152Y-143024409D02*
X129007771Y-142929171D01*
X129103009Y-142119647D02*
X129150628Y-141976790D01*
X129150628Y-141976790D02*
X129198247Y-141929171D01*
X129198247Y-141929171D02*
X129293485Y-141881552D01*
X129293485Y-141881552D02*
X129436342Y-141881552D01*
X129436342Y-141881552D02*
X129531580Y-141929171D01*
X129531580Y-141929171D02*
X129579200Y-141976790D01*
X129579200Y-141976790D02*
X129626819Y-142072028D01*
X129626819Y-142072028D02*
X129626819Y-142452980D01*
X129626819Y-142452980D02*
X128626819Y-142452980D01*
X128626819Y-142452980D02*
X128626819Y-142119647D01*
X128626819Y-142119647D02*
X128674438Y-142024409D01*
X128674438Y-142024409D02*
X128722057Y-141976790D01*
X128722057Y-141976790D02*
X128817295Y-141929171D01*
X128817295Y-141929171D02*
X128912533Y-141929171D01*
X128912533Y-141929171D02*
X129007771Y-141976790D01*
X129007771Y-141976790D02*
X129055390Y-142024409D01*
X129055390Y-142024409D02*
X129103009Y-142119647D01*
X129103009Y-142119647D02*
X129103009Y-142452980D01*
X129626819Y-140214885D02*
X129626819Y-140691075D01*
X129626819Y-140691075D02*
X128626819Y-140691075D01*
X129626819Y-139738694D02*
X129579200Y-139833932D01*
X129579200Y-139833932D02*
X129531580Y-139881551D01*
X129531580Y-139881551D02*
X129436342Y-139929170D01*
X129436342Y-139929170D02*
X129150628Y-139929170D01*
X129150628Y-139929170D02*
X129055390Y-139881551D01*
X129055390Y-139881551D02*
X129007771Y-139833932D01*
X129007771Y-139833932D02*
X128960152Y-139738694D01*
X128960152Y-139738694D02*
X128960152Y-139595837D01*
X128960152Y-139595837D02*
X129007771Y-139500599D01*
X129007771Y-139500599D02*
X129055390Y-139452980D01*
X129055390Y-139452980D02*
X129150628Y-139405361D01*
X129150628Y-139405361D02*
X129436342Y-139405361D01*
X129436342Y-139405361D02*
X129531580Y-139452980D01*
X129531580Y-139452980D02*
X129579200Y-139500599D01*
X129579200Y-139500599D02*
X129626819Y-139595837D01*
X129626819Y-139595837D02*
X129626819Y-139738694D01*
X128960152Y-139072027D02*
X129626819Y-138881551D01*
X129626819Y-138881551D02*
X129150628Y-138691075D01*
X129150628Y-138691075D02*
X129626819Y-138500599D01*
X129626819Y-138500599D02*
X128960152Y-138310123D01*
X129245866Y-137929170D02*
X129245866Y-137167266D01*
X129626819Y-136691075D02*
X128626819Y-136691075D01*
X128626819Y-136691075D02*
X129626819Y-136119647D01*
X129626819Y-136119647D02*
X128626819Y-136119647D01*
X129626819Y-135500599D02*
X129579200Y-135595837D01*
X129579200Y-135595837D02*
X129531580Y-135643456D01*
X129531580Y-135643456D02*
X129436342Y-135691075D01*
X129436342Y-135691075D02*
X129150628Y-135691075D01*
X129150628Y-135691075D02*
X129055390Y-135643456D01*
X129055390Y-135643456D02*
X129007771Y-135595837D01*
X129007771Y-135595837D02*
X128960152Y-135500599D01*
X128960152Y-135500599D02*
X128960152Y-135357742D01*
X128960152Y-135357742D02*
X129007771Y-135262504D01*
X129007771Y-135262504D02*
X129055390Y-135214885D01*
X129055390Y-135214885D02*
X129150628Y-135167266D01*
X129150628Y-135167266D02*
X129436342Y-135167266D01*
X129436342Y-135167266D02*
X129531580Y-135214885D01*
X129531580Y-135214885D02*
X129579200Y-135262504D01*
X129579200Y-135262504D02*
X129626819Y-135357742D01*
X129626819Y-135357742D02*
X129626819Y-135500599D01*
X129626819Y-134738694D02*
X128960152Y-134738694D01*
X128626819Y-134738694D02*
X128674438Y-134786313D01*
X128674438Y-134786313D02*
X128722057Y-134738694D01*
X128722057Y-134738694D02*
X128674438Y-134691075D01*
X128674438Y-134691075D02*
X128626819Y-134738694D01*
X128626819Y-134738694D02*
X128722057Y-134738694D01*
X129579200Y-134310123D02*
X129626819Y-134214885D01*
X129626819Y-134214885D02*
X129626819Y-134024409D01*
X129626819Y-134024409D02*
X129579200Y-133929171D01*
X129579200Y-133929171D02*
X129483961Y-133881552D01*
X129483961Y-133881552D02*
X129436342Y-133881552D01*
X129436342Y-133881552D02*
X129341104Y-133929171D01*
X129341104Y-133929171D02*
X129293485Y-134024409D01*
X129293485Y-134024409D02*
X129293485Y-134167266D01*
X129293485Y-134167266D02*
X129245866Y-134262504D01*
X129245866Y-134262504D02*
X129150628Y-134310123D01*
X129150628Y-134310123D02*
X129103009Y-134310123D01*
X129103009Y-134310123D02*
X129007771Y-134262504D01*
X129007771Y-134262504D02*
X128960152Y-134167266D01*
X128960152Y-134167266D02*
X128960152Y-134024409D01*
X128960152Y-134024409D02*
X129007771Y-133929171D01*
X129579200Y-133072028D02*
X129626819Y-133167266D01*
X129626819Y-133167266D02*
X129626819Y-133357742D01*
X129626819Y-133357742D02*
X129579200Y-133452980D01*
X129579200Y-133452980D02*
X129483961Y-133500599D01*
X129483961Y-133500599D02*
X129103009Y-133500599D01*
X129103009Y-133500599D02*
X129007771Y-133452980D01*
X129007771Y-133452980D02*
X128960152Y-133357742D01*
X128960152Y-133357742D02*
X128960152Y-133167266D01*
X128960152Y-133167266D02*
X129007771Y-133072028D01*
X129007771Y-133072028D02*
X129103009Y-133024409D01*
X129103009Y-133024409D02*
X129198247Y-133024409D01*
X129198247Y-133024409D02*
X129293485Y-133500599D01*
X129341104Y-131881551D02*
X129341104Y-131405361D01*
X129626819Y-131976789D02*
X128626819Y-131643456D01*
X128626819Y-131643456D02*
X129626819Y-131310123D01*
X129626819Y-130976789D02*
X128960152Y-130976789D01*
X129055390Y-130976789D02*
X129007771Y-130929170D01*
X129007771Y-130929170D02*
X128960152Y-130833932D01*
X128960152Y-130833932D02*
X128960152Y-130691075D01*
X128960152Y-130691075D02*
X129007771Y-130595837D01*
X129007771Y-130595837D02*
X129103009Y-130548218D01*
X129103009Y-130548218D02*
X129626819Y-130548218D01*
X129103009Y-130548218D02*
X129007771Y-130500599D01*
X129007771Y-130500599D02*
X128960152Y-130405361D01*
X128960152Y-130405361D02*
X128960152Y-130262504D01*
X128960152Y-130262504D02*
X129007771Y-130167265D01*
X129007771Y-130167265D02*
X129103009Y-130119646D01*
X129103009Y-130119646D02*
X129626819Y-130119646D01*
X128960152Y-129643456D02*
X129960152Y-129643456D01*
X129007771Y-129643456D02*
X128960152Y-129548218D01*
X128960152Y-129548218D02*
X128960152Y-129357742D01*
X128960152Y-129357742D02*
X129007771Y-129262504D01*
X129007771Y-129262504D02*
X129055390Y-129214885D01*
X129055390Y-129214885D02*
X129150628Y-129167266D01*
X129150628Y-129167266D02*
X129436342Y-129167266D01*
X129436342Y-129167266D02*
X129531580Y-129214885D01*
X129531580Y-129214885D02*
X129579200Y-129262504D01*
X129579200Y-129262504D02*
X129626819Y-129357742D01*
X129626819Y-129357742D02*
X129626819Y-129548218D01*
X129626819Y-129548218D02*
X129579200Y-129643456D01*
X129626819Y-128595837D02*
X129579200Y-128691075D01*
X129579200Y-128691075D02*
X129483961Y-128738694D01*
X129483961Y-128738694D02*
X128626819Y-128738694D01*
X129626819Y-128214884D02*
X128960152Y-128214884D01*
X128626819Y-128214884D02*
X128674438Y-128262503D01*
X128674438Y-128262503D02*
X128722057Y-128214884D01*
X128722057Y-128214884D02*
X128674438Y-128167265D01*
X128674438Y-128167265D02*
X128626819Y-128214884D01*
X128626819Y-128214884D02*
X128722057Y-128214884D01*
X128960152Y-127881551D02*
X128960152Y-127500599D01*
X129626819Y-127738694D02*
X128769676Y-127738694D01*
X128769676Y-127738694D02*
X128674438Y-127691075D01*
X128674438Y-127691075D02*
X128626819Y-127595837D01*
X128626819Y-127595837D02*
X128626819Y-127500599D01*
X129626819Y-127167265D02*
X128960152Y-127167265D01*
X128626819Y-127167265D02*
X128674438Y-127214884D01*
X128674438Y-127214884D02*
X128722057Y-127167265D01*
X128722057Y-127167265D02*
X128674438Y-127119646D01*
X128674438Y-127119646D02*
X128626819Y-127167265D01*
X128626819Y-127167265D02*
X128722057Y-127167265D01*
X129579200Y-126310123D02*
X129626819Y-126405361D01*
X129626819Y-126405361D02*
X129626819Y-126595837D01*
X129626819Y-126595837D02*
X129579200Y-126691075D01*
X129579200Y-126691075D02*
X129483961Y-126738694D01*
X129483961Y-126738694D02*
X129103009Y-126738694D01*
X129103009Y-126738694D02*
X129007771Y-126691075D01*
X129007771Y-126691075D02*
X128960152Y-126595837D01*
X128960152Y-126595837D02*
X128960152Y-126405361D01*
X128960152Y-126405361D02*
X129007771Y-126310123D01*
X129007771Y-126310123D02*
X129103009Y-126262504D01*
X129103009Y-126262504D02*
X129198247Y-126262504D01*
X129198247Y-126262504D02*
X129293485Y-126738694D01*
X129626819Y-125833932D02*
X128960152Y-125833932D01*
X129150628Y-125833932D02*
X129055390Y-125786313D01*
X129055390Y-125786313D02*
X129007771Y-125738694D01*
X129007771Y-125738694D02*
X128960152Y-125643456D01*
X128960152Y-125643456D02*
X128960152Y-125548218D01*
X186461819Y-145029171D02*
X185461819Y-145029171D01*
X186461819Y-144600600D02*
X185461819Y-144600600D01*
X185461819Y-144600600D02*
X186461819Y-144086314D01*
X186461819Y-144086314D02*
X185461819Y-144086314D01*
X186080866Y-143657743D02*
X186080866Y-142972029D01*
X186461819Y-143314886D02*
X185699914Y-143314886D01*
X135876819Y-99614885D02*
X135876819Y-99443457D01*
X135876819Y-99443457D02*
X135924438Y-99357742D01*
X135924438Y-99357742D02*
X136019676Y-99272028D01*
X136019676Y-99272028D02*
X136210152Y-99229171D01*
X136210152Y-99229171D02*
X136543485Y-99229171D01*
X136543485Y-99229171D02*
X136733961Y-99272028D01*
X136733961Y-99272028D02*
X136829200Y-99357742D01*
X136829200Y-99357742D02*
X136876819Y-99443457D01*
X136876819Y-99443457D02*
X136876819Y-99614885D01*
X136876819Y-99614885D02*
X136829200Y-99700600D01*
X136829200Y-99700600D02*
X136733961Y-99786314D01*
X136733961Y-99786314D02*
X136543485Y-99829171D01*
X136543485Y-99829171D02*
X136210152Y-99829171D01*
X136210152Y-99829171D02*
X136019676Y-99786314D01*
X136019676Y-99786314D02*
X135924438Y-99700600D01*
X135924438Y-99700600D02*
X135876819Y-99614885D01*
X135876819Y-98843457D02*
X136686342Y-98843457D01*
X136686342Y-98843457D02*
X136781580Y-98800600D01*
X136781580Y-98800600D02*
X136829200Y-98757743D01*
X136829200Y-98757743D02*
X136876819Y-98672028D01*
X136876819Y-98672028D02*
X136876819Y-98500600D01*
X136876819Y-98500600D02*
X136829200Y-98414885D01*
X136829200Y-98414885D02*
X136781580Y-98372028D01*
X136781580Y-98372028D02*
X136686342Y-98329171D01*
X136686342Y-98329171D02*
X135876819Y-98329171D01*
X135876819Y-98029171D02*
X135876819Y-97514886D01*
X136876819Y-97772028D02*
X135876819Y-97772028D01*
X196710152Y-145107742D02*
X197376819Y-144869647D01*
X197376819Y-144869647D02*
X196710152Y-144631552D01*
X197376819Y-143726790D02*
X197376819Y-144298218D01*
X197376819Y-144012504D02*
X196376819Y-144012504D01*
X196376819Y-144012504D02*
X196519676Y-144107742D01*
X196519676Y-144107742D02*
X196614914Y-144202980D01*
X196614914Y-144202980D02*
X196662533Y-144298218D01*
X197281580Y-143298218D02*
X197329200Y-143250599D01*
X197329200Y-143250599D02*
X197376819Y-143298218D01*
X197376819Y-143298218D02*
X197329200Y-143345837D01*
X197329200Y-143345837D02*
X197281580Y-143298218D01*
X197281580Y-143298218D02*
X197376819Y-143298218D01*
X196376819Y-142631552D02*
X196376819Y-142536314D01*
X196376819Y-142536314D02*
X196424438Y-142441076D01*
X196424438Y-142441076D02*
X196472057Y-142393457D01*
X196472057Y-142393457D02*
X196567295Y-142345838D01*
X196567295Y-142345838D02*
X196757771Y-142298219D01*
X196757771Y-142298219D02*
X196995866Y-142298219D01*
X196995866Y-142298219D02*
X197186342Y-142345838D01*
X197186342Y-142345838D02*
X197281580Y-142393457D01*
X197281580Y-142393457D02*
X197329200Y-142441076D01*
X197329200Y-142441076D02*
X197376819Y-142536314D01*
X197376819Y-142536314D02*
X197376819Y-142631552D01*
X197376819Y-142631552D02*
X197329200Y-142726790D01*
X197329200Y-142726790D02*
X197281580Y-142774409D01*
X197281580Y-142774409D02*
X197186342Y-142822028D01*
X197186342Y-142822028D02*
X196995866Y-142869647D01*
X196995866Y-142869647D02*
X196757771Y-142869647D01*
X196757771Y-142869647D02*
X196567295Y-142822028D01*
X196567295Y-142822028D02*
X196472057Y-142774409D01*
X196472057Y-142774409D02*
X196424438Y-142726790D01*
X196424438Y-142726790D02*
X196376819Y-142631552D01*
X197376819Y-140583933D02*
X197376819Y-141155361D01*
X197376819Y-140869647D02*
X196376819Y-140869647D01*
X196376819Y-140869647D02*
X196519676Y-140964885D01*
X196519676Y-140964885D02*
X196614914Y-141060123D01*
X196614914Y-141060123D02*
X196662533Y-141155361D01*
X196376819Y-139964885D02*
X196376819Y-139869647D01*
X196376819Y-139869647D02*
X196424438Y-139774409D01*
X196424438Y-139774409D02*
X196472057Y-139726790D01*
X196472057Y-139726790D02*
X196567295Y-139679171D01*
X196567295Y-139679171D02*
X196757771Y-139631552D01*
X196757771Y-139631552D02*
X196995866Y-139631552D01*
X196995866Y-139631552D02*
X197186342Y-139679171D01*
X197186342Y-139679171D02*
X197281580Y-139726790D01*
X197281580Y-139726790D02*
X197329200Y-139774409D01*
X197329200Y-139774409D02*
X197376819Y-139869647D01*
X197376819Y-139869647D02*
X197376819Y-139964885D01*
X197376819Y-139964885D02*
X197329200Y-140060123D01*
X197329200Y-140060123D02*
X197281580Y-140107742D01*
X197281580Y-140107742D02*
X197186342Y-140155361D01*
X197186342Y-140155361D02*
X196995866Y-140202980D01*
X196995866Y-140202980D02*
X196757771Y-140202980D01*
X196757771Y-140202980D02*
X196567295Y-140155361D01*
X196567295Y-140155361D02*
X196472057Y-140107742D01*
X196472057Y-140107742D02*
X196424438Y-140060123D01*
X196424438Y-140060123D02*
X196376819Y-139964885D01*
X197281580Y-139202980D02*
X197329200Y-139155361D01*
X197329200Y-139155361D02*
X197376819Y-139202980D01*
X197376819Y-139202980D02*
X197329200Y-139250599D01*
X197329200Y-139250599D02*
X197281580Y-139202980D01*
X197281580Y-139202980D02*
X197376819Y-139202980D01*
X196472057Y-138774409D02*
X196424438Y-138726790D01*
X196424438Y-138726790D02*
X196376819Y-138631552D01*
X196376819Y-138631552D02*
X196376819Y-138393457D01*
X196376819Y-138393457D02*
X196424438Y-138298219D01*
X196424438Y-138298219D02*
X196472057Y-138250600D01*
X196472057Y-138250600D02*
X196567295Y-138202981D01*
X196567295Y-138202981D02*
X196662533Y-138202981D01*
X196662533Y-138202981D02*
X196805390Y-138250600D01*
X196805390Y-138250600D02*
X197376819Y-138822028D01*
X197376819Y-138822028D02*
X197376819Y-138202981D01*
X196376819Y-137583933D02*
X196376819Y-137488695D01*
X196376819Y-137488695D02*
X196424438Y-137393457D01*
X196424438Y-137393457D02*
X196472057Y-137345838D01*
X196472057Y-137345838D02*
X196567295Y-137298219D01*
X196567295Y-137298219D02*
X196757771Y-137250600D01*
X196757771Y-137250600D02*
X196995866Y-137250600D01*
X196995866Y-137250600D02*
X197186342Y-137298219D01*
X197186342Y-137298219D02*
X197281580Y-137345838D01*
X197281580Y-137345838D02*
X197329200Y-137393457D01*
X197329200Y-137393457D02*
X197376819Y-137488695D01*
X197376819Y-137488695D02*
X197376819Y-137583933D01*
X197376819Y-137583933D02*
X197329200Y-137679171D01*
X197329200Y-137679171D02*
X197281580Y-137726790D01*
X197281580Y-137726790D02*
X197186342Y-137774409D01*
X197186342Y-137774409D02*
X196995866Y-137822028D01*
X196995866Y-137822028D02*
X196757771Y-137822028D01*
X196757771Y-137822028D02*
X196567295Y-137774409D01*
X196567295Y-137774409D02*
X196472057Y-137726790D01*
X196472057Y-137726790D02*
X196424438Y-137679171D01*
X196424438Y-137679171D02*
X196376819Y-137583933D01*
X196472057Y-136869647D02*
X196424438Y-136822028D01*
X196424438Y-136822028D02*
X196376819Y-136726790D01*
X196376819Y-136726790D02*
X196376819Y-136488695D01*
X196376819Y-136488695D02*
X196424438Y-136393457D01*
X196424438Y-136393457D02*
X196472057Y-136345838D01*
X196472057Y-136345838D02*
X196567295Y-136298219D01*
X196567295Y-136298219D02*
X196662533Y-136298219D01*
X196662533Y-136298219D02*
X196805390Y-136345838D01*
X196805390Y-136345838D02*
X197376819Y-136917266D01*
X197376819Y-136917266D02*
X197376819Y-136298219D01*
X196376819Y-135964885D02*
X196376819Y-135345838D01*
X196376819Y-135345838D02*
X196757771Y-135679171D01*
X196757771Y-135679171D02*
X196757771Y-135536314D01*
X196757771Y-135536314D02*
X196805390Y-135441076D01*
X196805390Y-135441076D02*
X196853009Y-135393457D01*
X196853009Y-135393457D02*
X196948247Y-135345838D01*
X196948247Y-135345838D02*
X197186342Y-135345838D01*
X197186342Y-135345838D02*
X197281580Y-135393457D01*
X197281580Y-135393457D02*
X197329200Y-135441076D01*
X197329200Y-135441076D02*
X197376819Y-135536314D01*
X197376819Y-135536314D02*
X197376819Y-135822028D01*
X197376819Y-135822028D02*
X197329200Y-135917266D01*
X197329200Y-135917266D02*
X197281580Y-135964885D01*
X120461819Y-145029171D02*
X119461819Y-145029171D01*
X120461819Y-144600600D02*
X119461819Y-144600600D01*
X119461819Y-144600600D02*
X120461819Y-144086314D01*
X120461819Y-144086314D02*
X119461819Y-144086314D01*
X120080866Y-143657743D02*
X120080866Y-142972029D01*
X120461819Y-143314886D02*
X119699914Y-143314886D01*
X156461819Y-145029171D02*
X155461819Y-145029171D01*
X156461819Y-144600600D02*
X155461819Y-144600600D01*
X155461819Y-144600600D02*
X156461819Y-144086314D01*
X156461819Y-144086314D02*
X155461819Y-144086314D01*
X156080866Y-143657743D02*
X156080866Y-142972029D01*
D11*
X196792057Y-100917028D02*
X197134914Y-100917028D01*
X196963485Y-100917028D02*
X196963485Y-101517028D01*
X196963485Y-101517028D02*
X197020628Y-101431314D01*
X197020628Y-101431314D02*
X197077771Y-101374171D01*
X197077771Y-101374171D02*
X197134914Y-101345600D01*
X196163485Y-101517028D02*
X195963485Y-100917028D01*
X195963485Y-100917028D02*
X195763485Y-101517028D01*
X195563484Y-100917028D02*
X195563484Y-101517028D01*
X195277770Y-100917028D02*
X195277770Y-101517028D01*
X195277770Y-101517028D02*
X194934913Y-100917028D01*
X194934913Y-100917028D02*
X194934913Y-101517028D01*
X197134914Y-100487885D02*
X197106342Y-100516457D01*
X197106342Y-100516457D02*
X197049200Y-100545028D01*
X197049200Y-100545028D02*
X196906342Y-100545028D01*
X196906342Y-100545028D02*
X196849200Y-100516457D01*
X196849200Y-100516457D02*
X196820628Y-100487885D01*
X196820628Y-100487885D02*
X196792057Y-100430742D01*
X196792057Y-100430742D02*
X196792057Y-100373600D01*
X196792057Y-100373600D02*
X196820628Y-100287885D01*
X196820628Y-100287885D02*
X197163485Y-99945028D01*
X197163485Y-99945028D02*
X196792057Y-99945028D01*
X195963485Y-100545028D02*
X195849199Y-100545028D01*
X195849199Y-100545028D02*
X195792056Y-100516457D01*
X195792056Y-100516457D02*
X195734913Y-100459314D01*
X195734913Y-100459314D02*
X195706342Y-100345028D01*
X195706342Y-100345028D02*
X195706342Y-100145028D01*
X195706342Y-100145028D02*
X195734913Y-100030742D01*
X195734913Y-100030742D02*
X195792056Y-99973600D01*
X195792056Y-99973600D02*
X195849199Y-99945028D01*
X195849199Y-99945028D02*
X195963485Y-99945028D01*
X195963485Y-99945028D02*
X196020628Y-99973600D01*
X196020628Y-99973600D02*
X196077770Y-100030742D01*
X196077770Y-100030742D02*
X196106342Y-100145028D01*
X196106342Y-100145028D02*
X196106342Y-100345028D01*
X196106342Y-100345028D02*
X196077770Y-100459314D01*
X196077770Y-100459314D02*
X196020628Y-100516457D01*
X196020628Y-100516457D02*
X195963485Y-100545028D01*
X195449199Y-100173600D02*
X194992057Y-100173600D01*
X195220628Y-99945028D02*
X195220628Y-100402171D01*
X197163485Y-99573028D02*
X196792057Y-99573028D01*
X196792057Y-99573028D02*
X196992057Y-99344457D01*
X196992057Y-99344457D02*
X196906342Y-99344457D01*
X196906342Y-99344457D02*
X196849200Y-99315885D01*
X196849200Y-99315885D02*
X196820628Y-99287314D01*
X196820628Y-99287314D02*
X196792057Y-99230171D01*
X196792057Y-99230171D02*
X196792057Y-99087314D01*
X196792057Y-99087314D02*
X196820628Y-99030171D01*
X196820628Y-99030171D02*
X196849200Y-99001600D01*
X196849200Y-99001600D02*
X196906342Y-98973028D01*
X196906342Y-98973028D02*
X197077771Y-98973028D01*
X197077771Y-98973028D02*
X197134914Y-99001600D01*
X197134914Y-99001600D02*
X197163485Y-99030171D01*
X195734913Y-99030171D02*
X195763485Y-99001600D01*
X195763485Y-99001600D02*
X195849199Y-98973028D01*
X195849199Y-98973028D02*
X195906342Y-98973028D01*
X195906342Y-98973028D02*
X195992056Y-99001600D01*
X195992056Y-99001600D02*
X196049199Y-99058742D01*
X196049199Y-99058742D02*
X196077770Y-99115885D01*
X196077770Y-99115885D02*
X196106342Y-99230171D01*
X196106342Y-99230171D02*
X196106342Y-99315885D01*
X196106342Y-99315885D02*
X196077770Y-99430171D01*
X196077770Y-99430171D02*
X196049199Y-99487314D01*
X196049199Y-99487314D02*
X195992056Y-99544457D01*
X195992056Y-99544457D02*
X195906342Y-99573028D01*
X195906342Y-99573028D02*
X195849199Y-99573028D01*
X195849199Y-99573028D02*
X195763485Y-99544457D01*
X195763485Y-99544457D02*
X195734913Y-99515885D01*
X195363485Y-99573028D02*
X195249199Y-99573028D01*
X195249199Y-99573028D02*
X195192056Y-99544457D01*
X195192056Y-99544457D02*
X195134913Y-99487314D01*
X195134913Y-99487314D02*
X195106342Y-99373028D01*
X195106342Y-99373028D02*
X195106342Y-99173028D01*
X195106342Y-99173028D02*
X195134913Y-99058742D01*
X195134913Y-99058742D02*
X195192056Y-99001600D01*
X195192056Y-99001600D02*
X195249199Y-98973028D01*
X195249199Y-98973028D02*
X195363485Y-98973028D01*
X195363485Y-98973028D02*
X195420628Y-99001600D01*
X195420628Y-99001600D02*
X195477770Y-99058742D01*
X195477770Y-99058742D02*
X195506342Y-99173028D01*
X195506342Y-99173028D02*
X195506342Y-99373028D01*
X195506342Y-99373028D02*
X195477770Y-99487314D01*
X195477770Y-99487314D02*
X195420628Y-99544457D01*
X195420628Y-99544457D02*
X195363485Y-99573028D01*
X194849199Y-98973028D02*
X194849199Y-99573028D01*
X194849199Y-99573028D02*
X194649199Y-99144457D01*
X194649199Y-99144457D02*
X194449199Y-99573028D01*
X194449199Y-99573028D02*
X194449199Y-98973028D01*
X196849200Y-98401028D02*
X196849200Y-98001028D01*
X196992057Y-98629600D02*
X197134914Y-98201028D01*
X197134914Y-98201028D02*
X196763485Y-98201028D01*
X195963485Y-98601028D02*
X195849199Y-98601028D01*
X195849199Y-98601028D02*
X195792056Y-98572457D01*
X195792056Y-98572457D02*
X195734913Y-98515314D01*
X195734913Y-98515314D02*
X195706342Y-98401028D01*
X195706342Y-98401028D02*
X195706342Y-98201028D01*
X195706342Y-98201028D02*
X195734913Y-98086742D01*
X195734913Y-98086742D02*
X195792056Y-98029600D01*
X195792056Y-98029600D02*
X195849199Y-98001028D01*
X195849199Y-98001028D02*
X195963485Y-98001028D01*
X195963485Y-98001028D02*
X196020628Y-98029600D01*
X196020628Y-98029600D02*
X196077770Y-98086742D01*
X196077770Y-98086742D02*
X196106342Y-98201028D01*
X196106342Y-98201028D02*
X196106342Y-98401028D01*
X196106342Y-98401028D02*
X196077770Y-98515314D01*
X196077770Y-98515314D02*
X196020628Y-98572457D01*
X196020628Y-98572457D02*
X195963485Y-98601028D01*
X195449199Y-98229600D02*
X194992057Y-98229600D01*
X196820628Y-97629028D02*
X197106342Y-97629028D01*
X197106342Y-97629028D02*
X197134914Y-97343314D01*
X197134914Y-97343314D02*
X197106342Y-97371885D01*
X197106342Y-97371885D02*
X197049200Y-97400457D01*
X197049200Y-97400457D02*
X196906342Y-97400457D01*
X196906342Y-97400457D02*
X196849200Y-97371885D01*
X196849200Y-97371885D02*
X196820628Y-97343314D01*
X196820628Y-97343314D02*
X196792057Y-97286171D01*
X196792057Y-97286171D02*
X196792057Y-97143314D01*
X196792057Y-97143314D02*
X196820628Y-97086171D01*
X196820628Y-97086171D02*
X196849200Y-97057600D01*
X196849200Y-97057600D02*
X196906342Y-97029028D01*
X196906342Y-97029028D02*
X197049200Y-97029028D01*
X197049200Y-97029028D02*
X197106342Y-97057600D01*
X197106342Y-97057600D02*
X197134914Y-97086171D01*
X195763485Y-97600457D02*
X195820628Y-97629028D01*
X195820628Y-97629028D02*
X195906342Y-97629028D01*
X195906342Y-97629028D02*
X195992056Y-97600457D01*
X195992056Y-97600457D02*
X196049199Y-97543314D01*
X196049199Y-97543314D02*
X196077770Y-97486171D01*
X196077770Y-97486171D02*
X196106342Y-97371885D01*
X196106342Y-97371885D02*
X196106342Y-97286171D01*
X196106342Y-97286171D02*
X196077770Y-97171885D01*
X196077770Y-97171885D02*
X196049199Y-97114742D01*
X196049199Y-97114742D02*
X195992056Y-97057600D01*
X195992056Y-97057600D02*
X195906342Y-97029028D01*
X195906342Y-97029028D02*
X195849199Y-97029028D01*
X195849199Y-97029028D02*
X195763485Y-97057600D01*
X195763485Y-97057600D02*
X195734913Y-97086171D01*
X195734913Y-97086171D02*
X195734913Y-97286171D01*
X195734913Y-97286171D02*
X195849199Y-97286171D01*
X195477770Y-97029028D02*
X195477770Y-97629028D01*
X195477770Y-97629028D02*
X195134913Y-97029028D01*
X195134913Y-97029028D02*
X195134913Y-97629028D01*
X194849199Y-97029028D02*
X194849199Y-97629028D01*
X194849199Y-97629028D02*
X194706342Y-97629028D01*
X194706342Y-97629028D02*
X194620628Y-97600457D01*
X194620628Y-97600457D02*
X194563485Y-97543314D01*
X194563485Y-97543314D02*
X194534914Y-97486171D01*
X194534914Y-97486171D02*
X194506342Y-97371885D01*
X194506342Y-97371885D02*
X194506342Y-97286171D01*
X194506342Y-97286171D02*
X194534914Y-97171885D01*
X194534914Y-97171885D02*
X194563485Y-97114742D01*
X194563485Y-97114742D02*
X194620628Y-97057600D01*
X194620628Y-97057600D02*
X194706342Y-97029028D01*
X194706342Y-97029028D02*
X194849199Y-97029028D01*
D10*
X108710152Y-145107742D02*
X109376819Y-144869647D01*
X109376819Y-144869647D02*
X108710152Y-144631552D01*
X109376819Y-143726790D02*
X109376819Y-144298218D01*
X109376819Y-144012504D02*
X108376819Y-144012504D01*
X108376819Y-144012504D02*
X108519676Y-144107742D01*
X108519676Y-144107742D02*
X108614914Y-144202980D01*
X108614914Y-144202980D02*
X108662533Y-144298218D01*
X109281580Y-143298218D02*
X109329200Y-143250599D01*
X109329200Y-143250599D02*
X109376819Y-143298218D01*
X109376819Y-143298218D02*
X109329200Y-143345837D01*
X109329200Y-143345837D02*
X109281580Y-143298218D01*
X109281580Y-143298218D02*
X109376819Y-143298218D01*
X108376819Y-142631552D02*
X108376819Y-142536314D01*
X108376819Y-142536314D02*
X108424438Y-142441076D01*
X108424438Y-142441076D02*
X108472057Y-142393457D01*
X108472057Y-142393457D02*
X108567295Y-142345838D01*
X108567295Y-142345838D02*
X108757771Y-142298219D01*
X108757771Y-142298219D02*
X108995866Y-142298219D01*
X108995866Y-142298219D02*
X109186342Y-142345838D01*
X109186342Y-142345838D02*
X109281580Y-142393457D01*
X109281580Y-142393457D02*
X109329200Y-142441076D01*
X109329200Y-142441076D02*
X109376819Y-142536314D01*
X109376819Y-142536314D02*
X109376819Y-142631552D01*
X109376819Y-142631552D02*
X109329200Y-142726790D01*
X109329200Y-142726790D02*
X109281580Y-142774409D01*
X109281580Y-142774409D02*
X109186342Y-142822028D01*
X109186342Y-142822028D02*
X108995866Y-142869647D01*
X108995866Y-142869647D02*
X108757771Y-142869647D01*
X108757771Y-142869647D02*
X108567295Y-142822028D01*
X108567295Y-142822028D02*
X108472057Y-142774409D01*
X108472057Y-142774409D02*
X108424438Y-142726790D01*
X108424438Y-142726790D02*
X108376819Y-142631552D01*
X109376819Y-140583933D02*
X109376819Y-141155361D01*
X109376819Y-140869647D02*
X108376819Y-140869647D01*
X108376819Y-140869647D02*
X108519676Y-140964885D01*
X108519676Y-140964885D02*
X108614914Y-141060123D01*
X108614914Y-141060123D02*
X108662533Y-141155361D01*
X108376819Y-139964885D02*
X108376819Y-139869647D01*
X108376819Y-139869647D02*
X108424438Y-139774409D01*
X108424438Y-139774409D02*
X108472057Y-139726790D01*
X108472057Y-139726790D02*
X108567295Y-139679171D01*
X108567295Y-139679171D02*
X108757771Y-139631552D01*
X108757771Y-139631552D02*
X108995866Y-139631552D01*
X108995866Y-139631552D02*
X109186342Y-139679171D01*
X109186342Y-139679171D02*
X109281580Y-139726790D01*
X109281580Y-139726790D02*
X109329200Y-139774409D01*
X109329200Y-139774409D02*
X109376819Y-139869647D01*
X109376819Y-139869647D02*
X109376819Y-139964885D01*
X109376819Y-139964885D02*
X109329200Y-140060123D01*
X109329200Y-140060123D02*
X109281580Y-140107742D01*
X109281580Y-140107742D02*
X109186342Y-140155361D01*
X109186342Y-140155361D02*
X108995866Y-140202980D01*
X108995866Y-140202980D02*
X108757771Y-140202980D01*
X108757771Y-140202980D02*
X108567295Y-140155361D01*
X108567295Y-140155361D02*
X108472057Y-140107742D01*
X108472057Y-140107742D02*
X108424438Y-140060123D01*
X108424438Y-140060123D02*
X108376819Y-139964885D01*
X109281580Y-139202980D02*
X109329200Y-139155361D01*
X109329200Y-139155361D02*
X109376819Y-139202980D01*
X109376819Y-139202980D02*
X109329200Y-139250599D01*
X109329200Y-139250599D02*
X109281580Y-139202980D01*
X109281580Y-139202980D02*
X109376819Y-139202980D01*
X108472057Y-138774409D02*
X108424438Y-138726790D01*
X108424438Y-138726790D02*
X108376819Y-138631552D01*
X108376819Y-138631552D02*
X108376819Y-138393457D01*
X108376819Y-138393457D02*
X108424438Y-138298219D01*
X108424438Y-138298219D02*
X108472057Y-138250600D01*
X108472057Y-138250600D02*
X108567295Y-138202981D01*
X108567295Y-138202981D02*
X108662533Y-138202981D01*
X108662533Y-138202981D02*
X108805390Y-138250600D01*
X108805390Y-138250600D02*
X109376819Y-138822028D01*
X109376819Y-138822028D02*
X109376819Y-138202981D01*
X108376819Y-137583933D02*
X108376819Y-137488695D01*
X108376819Y-137488695D02*
X108424438Y-137393457D01*
X108424438Y-137393457D02*
X108472057Y-137345838D01*
X108472057Y-137345838D02*
X108567295Y-137298219D01*
X108567295Y-137298219D02*
X108757771Y-137250600D01*
X108757771Y-137250600D02*
X108995866Y-137250600D01*
X108995866Y-137250600D02*
X109186342Y-137298219D01*
X109186342Y-137298219D02*
X109281580Y-137345838D01*
X109281580Y-137345838D02*
X109329200Y-137393457D01*
X109329200Y-137393457D02*
X109376819Y-137488695D01*
X109376819Y-137488695D02*
X109376819Y-137583933D01*
X109376819Y-137583933D02*
X109329200Y-137679171D01*
X109329200Y-137679171D02*
X109281580Y-137726790D01*
X109281580Y-137726790D02*
X109186342Y-137774409D01*
X109186342Y-137774409D02*
X108995866Y-137822028D01*
X108995866Y-137822028D02*
X108757771Y-137822028D01*
X108757771Y-137822028D02*
X108567295Y-137774409D01*
X108567295Y-137774409D02*
X108472057Y-137726790D01*
X108472057Y-137726790D02*
X108424438Y-137679171D01*
X108424438Y-137679171D02*
X108376819Y-137583933D01*
X108472057Y-136869647D02*
X108424438Y-136822028D01*
X108424438Y-136822028D02*
X108376819Y-136726790D01*
X108376819Y-136726790D02*
X108376819Y-136488695D01*
X108376819Y-136488695D02*
X108424438Y-136393457D01*
X108424438Y-136393457D02*
X108472057Y-136345838D01*
X108472057Y-136345838D02*
X108567295Y-136298219D01*
X108567295Y-136298219D02*
X108662533Y-136298219D01*
X108662533Y-136298219D02*
X108805390Y-136345838D01*
X108805390Y-136345838D02*
X109376819Y-136917266D01*
X109376819Y-136917266D02*
X109376819Y-136298219D01*
X108376819Y-135964885D02*
X108376819Y-135345838D01*
X108376819Y-135345838D02*
X108757771Y-135679171D01*
X108757771Y-135679171D02*
X108757771Y-135536314D01*
X108757771Y-135536314D02*
X108805390Y-135441076D01*
X108805390Y-135441076D02*
X108853009Y-135393457D01*
X108853009Y-135393457D02*
X108948247Y-135345838D01*
X108948247Y-135345838D02*
X109186342Y-135345838D01*
X109186342Y-135345838D02*
X109281580Y-135393457D01*
X109281580Y-135393457D02*
X109329200Y-135441076D01*
X109329200Y-135441076D02*
X109376819Y-135536314D01*
X109376819Y-135536314D02*
X109376819Y-135822028D01*
X109376819Y-135822028D02*
X109329200Y-135917266D01*
X109329200Y-135917266D02*
X109281580Y-135964885D01*
X179876819Y-99614885D02*
X179876819Y-99443457D01*
X179876819Y-99443457D02*
X179924438Y-99357742D01*
X179924438Y-99357742D02*
X180019676Y-99272028D01*
X180019676Y-99272028D02*
X180210152Y-99229171D01*
X180210152Y-99229171D02*
X180543485Y-99229171D01*
X180543485Y-99229171D02*
X180733961Y-99272028D01*
X180733961Y-99272028D02*
X180829200Y-99357742D01*
X180829200Y-99357742D02*
X180876819Y-99443457D01*
X180876819Y-99443457D02*
X180876819Y-99614885D01*
X180876819Y-99614885D02*
X180829200Y-99700600D01*
X180829200Y-99700600D02*
X180733961Y-99786314D01*
X180733961Y-99786314D02*
X180543485Y-99829171D01*
X180543485Y-99829171D02*
X180210152Y-99829171D01*
X180210152Y-99829171D02*
X180019676Y-99786314D01*
X180019676Y-99786314D02*
X179924438Y-99700600D01*
X179924438Y-99700600D02*
X179876819Y-99614885D01*
X179876819Y-98843457D02*
X180686342Y-98843457D01*
X180686342Y-98843457D02*
X180781580Y-98800600D01*
X180781580Y-98800600D02*
X180829200Y-98757743D01*
X180829200Y-98757743D02*
X180876819Y-98672028D01*
X180876819Y-98672028D02*
X180876819Y-98500600D01*
X180876819Y-98500600D02*
X180829200Y-98414885D01*
X180829200Y-98414885D02*
X180781580Y-98372028D01*
X180781580Y-98372028D02*
X180686342Y-98329171D01*
X180686342Y-98329171D02*
X179876819Y-98329171D01*
X179876819Y-98029171D02*
X179876819Y-97514886D01*
X180876819Y-97772028D02*
X179876819Y-97772028D01*
X172626819Y-144786314D02*
X172626819Y-145262504D01*
X172626819Y-145262504D02*
X173103009Y-145310123D01*
X173103009Y-145310123D02*
X173055390Y-145262504D01*
X173055390Y-145262504D02*
X173007771Y-145167266D01*
X173007771Y-145167266D02*
X173007771Y-144929171D01*
X173007771Y-144929171D02*
X173055390Y-144833933D01*
X173055390Y-144833933D02*
X173103009Y-144786314D01*
X173103009Y-144786314D02*
X173198247Y-144738695D01*
X173198247Y-144738695D02*
X173436342Y-144738695D01*
X173436342Y-144738695D02*
X173531580Y-144786314D01*
X173531580Y-144786314D02*
X173579200Y-144833933D01*
X173579200Y-144833933D02*
X173626819Y-144929171D01*
X173626819Y-144929171D02*
X173626819Y-145167266D01*
X173626819Y-145167266D02*
X173579200Y-145262504D01*
X173579200Y-145262504D02*
X173531580Y-145310123D01*
X172626819Y-143833933D02*
X172626819Y-144310123D01*
X172626819Y-144310123D02*
X173103009Y-144357742D01*
X173103009Y-144357742D02*
X173055390Y-144310123D01*
X173055390Y-144310123D02*
X173007771Y-144214885D01*
X173007771Y-144214885D02*
X173007771Y-143976790D01*
X173007771Y-143976790D02*
X173055390Y-143881552D01*
X173055390Y-143881552D02*
X173103009Y-143833933D01*
X173103009Y-143833933D02*
X173198247Y-143786314D01*
X173198247Y-143786314D02*
X173436342Y-143786314D01*
X173436342Y-143786314D02*
X173531580Y-143833933D01*
X173531580Y-143833933D02*
X173579200Y-143881552D01*
X173579200Y-143881552D02*
X173626819Y-143976790D01*
X173626819Y-143976790D02*
X173626819Y-144214885D01*
X173626819Y-144214885D02*
X173579200Y-144310123D01*
X173579200Y-144310123D02*
X173531580Y-144357742D01*
X173626819Y-142929171D02*
X172626819Y-142929171D01*
X173579200Y-142929171D02*
X173626819Y-143024409D01*
X173626819Y-143024409D02*
X173626819Y-143214885D01*
X173626819Y-143214885D02*
X173579200Y-143310123D01*
X173579200Y-143310123D02*
X173531580Y-143357742D01*
X173531580Y-143357742D02*
X173436342Y-143405361D01*
X173436342Y-143405361D02*
X173150628Y-143405361D01*
X173150628Y-143405361D02*
X173055390Y-143357742D01*
X173055390Y-143357742D02*
X173007771Y-143310123D01*
X173007771Y-143310123D02*
X172960152Y-143214885D01*
X172960152Y-143214885D02*
X172960152Y-143024409D01*
X172960152Y-143024409D02*
X173007771Y-142929171D01*
X173103009Y-142119647D02*
X173150628Y-141976790D01*
X173150628Y-141976790D02*
X173198247Y-141929171D01*
X173198247Y-141929171D02*
X173293485Y-141881552D01*
X173293485Y-141881552D02*
X173436342Y-141881552D01*
X173436342Y-141881552D02*
X173531580Y-141929171D01*
X173531580Y-141929171D02*
X173579200Y-141976790D01*
X173579200Y-141976790D02*
X173626819Y-142072028D01*
X173626819Y-142072028D02*
X173626819Y-142452980D01*
X173626819Y-142452980D02*
X172626819Y-142452980D01*
X172626819Y-142452980D02*
X172626819Y-142119647D01*
X172626819Y-142119647D02*
X172674438Y-142024409D01*
X172674438Y-142024409D02*
X172722057Y-141976790D01*
X172722057Y-141976790D02*
X172817295Y-141929171D01*
X172817295Y-141929171D02*
X172912533Y-141929171D01*
X172912533Y-141929171D02*
X173007771Y-141976790D01*
X173007771Y-141976790D02*
X173055390Y-142024409D01*
X173055390Y-142024409D02*
X173103009Y-142119647D01*
X173103009Y-142119647D02*
X173103009Y-142452980D01*
X173626819Y-140214885D02*
X173626819Y-140691075D01*
X173626819Y-140691075D02*
X172626819Y-140691075D01*
X173626819Y-139738694D02*
X173579200Y-139833932D01*
X173579200Y-139833932D02*
X173531580Y-139881551D01*
X173531580Y-139881551D02*
X173436342Y-139929170D01*
X173436342Y-139929170D02*
X173150628Y-139929170D01*
X173150628Y-139929170D02*
X173055390Y-139881551D01*
X173055390Y-139881551D02*
X173007771Y-139833932D01*
X173007771Y-139833932D02*
X172960152Y-139738694D01*
X172960152Y-139738694D02*
X172960152Y-139595837D01*
X172960152Y-139595837D02*
X173007771Y-139500599D01*
X173007771Y-139500599D02*
X173055390Y-139452980D01*
X173055390Y-139452980D02*
X173150628Y-139405361D01*
X173150628Y-139405361D02*
X173436342Y-139405361D01*
X173436342Y-139405361D02*
X173531580Y-139452980D01*
X173531580Y-139452980D02*
X173579200Y-139500599D01*
X173579200Y-139500599D02*
X173626819Y-139595837D01*
X173626819Y-139595837D02*
X173626819Y-139738694D01*
X172960152Y-139072027D02*
X173626819Y-138881551D01*
X173626819Y-138881551D02*
X173150628Y-138691075D01*
X173150628Y-138691075D02*
X173626819Y-138500599D01*
X173626819Y-138500599D02*
X172960152Y-138310123D01*
X173245866Y-137929170D02*
X173245866Y-137167266D01*
X173626819Y-136691075D02*
X172626819Y-136691075D01*
X172626819Y-136691075D02*
X173626819Y-136119647D01*
X173626819Y-136119647D02*
X172626819Y-136119647D01*
X173626819Y-135500599D02*
X173579200Y-135595837D01*
X173579200Y-135595837D02*
X173531580Y-135643456D01*
X173531580Y-135643456D02*
X173436342Y-135691075D01*
X173436342Y-135691075D02*
X173150628Y-135691075D01*
X173150628Y-135691075D02*
X173055390Y-135643456D01*
X173055390Y-135643456D02*
X173007771Y-135595837D01*
X173007771Y-135595837D02*
X172960152Y-135500599D01*
X172960152Y-135500599D02*
X172960152Y-135357742D01*
X172960152Y-135357742D02*
X173007771Y-135262504D01*
X173007771Y-135262504D02*
X173055390Y-135214885D01*
X173055390Y-135214885D02*
X173150628Y-135167266D01*
X173150628Y-135167266D02*
X173436342Y-135167266D01*
X173436342Y-135167266D02*
X173531580Y-135214885D01*
X173531580Y-135214885D02*
X173579200Y-135262504D01*
X173579200Y-135262504D02*
X173626819Y-135357742D01*
X173626819Y-135357742D02*
X173626819Y-135500599D01*
X173626819Y-134738694D02*
X172960152Y-134738694D01*
X172626819Y-134738694D02*
X172674438Y-134786313D01*
X172674438Y-134786313D02*
X172722057Y-134738694D01*
X172722057Y-134738694D02*
X172674438Y-134691075D01*
X172674438Y-134691075D02*
X172626819Y-134738694D01*
X172626819Y-134738694D02*
X172722057Y-134738694D01*
X173579200Y-134310123D02*
X173626819Y-134214885D01*
X173626819Y-134214885D02*
X173626819Y-134024409D01*
X173626819Y-134024409D02*
X173579200Y-133929171D01*
X173579200Y-133929171D02*
X173483961Y-133881552D01*
X173483961Y-133881552D02*
X173436342Y-133881552D01*
X173436342Y-133881552D02*
X173341104Y-133929171D01*
X173341104Y-133929171D02*
X173293485Y-134024409D01*
X173293485Y-134024409D02*
X173293485Y-134167266D01*
X173293485Y-134167266D02*
X173245866Y-134262504D01*
X173245866Y-134262504D02*
X173150628Y-134310123D01*
X173150628Y-134310123D02*
X173103009Y-134310123D01*
X173103009Y-134310123D02*
X173007771Y-134262504D01*
X173007771Y-134262504D02*
X172960152Y-134167266D01*
X172960152Y-134167266D02*
X172960152Y-134024409D01*
X172960152Y-134024409D02*
X173007771Y-133929171D01*
X173579200Y-133072028D02*
X173626819Y-133167266D01*
X173626819Y-133167266D02*
X173626819Y-133357742D01*
X173626819Y-133357742D02*
X173579200Y-133452980D01*
X173579200Y-133452980D02*
X173483961Y-133500599D01*
X173483961Y-133500599D02*
X173103009Y-133500599D01*
X173103009Y-133500599D02*
X173007771Y-133452980D01*
X173007771Y-133452980D02*
X172960152Y-133357742D01*
X172960152Y-133357742D02*
X172960152Y-133167266D01*
X172960152Y-133167266D02*
X173007771Y-133072028D01*
X173007771Y-133072028D02*
X173103009Y-133024409D01*
X173103009Y-133024409D02*
X173198247Y-133024409D01*
X173198247Y-133024409D02*
X173293485Y-133500599D01*
X173341104Y-131881551D02*
X173341104Y-131405361D01*
X173626819Y-131976789D02*
X172626819Y-131643456D01*
X172626819Y-131643456D02*
X173626819Y-131310123D01*
X173626819Y-130976789D02*
X172960152Y-130976789D01*
X173055390Y-130976789D02*
X173007771Y-130929170D01*
X173007771Y-130929170D02*
X172960152Y-130833932D01*
X172960152Y-130833932D02*
X172960152Y-130691075D01*
X172960152Y-130691075D02*
X173007771Y-130595837D01*
X173007771Y-130595837D02*
X173103009Y-130548218D01*
X173103009Y-130548218D02*
X173626819Y-130548218D01*
X173103009Y-130548218D02*
X173007771Y-130500599D01*
X173007771Y-130500599D02*
X172960152Y-130405361D01*
X172960152Y-130405361D02*
X172960152Y-130262504D01*
X172960152Y-130262504D02*
X173007771Y-130167265D01*
X173007771Y-130167265D02*
X173103009Y-130119646D01*
X173103009Y-130119646D02*
X173626819Y-130119646D01*
X172960152Y-129643456D02*
X173960152Y-129643456D01*
X173007771Y-129643456D02*
X172960152Y-129548218D01*
X172960152Y-129548218D02*
X172960152Y-129357742D01*
X172960152Y-129357742D02*
X173007771Y-129262504D01*
X173007771Y-129262504D02*
X173055390Y-129214885D01*
X173055390Y-129214885D02*
X173150628Y-129167266D01*
X173150628Y-129167266D02*
X173436342Y-129167266D01*
X173436342Y-129167266D02*
X173531580Y-129214885D01*
X173531580Y-129214885D02*
X173579200Y-129262504D01*
X173579200Y-129262504D02*
X173626819Y-129357742D01*
X173626819Y-129357742D02*
X173626819Y-129548218D01*
X173626819Y-129548218D02*
X173579200Y-129643456D01*
X173626819Y-128595837D02*
X173579200Y-128691075D01*
X173579200Y-128691075D02*
X173483961Y-128738694D01*
X173483961Y-128738694D02*
X172626819Y-128738694D01*
X173626819Y-128214884D02*
X172960152Y-128214884D01*
X172626819Y-128214884D02*
X172674438Y-128262503D01*
X172674438Y-128262503D02*
X172722057Y-128214884D01*
X172722057Y-128214884D02*
X172674438Y-128167265D01*
X172674438Y-128167265D02*
X172626819Y-128214884D01*
X172626819Y-128214884D02*
X172722057Y-128214884D01*
X172960152Y-127881551D02*
X172960152Y-127500599D01*
X173626819Y-127738694D02*
X172769676Y-127738694D01*
X172769676Y-127738694D02*
X172674438Y-127691075D01*
X172674438Y-127691075D02*
X172626819Y-127595837D01*
X172626819Y-127595837D02*
X172626819Y-127500599D01*
X173626819Y-127167265D02*
X172960152Y-127167265D01*
X172626819Y-127167265D02*
X172674438Y-127214884D01*
X172674438Y-127214884D02*
X172722057Y-127167265D01*
X172722057Y-127167265D02*
X172674438Y-127119646D01*
X172674438Y-127119646D02*
X172626819Y-127167265D01*
X172626819Y-127167265D02*
X172722057Y-127167265D01*
X173579200Y-126310123D02*
X173626819Y-126405361D01*
X173626819Y-126405361D02*
X173626819Y-126595837D01*
X173626819Y-126595837D02*
X173579200Y-126691075D01*
X173579200Y-126691075D02*
X173483961Y-126738694D01*
X173483961Y-126738694D02*
X173103009Y-126738694D01*
X173103009Y-126738694D02*
X173007771Y-126691075D01*
X173007771Y-126691075D02*
X172960152Y-126595837D01*
X172960152Y-126595837D02*
X172960152Y-126405361D01*
X172960152Y-126405361D02*
X173007771Y-126310123D01*
X173007771Y-126310123D02*
X173103009Y-126262504D01*
X173103009Y-126262504D02*
X173198247Y-126262504D01*
X173198247Y-126262504D02*
X173293485Y-126738694D01*
X173626819Y-125833932D02*
X172960152Y-125833932D01*
X173150628Y-125833932D02*
X173055390Y-125786313D01*
X173055390Y-125786313D02*
X173007771Y-125738694D01*
X173007771Y-125738694D02*
X172960152Y-125643456D01*
X172960152Y-125643456D02*
X172960152Y-125548218D01*
D11*
X152792057Y-100917028D02*
X153134914Y-100917028D01*
X152963485Y-100917028D02*
X152963485Y-101517028D01*
X152963485Y-101517028D02*
X153020628Y-101431314D01*
X153020628Y-101431314D02*
X153077771Y-101374171D01*
X153077771Y-101374171D02*
X153134914Y-101345600D01*
X152163485Y-101517028D02*
X151963485Y-100917028D01*
X151963485Y-100917028D02*
X151763485Y-101517028D01*
X151563484Y-100917028D02*
X151563484Y-101517028D01*
X151277770Y-100917028D02*
X151277770Y-101517028D01*
X151277770Y-101517028D02*
X150934913Y-100917028D01*
X150934913Y-100917028D02*
X150934913Y-101517028D01*
X153134914Y-100487885D02*
X153106342Y-100516457D01*
X153106342Y-100516457D02*
X153049200Y-100545028D01*
X153049200Y-100545028D02*
X152906342Y-100545028D01*
X152906342Y-100545028D02*
X152849200Y-100516457D01*
X152849200Y-100516457D02*
X152820628Y-100487885D01*
X152820628Y-100487885D02*
X152792057Y-100430742D01*
X152792057Y-100430742D02*
X152792057Y-100373600D01*
X152792057Y-100373600D02*
X152820628Y-100287885D01*
X152820628Y-100287885D02*
X153163485Y-99945028D01*
X153163485Y-99945028D02*
X152792057Y-99945028D01*
X151963485Y-100545028D02*
X151849199Y-100545028D01*
X151849199Y-100545028D02*
X151792056Y-100516457D01*
X151792056Y-100516457D02*
X151734913Y-100459314D01*
X151734913Y-100459314D02*
X151706342Y-100345028D01*
X151706342Y-100345028D02*
X151706342Y-100145028D01*
X151706342Y-100145028D02*
X151734913Y-100030742D01*
X151734913Y-100030742D02*
X151792056Y-99973600D01*
X151792056Y-99973600D02*
X151849199Y-99945028D01*
X151849199Y-99945028D02*
X151963485Y-99945028D01*
X151963485Y-99945028D02*
X152020628Y-99973600D01*
X152020628Y-99973600D02*
X152077770Y-100030742D01*
X152077770Y-100030742D02*
X152106342Y-100145028D01*
X152106342Y-100145028D02*
X152106342Y-100345028D01*
X152106342Y-100345028D02*
X152077770Y-100459314D01*
X152077770Y-100459314D02*
X152020628Y-100516457D01*
X152020628Y-100516457D02*
X151963485Y-100545028D01*
X151449199Y-100173600D02*
X150992057Y-100173600D01*
X151220628Y-99945028D02*
X151220628Y-100402171D01*
X153163485Y-99573028D02*
X152792057Y-99573028D01*
X152792057Y-99573028D02*
X152992057Y-99344457D01*
X152992057Y-99344457D02*
X152906342Y-99344457D01*
X152906342Y-99344457D02*
X152849200Y-99315885D01*
X152849200Y-99315885D02*
X152820628Y-99287314D01*
X152820628Y-99287314D02*
X152792057Y-99230171D01*
X152792057Y-99230171D02*
X152792057Y-99087314D01*
X152792057Y-99087314D02*
X152820628Y-99030171D01*
X152820628Y-99030171D02*
X152849200Y-99001600D01*
X152849200Y-99001600D02*
X152906342Y-98973028D01*
X152906342Y-98973028D02*
X153077771Y-98973028D01*
X153077771Y-98973028D02*
X153134914Y-99001600D01*
X153134914Y-99001600D02*
X153163485Y-99030171D01*
X151734913Y-99030171D02*
X151763485Y-99001600D01*
X151763485Y-99001600D02*
X151849199Y-98973028D01*
X151849199Y-98973028D02*
X151906342Y-98973028D01*
X151906342Y-98973028D02*
X151992056Y-99001600D01*
X151992056Y-99001600D02*
X152049199Y-99058742D01*
X152049199Y-99058742D02*
X152077770Y-99115885D01*
X152077770Y-99115885D02*
X152106342Y-99230171D01*
X152106342Y-99230171D02*
X152106342Y-99315885D01*
X152106342Y-99315885D02*
X152077770Y-99430171D01*
X152077770Y-99430171D02*
X152049199Y-99487314D01*
X152049199Y-99487314D02*
X151992056Y-99544457D01*
X151992056Y-99544457D02*
X151906342Y-99573028D01*
X151906342Y-99573028D02*
X151849199Y-99573028D01*
X151849199Y-99573028D02*
X151763485Y-99544457D01*
X151763485Y-99544457D02*
X151734913Y-99515885D01*
X151363485Y-99573028D02*
X151249199Y-99573028D01*
X151249199Y-99573028D02*
X151192056Y-99544457D01*
X151192056Y-99544457D02*
X151134913Y-99487314D01*
X151134913Y-99487314D02*
X151106342Y-99373028D01*
X151106342Y-99373028D02*
X151106342Y-99173028D01*
X151106342Y-99173028D02*
X151134913Y-99058742D01*
X151134913Y-99058742D02*
X151192056Y-99001600D01*
X151192056Y-99001600D02*
X151249199Y-98973028D01*
X151249199Y-98973028D02*
X151363485Y-98973028D01*
X151363485Y-98973028D02*
X151420628Y-99001600D01*
X151420628Y-99001600D02*
X151477770Y-99058742D01*
X151477770Y-99058742D02*
X151506342Y-99173028D01*
X151506342Y-99173028D02*
X151506342Y-99373028D01*
X151506342Y-99373028D02*
X151477770Y-99487314D01*
X151477770Y-99487314D02*
X151420628Y-99544457D01*
X151420628Y-99544457D02*
X151363485Y-99573028D01*
X150849199Y-98973028D02*
X150849199Y-99573028D01*
X150849199Y-99573028D02*
X150649199Y-99144457D01*
X150649199Y-99144457D02*
X150449199Y-99573028D01*
X150449199Y-99573028D02*
X150449199Y-98973028D01*
X152849200Y-98401028D02*
X152849200Y-98001028D01*
X152992057Y-98629600D02*
X153134914Y-98201028D01*
X153134914Y-98201028D02*
X152763485Y-98201028D01*
X151963485Y-98601028D02*
X151849199Y-98601028D01*
X151849199Y-98601028D02*
X151792056Y-98572457D01*
X151792056Y-98572457D02*
X151734913Y-98515314D01*
X151734913Y-98515314D02*
X151706342Y-98401028D01*
X151706342Y-98401028D02*
X151706342Y-98201028D01*
X151706342Y-98201028D02*
X151734913Y-98086742D01*
X151734913Y-98086742D02*
X151792056Y-98029600D01*
X151792056Y-98029600D02*
X151849199Y-98001028D01*
X151849199Y-98001028D02*
X151963485Y-98001028D01*
X151963485Y-98001028D02*
X152020628Y-98029600D01*
X152020628Y-98029600D02*
X152077770Y-98086742D01*
X152077770Y-98086742D02*
X152106342Y-98201028D01*
X152106342Y-98201028D02*
X152106342Y-98401028D01*
X152106342Y-98401028D02*
X152077770Y-98515314D01*
X152077770Y-98515314D02*
X152020628Y-98572457D01*
X152020628Y-98572457D02*
X151963485Y-98601028D01*
X151449199Y-98229600D02*
X150992057Y-98229600D01*
X152820628Y-97629028D02*
X153106342Y-97629028D01*
X153106342Y-97629028D02*
X153134914Y-97343314D01*
X153134914Y-97343314D02*
X153106342Y-97371885D01*
X153106342Y-97371885D02*
X153049200Y-97400457D01*
X153049200Y-97400457D02*
X152906342Y-97400457D01*
X152906342Y-97400457D02*
X152849200Y-97371885D01*
X152849200Y-97371885D02*
X152820628Y-97343314D01*
X152820628Y-97343314D02*
X152792057Y-97286171D01*
X152792057Y-97286171D02*
X152792057Y-97143314D01*
X152792057Y-97143314D02*
X152820628Y-97086171D01*
X152820628Y-97086171D02*
X152849200Y-97057600D01*
X152849200Y-97057600D02*
X152906342Y-97029028D01*
X152906342Y-97029028D02*
X153049200Y-97029028D01*
X153049200Y-97029028D02*
X153106342Y-97057600D01*
X153106342Y-97057600D02*
X153134914Y-97086171D01*
X151763485Y-97600457D02*
X151820628Y-97629028D01*
X151820628Y-97629028D02*
X151906342Y-97629028D01*
X151906342Y-97629028D02*
X151992056Y-97600457D01*
X151992056Y-97600457D02*
X152049199Y-97543314D01*
X152049199Y-97543314D02*
X152077770Y-97486171D01*
X152077770Y-97486171D02*
X152106342Y-97371885D01*
X152106342Y-97371885D02*
X152106342Y-97286171D01*
X152106342Y-97286171D02*
X152077770Y-97171885D01*
X152077770Y-97171885D02*
X152049199Y-97114742D01*
X152049199Y-97114742D02*
X151992056Y-97057600D01*
X151992056Y-97057600D02*
X151906342Y-97029028D01*
X151906342Y-97029028D02*
X151849199Y-97029028D01*
X151849199Y-97029028D02*
X151763485Y-97057600D01*
X151763485Y-97057600D02*
X151734913Y-97086171D01*
X151734913Y-97086171D02*
X151734913Y-97286171D01*
X151734913Y-97286171D02*
X151849199Y-97286171D01*
X151477770Y-97029028D02*
X151477770Y-97629028D01*
X151477770Y-97629028D02*
X151134913Y-97029028D01*
X151134913Y-97029028D02*
X151134913Y-97629028D01*
X150849199Y-97029028D02*
X150849199Y-97629028D01*
X150849199Y-97629028D02*
X150706342Y-97629028D01*
X150706342Y-97629028D02*
X150620628Y-97600457D01*
X150620628Y-97600457D02*
X150563485Y-97543314D01*
X150563485Y-97543314D02*
X150534914Y-97486171D01*
X150534914Y-97486171D02*
X150506342Y-97371885D01*
X150506342Y-97371885D02*
X150506342Y-97286171D01*
X150506342Y-97286171D02*
X150534914Y-97171885D01*
X150534914Y-97171885D02*
X150563485Y-97114742D01*
X150563485Y-97114742D02*
X150620628Y-97057600D01*
X150620628Y-97057600D02*
X150706342Y-97029028D01*
X150706342Y-97029028D02*
X150849199Y-97029028D01*
D10*
X130710152Y-145107742D02*
X131376819Y-144869647D01*
X131376819Y-144869647D02*
X130710152Y-144631552D01*
X131376819Y-143726790D02*
X131376819Y-144298218D01*
X131376819Y-144012504D02*
X130376819Y-144012504D01*
X130376819Y-144012504D02*
X130519676Y-144107742D01*
X130519676Y-144107742D02*
X130614914Y-144202980D01*
X130614914Y-144202980D02*
X130662533Y-144298218D01*
X131281580Y-143298218D02*
X131329200Y-143250599D01*
X131329200Y-143250599D02*
X131376819Y-143298218D01*
X131376819Y-143298218D02*
X131329200Y-143345837D01*
X131329200Y-143345837D02*
X131281580Y-143298218D01*
X131281580Y-143298218D02*
X131376819Y-143298218D01*
X130376819Y-142631552D02*
X130376819Y-142536314D01*
X130376819Y-142536314D02*
X130424438Y-142441076D01*
X130424438Y-142441076D02*
X130472057Y-142393457D01*
X130472057Y-142393457D02*
X130567295Y-142345838D01*
X130567295Y-142345838D02*
X130757771Y-142298219D01*
X130757771Y-142298219D02*
X130995866Y-142298219D01*
X130995866Y-142298219D02*
X131186342Y-142345838D01*
X131186342Y-142345838D02*
X131281580Y-142393457D01*
X131281580Y-142393457D02*
X131329200Y-142441076D01*
X131329200Y-142441076D02*
X131376819Y-142536314D01*
X131376819Y-142536314D02*
X131376819Y-142631552D01*
X131376819Y-142631552D02*
X131329200Y-142726790D01*
X131329200Y-142726790D02*
X131281580Y-142774409D01*
X131281580Y-142774409D02*
X131186342Y-142822028D01*
X131186342Y-142822028D02*
X130995866Y-142869647D01*
X130995866Y-142869647D02*
X130757771Y-142869647D01*
X130757771Y-142869647D02*
X130567295Y-142822028D01*
X130567295Y-142822028D02*
X130472057Y-142774409D01*
X130472057Y-142774409D02*
X130424438Y-142726790D01*
X130424438Y-142726790D02*
X130376819Y-142631552D01*
X131376819Y-140583933D02*
X131376819Y-141155361D01*
X131376819Y-140869647D02*
X130376819Y-140869647D01*
X130376819Y-140869647D02*
X130519676Y-140964885D01*
X130519676Y-140964885D02*
X130614914Y-141060123D01*
X130614914Y-141060123D02*
X130662533Y-141155361D01*
X130376819Y-139964885D02*
X130376819Y-139869647D01*
X130376819Y-139869647D02*
X130424438Y-139774409D01*
X130424438Y-139774409D02*
X130472057Y-139726790D01*
X130472057Y-139726790D02*
X130567295Y-139679171D01*
X130567295Y-139679171D02*
X130757771Y-139631552D01*
X130757771Y-139631552D02*
X130995866Y-139631552D01*
X130995866Y-139631552D02*
X131186342Y-139679171D01*
X131186342Y-139679171D02*
X131281580Y-139726790D01*
X131281580Y-139726790D02*
X131329200Y-139774409D01*
X131329200Y-139774409D02*
X131376819Y-139869647D01*
X131376819Y-139869647D02*
X131376819Y-139964885D01*
X131376819Y-139964885D02*
X131329200Y-140060123D01*
X131329200Y-140060123D02*
X131281580Y-140107742D01*
X131281580Y-140107742D02*
X131186342Y-140155361D01*
X131186342Y-140155361D02*
X130995866Y-140202980D01*
X130995866Y-140202980D02*
X130757771Y-140202980D01*
X130757771Y-140202980D02*
X130567295Y-140155361D01*
X130567295Y-140155361D02*
X130472057Y-140107742D01*
X130472057Y-140107742D02*
X130424438Y-140060123D01*
X130424438Y-140060123D02*
X130376819Y-139964885D01*
X131281580Y-139202980D02*
X131329200Y-139155361D01*
X131329200Y-139155361D02*
X131376819Y-139202980D01*
X131376819Y-139202980D02*
X131329200Y-139250599D01*
X131329200Y-139250599D02*
X131281580Y-139202980D01*
X131281580Y-139202980D02*
X131376819Y-139202980D01*
X130472057Y-138774409D02*
X130424438Y-138726790D01*
X130424438Y-138726790D02*
X130376819Y-138631552D01*
X130376819Y-138631552D02*
X130376819Y-138393457D01*
X130376819Y-138393457D02*
X130424438Y-138298219D01*
X130424438Y-138298219D02*
X130472057Y-138250600D01*
X130472057Y-138250600D02*
X130567295Y-138202981D01*
X130567295Y-138202981D02*
X130662533Y-138202981D01*
X130662533Y-138202981D02*
X130805390Y-138250600D01*
X130805390Y-138250600D02*
X131376819Y-138822028D01*
X131376819Y-138822028D02*
X131376819Y-138202981D01*
X130376819Y-137583933D02*
X130376819Y-137488695D01*
X130376819Y-137488695D02*
X130424438Y-137393457D01*
X130424438Y-137393457D02*
X130472057Y-137345838D01*
X130472057Y-137345838D02*
X130567295Y-137298219D01*
X130567295Y-137298219D02*
X130757771Y-137250600D01*
X130757771Y-137250600D02*
X130995866Y-137250600D01*
X130995866Y-137250600D02*
X131186342Y-137298219D01*
X131186342Y-137298219D02*
X131281580Y-137345838D01*
X131281580Y-137345838D02*
X131329200Y-137393457D01*
X131329200Y-137393457D02*
X131376819Y-137488695D01*
X131376819Y-137488695D02*
X131376819Y-137583933D01*
X131376819Y-137583933D02*
X131329200Y-137679171D01*
X131329200Y-137679171D02*
X131281580Y-137726790D01*
X131281580Y-137726790D02*
X131186342Y-137774409D01*
X131186342Y-137774409D02*
X130995866Y-137822028D01*
X130995866Y-137822028D02*
X130757771Y-137822028D01*
X130757771Y-137822028D02*
X130567295Y-137774409D01*
X130567295Y-137774409D02*
X130472057Y-137726790D01*
X130472057Y-137726790D02*
X130424438Y-137679171D01*
X130424438Y-137679171D02*
X130376819Y-137583933D01*
X130472057Y-136869647D02*
X130424438Y-136822028D01*
X130424438Y-136822028D02*
X130376819Y-136726790D01*
X130376819Y-136726790D02*
X130376819Y-136488695D01*
X130376819Y-136488695D02*
X130424438Y-136393457D01*
X130424438Y-136393457D02*
X130472057Y-136345838D01*
X130472057Y-136345838D02*
X130567295Y-136298219D01*
X130567295Y-136298219D02*
X130662533Y-136298219D01*
X130662533Y-136298219D02*
X130805390Y-136345838D01*
X130805390Y-136345838D02*
X131376819Y-136917266D01*
X131376819Y-136917266D02*
X131376819Y-136298219D01*
X130376819Y-135964885D02*
X130376819Y-135345838D01*
X130376819Y-135345838D02*
X130757771Y-135679171D01*
X130757771Y-135679171D02*
X130757771Y-135536314D01*
X130757771Y-135536314D02*
X130805390Y-135441076D01*
X130805390Y-135441076D02*
X130853009Y-135393457D01*
X130853009Y-135393457D02*
X130948247Y-135345838D01*
X130948247Y-135345838D02*
X131186342Y-135345838D01*
X131186342Y-135345838D02*
X131281580Y-135393457D01*
X131281580Y-135393457D02*
X131329200Y-135441076D01*
X131329200Y-135441076D02*
X131376819Y-135536314D01*
X131376819Y-135536314D02*
X131376819Y-135822028D01*
X131376819Y-135822028D02*
X131329200Y-135917266D01*
X131329200Y-135917266D02*
X131281580Y-135964885D01*
X201876819Y-99614885D02*
X201876819Y-99443457D01*
X201876819Y-99443457D02*
X201924438Y-99357742D01*
X201924438Y-99357742D02*
X202019676Y-99272028D01*
X202019676Y-99272028D02*
X202210152Y-99229171D01*
X202210152Y-99229171D02*
X202543485Y-99229171D01*
X202543485Y-99229171D02*
X202733961Y-99272028D01*
X202733961Y-99272028D02*
X202829200Y-99357742D01*
X202829200Y-99357742D02*
X202876819Y-99443457D01*
X202876819Y-99443457D02*
X202876819Y-99614885D01*
X202876819Y-99614885D02*
X202829200Y-99700600D01*
X202829200Y-99700600D02*
X202733961Y-99786314D01*
X202733961Y-99786314D02*
X202543485Y-99829171D01*
X202543485Y-99829171D02*
X202210152Y-99829171D01*
X202210152Y-99829171D02*
X202019676Y-99786314D01*
X202019676Y-99786314D02*
X201924438Y-99700600D01*
X201924438Y-99700600D02*
X201876819Y-99614885D01*
X201876819Y-98843457D02*
X202686342Y-98843457D01*
X202686342Y-98843457D02*
X202781580Y-98800600D01*
X202781580Y-98800600D02*
X202829200Y-98757743D01*
X202829200Y-98757743D02*
X202876819Y-98672028D01*
X202876819Y-98672028D02*
X202876819Y-98500600D01*
X202876819Y-98500600D02*
X202829200Y-98414885D01*
X202829200Y-98414885D02*
X202781580Y-98372028D01*
X202781580Y-98372028D02*
X202686342Y-98329171D01*
X202686342Y-98329171D02*
X201876819Y-98329171D01*
X201876819Y-98029171D02*
X201876819Y-97514886D01*
X202876819Y-97772028D02*
X201876819Y-97772028D01*
X113876819Y-99614885D02*
X113876819Y-99443457D01*
X113876819Y-99443457D02*
X113924438Y-99357742D01*
X113924438Y-99357742D02*
X114019676Y-99272028D01*
X114019676Y-99272028D02*
X114210152Y-99229171D01*
X114210152Y-99229171D02*
X114543485Y-99229171D01*
X114543485Y-99229171D02*
X114733961Y-99272028D01*
X114733961Y-99272028D02*
X114829200Y-99357742D01*
X114829200Y-99357742D02*
X114876819Y-99443457D01*
X114876819Y-99443457D02*
X114876819Y-99614885D01*
X114876819Y-99614885D02*
X114829200Y-99700600D01*
X114829200Y-99700600D02*
X114733961Y-99786314D01*
X114733961Y-99786314D02*
X114543485Y-99829171D01*
X114543485Y-99829171D02*
X114210152Y-99829171D01*
X114210152Y-99829171D02*
X114019676Y-99786314D01*
X114019676Y-99786314D02*
X113924438Y-99700600D01*
X113924438Y-99700600D02*
X113876819Y-99614885D01*
X113876819Y-98843457D02*
X114686342Y-98843457D01*
X114686342Y-98843457D02*
X114781580Y-98800600D01*
X114781580Y-98800600D02*
X114829200Y-98757743D01*
X114829200Y-98757743D02*
X114876819Y-98672028D01*
X114876819Y-98672028D02*
X114876819Y-98500600D01*
X114876819Y-98500600D02*
X114829200Y-98414885D01*
X114829200Y-98414885D02*
X114781580Y-98372028D01*
X114781580Y-98372028D02*
X114686342Y-98329171D01*
X114686342Y-98329171D02*
X113876819Y-98329171D01*
X113876819Y-98029171D02*
X113876819Y-97514886D01*
X114876819Y-97772028D02*
X113876819Y-97772028D01*
X200461819Y-145029171D02*
X199461819Y-145029171D01*
X200461819Y-144600600D02*
X199461819Y-144600600D01*
X199461819Y-144600600D02*
X200461819Y-144086314D01*
X200461819Y-144086314D02*
X199461819Y-144086314D01*
X200080866Y-143657743D02*
X200080866Y-142972029D01*
X174710152Y-145107742D02*
X175376819Y-144869647D01*
X175376819Y-144869647D02*
X174710152Y-144631552D01*
X175376819Y-143726790D02*
X175376819Y-144298218D01*
X175376819Y-144012504D02*
X174376819Y-144012504D01*
X174376819Y-144012504D02*
X174519676Y-144107742D01*
X174519676Y-144107742D02*
X174614914Y-144202980D01*
X174614914Y-144202980D02*
X174662533Y-144298218D01*
X175281580Y-143298218D02*
X175329200Y-143250599D01*
X175329200Y-143250599D02*
X175376819Y-143298218D01*
X175376819Y-143298218D02*
X175329200Y-143345837D01*
X175329200Y-143345837D02*
X175281580Y-143298218D01*
X175281580Y-143298218D02*
X175376819Y-143298218D01*
X174376819Y-142631552D02*
X174376819Y-142536314D01*
X174376819Y-142536314D02*
X174424438Y-142441076D01*
X174424438Y-142441076D02*
X174472057Y-142393457D01*
X174472057Y-142393457D02*
X174567295Y-142345838D01*
X174567295Y-142345838D02*
X174757771Y-142298219D01*
X174757771Y-142298219D02*
X174995866Y-142298219D01*
X174995866Y-142298219D02*
X175186342Y-142345838D01*
X175186342Y-142345838D02*
X175281580Y-142393457D01*
X175281580Y-142393457D02*
X175329200Y-142441076D01*
X175329200Y-142441076D02*
X175376819Y-142536314D01*
X175376819Y-142536314D02*
X175376819Y-142631552D01*
X175376819Y-142631552D02*
X175329200Y-142726790D01*
X175329200Y-142726790D02*
X175281580Y-142774409D01*
X175281580Y-142774409D02*
X175186342Y-142822028D01*
X175186342Y-142822028D02*
X174995866Y-142869647D01*
X174995866Y-142869647D02*
X174757771Y-142869647D01*
X174757771Y-142869647D02*
X174567295Y-142822028D01*
X174567295Y-142822028D02*
X174472057Y-142774409D01*
X174472057Y-142774409D02*
X174424438Y-142726790D01*
X174424438Y-142726790D02*
X174376819Y-142631552D01*
X175376819Y-140583933D02*
X175376819Y-141155361D01*
X175376819Y-140869647D02*
X174376819Y-140869647D01*
X174376819Y-140869647D02*
X174519676Y-140964885D01*
X174519676Y-140964885D02*
X174614914Y-141060123D01*
X174614914Y-141060123D02*
X174662533Y-141155361D01*
X174376819Y-139964885D02*
X174376819Y-139869647D01*
X174376819Y-139869647D02*
X174424438Y-139774409D01*
X174424438Y-139774409D02*
X174472057Y-139726790D01*
X174472057Y-139726790D02*
X174567295Y-139679171D01*
X174567295Y-139679171D02*
X174757771Y-139631552D01*
X174757771Y-139631552D02*
X174995866Y-139631552D01*
X174995866Y-139631552D02*
X175186342Y-139679171D01*
X175186342Y-139679171D02*
X175281580Y-139726790D01*
X175281580Y-139726790D02*
X175329200Y-139774409D01*
X175329200Y-139774409D02*
X175376819Y-139869647D01*
X175376819Y-139869647D02*
X175376819Y-139964885D01*
X175376819Y-139964885D02*
X175329200Y-140060123D01*
X175329200Y-140060123D02*
X175281580Y-140107742D01*
X175281580Y-140107742D02*
X175186342Y-140155361D01*
X175186342Y-140155361D02*
X174995866Y-140202980D01*
X174995866Y-140202980D02*
X174757771Y-140202980D01*
X174757771Y-140202980D02*
X174567295Y-140155361D01*
X174567295Y-140155361D02*
X174472057Y-140107742D01*
X174472057Y-140107742D02*
X174424438Y-140060123D01*
X174424438Y-140060123D02*
X174376819Y-139964885D01*
X175281580Y-139202980D02*
X175329200Y-139155361D01*
X175329200Y-139155361D02*
X175376819Y-139202980D01*
X175376819Y-139202980D02*
X175329200Y-139250599D01*
X175329200Y-139250599D02*
X175281580Y-139202980D01*
X175281580Y-139202980D02*
X175376819Y-139202980D01*
X174472057Y-138774409D02*
X174424438Y-138726790D01*
X174424438Y-138726790D02*
X174376819Y-138631552D01*
X174376819Y-138631552D02*
X174376819Y-138393457D01*
X174376819Y-138393457D02*
X174424438Y-138298219D01*
X174424438Y-138298219D02*
X174472057Y-138250600D01*
X174472057Y-138250600D02*
X174567295Y-138202981D01*
X174567295Y-138202981D02*
X174662533Y-138202981D01*
X174662533Y-138202981D02*
X174805390Y-138250600D01*
X174805390Y-138250600D02*
X175376819Y-138822028D01*
X175376819Y-138822028D02*
X175376819Y-138202981D01*
X174376819Y-137583933D02*
X174376819Y-137488695D01*
X174376819Y-137488695D02*
X174424438Y-137393457D01*
X174424438Y-137393457D02*
X174472057Y-137345838D01*
X174472057Y-137345838D02*
X174567295Y-137298219D01*
X174567295Y-137298219D02*
X174757771Y-137250600D01*
X174757771Y-137250600D02*
X174995866Y-137250600D01*
X174995866Y-137250600D02*
X175186342Y-137298219D01*
X175186342Y-137298219D02*
X175281580Y-137345838D01*
X175281580Y-137345838D02*
X175329200Y-137393457D01*
X175329200Y-137393457D02*
X175376819Y-137488695D01*
X175376819Y-137488695D02*
X175376819Y-137583933D01*
X175376819Y-137583933D02*
X175329200Y-137679171D01*
X175329200Y-137679171D02*
X175281580Y-137726790D01*
X175281580Y-137726790D02*
X175186342Y-137774409D01*
X175186342Y-137774409D02*
X174995866Y-137822028D01*
X174995866Y-137822028D02*
X174757771Y-137822028D01*
X174757771Y-137822028D02*
X174567295Y-137774409D01*
X174567295Y-137774409D02*
X174472057Y-137726790D01*
X174472057Y-137726790D02*
X174424438Y-137679171D01*
X174424438Y-137679171D02*
X174376819Y-137583933D01*
X174472057Y-136869647D02*
X174424438Y-136822028D01*
X174424438Y-136822028D02*
X174376819Y-136726790D01*
X174376819Y-136726790D02*
X174376819Y-136488695D01*
X174376819Y-136488695D02*
X174424438Y-136393457D01*
X174424438Y-136393457D02*
X174472057Y-136345838D01*
X174472057Y-136345838D02*
X174567295Y-136298219D01*
X174567295Y-136298219D02*
X174662533Y-136298219D01*
X174662533Y-136298219D02*
X174805390Y-136345838D01*
X174805390Y-136345838D02*
X175376819Y-136917266D01*
X175376819Y-136917266D02*
X175376819Y-136298219D01*
X174376819Y-135964885D02*
X174376819Y-135345838D01*
X174376819Y-135345838D02*
X174757771Y-135679171D01*
X174757771Y-135679171D02*
X174757771Y-135536314D01*
X174757771Y-135536314D02*
X174805390Y-135441076D01*
X174805390Y-135441076D02*
X174853009Y-135393457D01*
X174853009Y-135393457D02*
X174948247Y-135345838D01*
X174948247Y-135345838D02*
X175186342Y-135345838D01*
X175186342Y-135345838D02*
X175281580Y-135393457D01*
X175281580Y-135393457D02*
X175329200Y-135441076D01*
X175329200Y-135441076D02*
X175376819Y-135536314D01*
X175376819Y-135536314D02*
X175376819Y-135822028D01*
X175376819Y-135822028D02*
X175329200Y-135917266D01*
X175329200Y-135917266D02*
X175281580Y-135964885D01*
X150626819Y-144786314D02*
X150626819Y-145262504D01*
X150626819Y-145262504D02*
X151103009Y-145310123D01*
X151103009Y-145310123D02*
X151055390Y-145262504D01*
X151055390Y-145262504D02*
X151007771Y-145167266D01*
X151007771Y-145167266D02*
X151007771Y-144929171D01*
X151007771Y-144929171D02*
X151055390Y-144833933D01*
X151055390Y-144833933D02*
X151103009Y-144786314D01*
X151103009Y-144786314D02*
X151198247Y-144738695D01*
X151198247Y-144738695D02*
X151436342Y-144738695D01*
X151436342Y-144738695D02*
X151531580Y-144786314D01*
X151531580Y-144786314D02*
X151579200Y-144833933D01*
X151579200Y-144833933D02*
X151626819Y-144929171D01*
X151626819Y-144929171D02*
X151626819Y-145167266D01*
X151626819Y-145167266D02*
X151579200Y-145262504D01*
X151579200Y-145262504D02*
X151531580Y-145310123D01*
X150626819Y-143833933D02*
X150626819Y-144310123D01*
X150626819Y-144310123D02*
X151103009Y-144357742D01*
X151103009Y-144357742D02*
X151055390Y-144310123D01*
X151055390Y-144310123D02*
X151007771Y-144214885D01*
X151007771Y-144214885D02*
X151007771Y-143976790D01*
X151007771Y-143976790D02*
X151055390Y-143881552D01*
X151055390Y-143881552D02*
X151103009Y-143833933D01*
X151103009Y-143833933D02*
X151198247Y-143786314D01*
X151198247Y-143786314D02*
X151436342Y-143786314D01*
X151436342Y-143786314D02*
X151531580Y-143833933D01*
X151531580Y-143833933D02*
X151579200Y-143881552D01*
X151579200Y-143881552D02*
X151626819Y-143976790D01*
X151626819Y-143976790D02*
X151626819Y-144214885D01*
X151626819Y-144214885D02*
X151579200Y-144310123D01*
X151579200Y-144310123D02*
X151531580Y-144357742D01*
X151626819Y-142929171D02*
X150626819Y-142929171D01*
X151579200Y-142929171D02*
X151626819Y-143024409D01*
X151626819Y-143024409D02*
X151626819Y-143214885D01*
X151626819Y-143214885D02*
X151579200Y-143310123D01*
X151579200Y-143310123D02*
X151531580Y-143357742D01*
X151531580Y-143357742D02*
X151436342Y-143405361D01*
X151436342Y-143405361D02*
X151150628Y-143405361D01*
X151150628Y-143405361D02*
X151055390Y-143357742D01*
X151055390Y-143357742D02*
X151007771Y-143310123D01*
X151007771Y-143310123D02*
X150960152Y-143214885D01*
X150960152Y-143214885D02*
X150960152Y-143024409D01*
X150960152Y-143024409D02*
X151007771Y-142929171D01*
X151103009Y-142119647D02*
X151150628Y-141976790D01*
X151150628Y-141976790D02*
X151198247Y-141929171D01*
X151198247Y-141929171D02*
X151293485Y-141881552D01*
X151293485Y-141881552D02*
X151436342Y-141881552D01*
X151436342Y-141881552D02*
X151531580Y-141929171D01*
X151531580Y-141929171D02*
X151579200Y-141976790D01*
X151579200Y-141976790D02*
X151626819Y-142072028D01*
X151626819Y-142072028D02*
X151626819Y-142452980D01*
X151626819Y-142452980D02*
X150626819Y-142452980D01*
X150626819Y-142452980D02*
X150626819Y-142119647D01*
X150626819Y-142119647D02*
X150674438Y-142024409D01*
X150674438Y-142024409D02*
X150722057Y-141976790D01*
X150722057Y-141976790D02*
X150817295Y-141929171D01*
X150817295Y-141929171D02*
X150912533Y-141929171D01*
X150912533Y-141929171D02*
X151007771Y-141976790D01*
X151007771Y-141976790D02*
X151055390Y-142024409D01*
X151055390Y-142024409D02*
X151103009Y-142119647D01*
X151103009Y-142119647D02*
X151103009Y-142452980D01*
X151626819Y-140214885D02*
X151626819Y-140691075D01*
X151626819Y-140691075D02*
X150626819Y-140691075D01*
X151626819Y-139738694D02*
X151579200Y-139833932D01*
X151579200Y-139833932D02*
X151531580Y-139881551D01*
X151531580Y-139881551D02*
X151436342Y-139929170D01*
X151436342Y-139929170D02*
X151150628Y-139929170D01*
X151150628Y-139929170D02*
X151055390Y-139881551D01*
X151055390Y-139881551D02*
X151007771Y-139833932D01*
X151007771Y-139833932D02*
X150960152Y-139738694D01*
X150960152Y-139738694D02*
X150960152Y-139595837D01*
X150960152Y-139595837D02*
X151007771Y-139500599D01*
X151007771Y-139500599D02*
X151055390Y-139452980D01*
X151055390Y-139452980D02*
X151150628Y-139405361D01*
X151150628Y-139405361D02*
X151436342Y-139405361D01*
X151436342Y-139405361D02*
X151531580Y-139452980D01*
X151531580Y-139452980D02*
X151579200Y-139500599D01*
X151579200Y-139500599D02*
X151626819Y-139595837D01*
X151626819Y-139595837D02*
X151626819Y-139738694D01*
X150960152Y-139072027D02*
X151626819Y-138881551D01*
X151626819Y-138881551D02*
X151150628Y-138691075D01*
X151150628Y-138691075D02*
X151626819Y-138500599D01*
X151626819Y-138500599D02*
X150960152Y-138310123D01*
X151245866Y-137929170D02*
X151245866Y-137167266D01*
X151626819Y-136691075D02*
X150626819Y-136691075D01*
X150626819Y-136691075D02*
X151626819Y-136119647D01*
X151626819Y-136119647D02*
X150626819Y-136119647D01*
X151626819Y-135500599D02*
X151579200Y-135595837D01*
X151579200Y-135595837D02*
X151531580Y-135643456D01*
X151531580Y-135643456D02*
X151436342Y-135691075D01*
X151436342Y-135691075D02*
X151150628Y-135691075D01*
X151150628Y-135691075D02*
X151055390Y-135643456D01*
X151055390Y-135643456D02*
X151007771Y-135595837D01*
X151007771Y-135595837D02*
X150960152Y-135500599D01*
X150960152Y-135500599D02*
X150960152Y-135357742D01*
X150960152Y-135357742D02*
X151007771Y-135262504D01*
X151007771Y-135262504D02*
X151055390Y-135214885D01*
X151055390Y-135214885D02*
X151150628Y-135167266D01*
X151150628Y-135167266D02*
X151436342Y-135167266D01*
X151436342Y-135167266D02*
X151531580Y-135214885D01*
X151531580Y-135214885D02*
X151579200Y-135262504D01*
X151579200Y-135262504D02*
X151626819Y-135357742D01*
X151626819Y-135357742D02*
X151626819Y-135500599D01*
X151626819Y-134738694D02*
X150960152Y-134738694D01*
X150626819Y-134738694D02*
X150674438Y-134786313D01*
X150674438Y-134786313D02*
X150722057Y-134738694D01*
X150722057Y-134738694D02*
X150674438Y-134691075D01*
X150674438Y-134691075D02*
X150626819Y-134738694D01*
X150626819Y-134738694D02*
X150722057Y-134738694D01*
X151579200Y-134310123D02*
X151626819Y-134214885D01*
X151626819Y-134214885D02*
X151626819Y-134024409D01*
X151626819Y-134024409D02*
X151579200Y-133929171D01*
X151579200Y-133929171D02*
X151483961Y-133881552D01*
X151483961Y-133881552D02*
X151436342Y-133881552D01*
X151436342Y-133881552D02*
X151341104Y-133929171D01*
X151341104Y-133929171D02*
X151293485Y-134024409D01*
X151293485Y-134024409D02*
X151293485Y-134167266D01*
X151293485Y-134167266D02*
X151245866Y-134262504D01*
X151245866Y-134262504D02*
X151150628Y-134310123D01*
X151150628Y-134310123D02*
X151103009Y-134310123D01*
X151103009Y-134310123D02*
X151007771Y-134262504D01*
X151007771Y-134262504D02*
X150960152Y-134167266D01*
X150960152Y-134167266D02*
X150960152Y-134024409D01*
X150960152Y-134024409D02*
X151007771Y-133929171D01*
X151579200Y-133072028D02*
X151626819Y-133167266D01*
X151626819Y-133167266D02*
X151626819Y-133357742D01*
X151626819Y-133357742D02*
X151579200Y-133452980D01*
X151579200Y-133452980D02*
X151483961Y-133500599D01*
X151483961Y-133500599D02*
X151103009Y-133500599D01*
X151103009Y-133500599D02*
X151007771Y-133452980D01*
X151007771Y-133452980D02*
X150960152Y-133357742D01*
X150960152Y-133357742D02*
X150960152Y-133167266D01*
X150960152Y-133167266D02*
X151007771Y-133072028D01*
X151007771Y-133072028D02*
X151103009Y-133024409D01*
X151103009Y-133024409D02*
X151198247Y-133024409D01*
X151198247Y-133024409D02*
X151293485Y-133500599D01*
X151341104Y-131881551D02*
X151341104Y-131405361D01*
X151626819Y-131976789D02*
X150626819Y-131643456D01*
X150626819Y-131643456D02*
X151626819Y-131310123D01*
X151626819Y-130976789D02*
X150960152Y-130976789D01*
X151055390Y-130976789D02*
X151007771Y-130929170D01*
X151007771Y-130929170D02*
X150960152Y-130833932D01*
X150960152Y-130833932D02*
X150960152Y-130691075D01*
X150960152Y-130691075D02*
X151007771Y-130595837D01*
X151007771Y-130595837D02*
X151103009Y-130548218D01*
X151103009Y-130548218D02*
X151626819Y-130548218D01*
X151103009Y-130548218D02*
X151007771Y-130500599D01*
X151007771Y-130500599D02*
X150960152Y-130405361D01*
X150960152Y-130405361D02*
X150960152Y-130262504D01*
X150960152Y-130262504D02*
X151007771Y-130167265D01*
X151007771Y-130167265D02*
X151103009Y-130119646D01*
X151103009Y-130119646D02*
X151626819Y-130119646D01*
X150960152Y-129643456D02*
X151960152Y-129643456D01*
X151007771Y-129643456D02*
X150960152Y-129548218D01*
X150960152Y-129548218D02*
X150960152Y-129357742D01*
X150960152Y-129357742D02*
X151007771Y-129262504D01*
X151007771Y-129262504D02*
X151055390Y-129214885D01*
X151055390Y-129214885D02*
X151150628Y-129167266D01*
X151150628Y-129167266D02*
X151436342Y-129167266D01*
X151436342Y-129167266D02*
X151531580Y-129214885D01*
X151531580Y-129214885D02*
X151579200Y-129262504D01*
X151579200Y-129262504D02*
X151626819Y-129357742D01*
X151626819Y-129357742D02*
X151626819Y-129548218D01*
X151626819Y-129548218D02*
X151579200Y-129643456D01*
X151626819Y-128595837D02*
X151579200Y-128691075D01*
X151579200Y-128691075D02*
X151483961Y-128738694D01*
X151483961Y-128738694D02*
X150626819Y-128738694D01*
X151626819Y-128214884D02*
X150960152Y-128214884D01*
X150626819Y-128214884D02*
X150674438Y-128262503D01*
X150674438Y-128262503D02*
X150722057Y-128214884D01*
X150722057Y-128214884D02*
X150674438Y-128167265D01*
X150674438Y-128167265D02*
X150626819Y-128214884D01*
X150626819Y-128214884D02*
X150722057Y-128214884D01*
X150960152Y-127881551D02*
X150960152Y-127500599D01*
X151626819Y-127738694D02*
X150769676Y-127738694D01*
X150769676Y-127738694D02*
X150674438Y-127691075D01*
X150674438Y-127691075D02*
X150626819Y-127595837D01*
X150626819Y-127595837D02*
X150626819Y-127500599D01*
X151626819Y-127167265D02*
X150960152Y-127167265D01*
X150626819Y-127167265D02*
X150674438Y-127214884D01*
X150674438Y-127214884D02*
X150722057Y-127167265D01*
X150722057Y-127167265D02*
X150674438Y-127119646D01*
X150674438Y-127119646D02*
X150626819Y-127167265D01*
X150626819Y-127167265D02*
X150722057Y-127167265D01*
X151579200Y-126310123D02*
X151626819Y-126405361D01*
X151626819Y-126405361D02*
X151626819Y-126595837D01*
X151626819Y-126595837D02*
X151579200Y-126691075D01*
X151579200Y-126691075D02*
X151483961Y-126738694D01*
X151483961Y-126738694D02*
X151103009Y-126738694D01*
X151103009Y-126738694D02*
X151007771Y-126691075D01*
X151007771Y-126691075D02*
X150960152Y-126595837D01*
X150960152Y-126595837D02*
X150960152Y-126405361D01*
X150960152Y-126405361D02*
X151007771Y-126310123D01*
X151007771Y-126310123D02*
X151103009Y-126262504D01*
X151103009Y-126262504D02*
X151198247Y-126262504D01*
X151198247Y-126262504D02*
X151293485Y-126738694D01*
X151626819Y-125833932D02*
X150960152Y-125833932D01*
X151150628Y-125833932D02*
X151055390Y-125786313D01*
X151055390Y-125786313D02*
X151007771Y-125738694D01*
X151007771Y-125738694D02*
X150960152Y-125643456D01*
X150960152Y-125643456D02*
X150960152Y-125548218D01*
X106626819Y-144786314D02*
X106626819Y-145262504D01*
X106626819Y-145262504D02*
X107103009Y-145310123D01*
X107103009Y-145310123D02*
X107055390Y-145262504D01*
X107055390Y-145262504D02*
X107007771Y-145167266D01*
X107007771Y-145167266D02*
X107007771Y-144929171D01*
X107007771Y-144929171D02*
X107055390Y-144833933D01*
X107055390Y-144833933D02*
X107103009Y-144786314D01*
X107103009Y-144786314D02*
X107198247Y-144738695D01*
X107198247Y-144738695D02*
X107436342Y-144738695D01*
X107436342Y-144738695D02*
X107531580Y-144786314D01*
X107531580Y-144786314D02*
X107579200Y-144833933D01*
X107579200Y-144833933D02*
X107626819Y-144929171D01*
X107626819Y-144929171D02*
X107626819Y-145167266D01*
X107626819Y-145167266D02*
X107579200Y-145262504D01*
X107579200Y-145262504D02*
X107531580Y-145310123D01*
X106626819Y-143833933D02*
X106626819Y-144310123D01*
X106626819Y-144310123D02*
X107103009Y-144357742D01*
X107103009Y-144357742D02*
X107055390Y-144310123D01*
X107055390Y-144310123D02*
X107007771Y-144214885D01*
X107007771Y-144214885D02*
X107007771Y-143976790D01*
X107007771Y-143976790D02*
X107055390Y-143881552D01*
X107055390Y-143881552D02*
X107103009Y-143833933D01*
X107103009Y-143833933D02*
X107198247Y-143786314D01*
X107198247Y-143786314D02*
X107436342Y-143786314D01*
X107436342Y-143786314D02*
X107531580Y-143833933D01*
X107531580Y-143833933D02*
X107579200Y-143881552D01*
X107579200Y-143881552D02*
X107626819Y-143976790D01*
X107626819Y-143976790D02*
X107626819Y-144214885D01*
X107626819Y-144214885D02*
X107579200Y-144310123D01*
X107579200Y-144310123D02*
X107531580Y-144357742D01*
X107626819Y-142929171D02*
X106626819Y-142929171D01*
X107579200Y-142929171D02*
X107626819Y-143024409D01*
X107626819Y-143024409D02*
X107626819Y-143214885D01*
X107626819Y-143214885D02*
X107579200Y-143310123D01*
X107579200Y-143310123D02*
X107531580Y-143357742D01*
X107531580Y-143357742D02*
X107436342Y-143405361D01*
X107436342Y-143405361D02*
X107150628Y-143405361D01*
X107150628Y-143405361D02*
X107055390Y-143357742D01*
X107055390Y-143357742D02*
X107007771Y-143310123D01*
X107007771Y-143310123D02*
X106960152Y-143214885D01*
X106960152Y-143214885D02*
X106960152Y-143024409D01*
X106960152Y-143024409D02*
X107007771Y-142929171D01*
X107103009Y-142119647D02*
X107150628Y-141976790D01*
X107150628Y-141976790D02*
X107198247Y-141929171D01*
X107198247Y-141929171D02*
X107293485Y-141881552D01*
X107293485Y-141881552D02*
X107436342Y-141881552D01*
X107436342Y-141881552D02*
X107531580Y-141929171D01*
X107531580Y-141929171D02*
X107579200Y-141976790D01*
X107579200Y-141976790D02*
X107626819Y-142072028D01*
X107626819Y-142072028D02*
X107626819Y-142452980D01*
X107626819Y-142452980D02*
X106626819Y-142452980D01*
X106626819Y-142452980D02*
X106626819Y-142119647D01*
X106626819Y-142119647D02*
X106674438Y-142024409D01*
X106674438Y-142024409D02*
X106722057Y-141976790D01*
X106722057Y-141976790D02*
X106817295Y-141929171D01*
X106817295Y-141929171D02*
X106912533Y-141929171D01*
X106912533Y-141929171D02*
X107007771Y-141976790D01*
X107007771Y-141976790D02*
X107055390Y-142024409D01*
X107055390Y-142024409D02*
X107103009Y-142119647D01*
X107103009Y-142119647D02*
X107103009Y-142452980D01*
X107626819Y-140214885D02*
X107626819Y-140691075D01*
X107626819Y-140691075D02*
X106626819Y-140691075D01*
X107626819Y-139738694D02*
X107579200Y-139833932D01*
X107579200Y-139833932D02*
X107531580Y-139881551D01*
X107531580Y-139881551D02*
X107436342Y-139929170D01*
X107436342Y-139929170D02*
X107150628Y-139929170D01*
X107150628Y-139929170D02*
X107055390Y-139881551D01*
X107055390Y-139881551D02*
X107007771Y-139833932D01*
X107007771Y-139833932D02*
X106960152Y-139738694D01*
X106960152Y-139738694D02*
X106960152Y-139595837D01*
X106960152Y-139595837D02*
X107007771Y-139500599D01*
X107007771Y-139500599D02*
X107055390Y-139452980D01*
X107055390Y-139452980D02*
X107150628Y-139405361D01*
X107150628Y-139405361D02*
X107436342Y-139405361D01*
X107436342Y-139405361D02*
X107531580Y-139452980D01*
X107531580Y-139452980D02*
X107579200Y-139500599D01*
X107579200Y-139500599D02*
X107626819Y-139595837D01*
X107626819Y-139595837D02*
X107626819Y-139738694D01*
X106960152Y-139072027D02*
X107626819Y-138881551D01*
X107626819Y-138881551D02*
X107150628Y-138691075D01*
X107150628Y-138691075D02*
X107626819Y-138500599D01*
X107626819Y-138500599D02*
X106960152Y-138310123D01*
X107245866Y-137929170D02*
X107245866Y-137167266D01*
X107626819Y-136691075D02*
X106626819Y-136691075D01*
X106626819Y-136691075D02*
X107626819Y-136119647D01*
X107626819Y-136119647D02*
X106626819Y-136119647D01*
X107626819Y-135500599D02*
X107579200Y-135595837D01*
X107579200Y-135595837D02*
X107531580Y-135643456D01*
X107531580Y-135643456D02*
X107436342Y-135691075D01*
X107436342Y-135691075D02*
X107150628Y-135691075D01*
X107150628Y-135691075D02*
X107055390Y-135643456D01*
X107055390Y-135643456D02*
X107007771Y-135595837D01*
X107007771Y-135595837D02*
X106960152Y-135500599D01*
X106960152Y-135500599D02*
X106960152Y-135357742D01*
X106960152Y-135357742D02*
X107007771Y-135262504D01*
X107007771Y-135262504D02*
X107055390Y-135214885D01*
X107055390Y-135214885D02*
X107150628Y-135167266D01*
X107150628Y-135167266D02*
X107436342Y-135167266D01*
X107436342Y-135167266D02*
X107531580Y-135214885D01*
X107531580Y-135214885D02*
X107579200Y-135262504D01*
X107579200Y-135262504D02*
X107626819Y-135357742D01*
X107626819Y-135357742D02*
X107626819Y-135500599D01*
X107626819Y-134738694D02*
X106960152Y-134738694D01*
X106626819Y-134738694D02*
X106674438Y-134786313D01*
X106674438Y-134786313D02*
X106722057Y-134738694D01*
X106722057Y-134738694D02*
X106674438Y-134691075D01*
X106674438Y-134691075D02*
X106626819Y-134738694D01*
X106626819Y-134738694D02*
X106722057Y-134738694D01*
X107579200Y-134310123D02*
X107626819Y-134214885D01*
X107626819Y-134214885D02*
X107626819Y-134024409D01*
X107626819Y-134024409D02*
X107579200Y-133929171D01*
X107579200Y-133929171D02*
X107483961Y-133881552D01*
X107483961Y-133881552D02*
X107436342Y-133881552D01*
X107436342Y-133881552D02*
X107341104Y-133929171D01*
X107341104Y-133929171D02*
X107293485Y-134024409D01*
X107293485Y-134024409D02*
X107293485Y-134167266D01*
X107293485Y-134167266D02*
X107245866Y-134262504D01*
X107245866Y-134262504D02*
X107150628Y-134310123D01*
X107150628Y-134310123D02*
X107103009Y-134310123D01*
X107103009Y-134310123D02*
X107007771Y-134262504D01*
X107007771Y-134262504D02*
X106960152Y-134167266D01*
X106960152Y-134167266D02*
X106960152Y-134024409D01*
X106960152Y-134024409D02*
X107007771Y-133929171D01*
X107579200Y-133072028D02*
X107626819Y-133167266D01*
X107626819Y-133167266D02*
X107626819Y-133357742D01*
X107626819Y-133357742D02*
X107579200Y-133452980D01*
X107579200Y-133452980D02*
X107483961Y-133500599D01*
X107483961Y-133500599D02*
X107103009Y-133500599D01*
X107103009Y-133500599D02*
X107007771Y-133452980D01*
X107007771Y-133452980D02*
X106960152Y-133357742D01*
X106960152Y-133357742D02*
X106960152Y-133167266D01*
X106960152Y-133167266D02*
X107007771Y-133072028D01*
X107007771Y-133072028D02*
X107103009Y-133024409D01*
X107103009Y-133024409D02*
X107198247Y-133024409D01*
X107198247Y-133024409D02*
X107293485Y-133500599D01*
X107341104Y-131881551D02*
X107341104Y-131405361D01*
X107626819Y-131976789D02*
X106626819Y-131643456D01*
X106626819Y-131643456D02*
X107626819Y-131310123D01*
X107626819Y-130976789D02*
X106960152Y-130976789D01*
X107055390Y-130976789D02*
X107007771Y-130929170D01*
X107007771Y-130929170D02*
X106960152Y-130833932D01*
X106960152Y-130833932D02*
X106960152Y-130691075D01*
X106960152Y-130691075D02*
X107007771Y-130595837D01*
X107007771Y-130595837D02*
X107103009Y-130548218D01*
X107103009Y-130548218D02*
X107626819Y-130548218D01*
X107103009Y-130548218D02*
X107007771Y-130500599D01*
X107007771Y-130500599D02*
X106960152Y-130405361D01*
X106960152Y-130405361D02*
X106960152Y-130262504D01*
X106960152Y-130262504D02*
X107007771Y-130167265D01*
X107007771Y-130167265D02*
X107103009Y-130119646D01*
X107103009Y-130119646D02*
X107626819Y-130119646D01*
X106960152Y-129643456D02*
X107960152Y-129643456D01*
X107007771Y-129643456D02*
X106960152Y-129548218D01*
X106960152Y-129548218D02*
X106960152Y-129357742D01*
X106960152Y-129357742D02*
X107007771Y-129262504D01*
X107007771Y-129262504D02*
X107055390Y-129214885D01*
X107055390Y-129214885D02*
X107150628Y-129167266D01*
X107150628Y-129167266D02*
X107436342Y-129167266D01*
X107436342Y-129167266D02*
X107531580Y-129214885D01*
X107531580Y-129214885D02*
X107579200Y-129262504D01*
X107579200Y-129262504D02*
X107626819Y-129357742D01*
X107626819Y-129357742D02*
X107626819Y-129548218D01*
X107626819Y-129548218D02*
X107579200Y-129643456D01*
X107626819Y-128595837D02*
X107579200Y-128691075D01*
X107579200Y-128691075D02*
X107483961Y-128738694D01*
X107483961Y-128738694D02*
X106626819Y-128738694D01*
X107626819Y-128214884D02*
X106960152Y-128214884D01*
X106626819Y-128214884D02*
X106674438Y-128262503D01*
X106674438Y-128262503D02*
X106722057Y-128214884D01*
X106722057Y-128214884D02*
X106674438Y-128167265D01*
X106674438Y-128167265D02*
X106626819Y-128214884D01*
X106626819Y-128214884D02*
X106722057Y-128214884D01*
X106960152Y-127881551D02*
X106960152Y-127500599D01*
X107626819Y-127738694D02*
X106769676Y-127738694D01*
X106769676Y-127738694D02*
X106674438Y-127691075D01*
X106674438Y-127691075D02*
X106626819Y-127595837D01*
X106626819Y-127595837D02*
X106626819Y-127500599D01*
X107626819Y-127167265D02*
X106960152Y-127167265D01*
X106626819Y-127167265D02*
X106674438Y-127214884D01*
X106674438Y-127214884D02*
X106722057Y-127167265D01*
X106722057Y-127167265D02*
X106674438Y-127119646D01*
X106674438Y-127119646D02*
X106626819Y-127167265D01*
X106626819Y-127167265D02*
X106722057Y-127167265D01*
X107579200Y-126310123D02*
X107626819Y-126405361D01*
X107626819Y-126405361D02*
X107626819Y-126595837D01*
X107626819Y-126595837D02*
X107579200Y-126691075D01*
X107579200Y-126691075D02*
X107483961Y-126738694D01*
X107483961Y-126738694D02*
X107103009Y-126738694D01*
X107103009Y-126738694D02*
X107007771Y-126691075D01*
X107007771Y-126691075D02*
X106960152Y-126595837D01*
X106960152Y-126595837D02*
X106960152Y-126405361D01*
X106960152Y-126405361D02*
X107007771Y-126310123D01*
X107007771Y-126310123D02*
X107103009Y-126262504D01*
X107103009Y-126262504D02*
X107198247Y-126262504D01*
X107198247Y-126262504D02*
X107293485Y-126738694D01*
X107626819Y-125833932D02*
X106960152Y-125833932D01*
X107150628Y-125833932D02*
X107055390Y-125786313D01*
X107055390Y-125786313D02*
X107007771Y-125738694D01*
X107007771Y-125738694D02*
X106960152Y-125643456D01*
X106960152Y-125643456D02*
X106960152Y-125548218D01*
X134461819Y-145029171D02*
X133461819Y-145029171D01*
X134461819Y-144600600D02*
X133461819Y-144600600D01*
X133461819Y-144600600D02*
X134461819Y-144086314D01*
X134461819Y-144086314D02*
X133461819Y-144086314D01*
X134080866Y-143657743D02*
X134080866Y-142972029D01*
X142461819Y-145029171D02*
X141461819Y-145029171D01*
X142461819Y-144600600D02*
X141461819Y-144600600D01*
X141461819Y-144600600D02*
X142461819Y-144086314D01*
X142461819Y-144086314D02*
X141461819Y-144086314D01*
X142080866Y-143657743D02*
X142080866Y-142972029D01*
X142461819Y-143314886D02*
X141699914Y-143314886D01*
D11*
X174792057Y-100917028D02*
X175134914Y-100917028D01*
X174963485Y-100917028D02*
X174963485Y-101517028D01*
X174963485Y-101517028D02*
X175020628Y-101431314D01*
X175020628Y-101431314D02*
X175077771Y-101374171D01*
X175077771Y-101374171D02*
X175134914Y-101345600D01*
X174163485Y-101517028D02*
X173963485Y-100917028D01*
X173963485Y-100917028D02*
X173763485Y-101517028D01*
X173563484Y-100917028D02*
X173563484Y-101517028D01*
X173277770Y-100917028D02*
X173277770Y-101517028D01*
X173277770Y-101517028D02*
X172934913Y-100917028D01*
X172934913Y-100917028D02*
X172934913Y-101517028D01*
X175134914Y-100487885D02*
X175106342Y-100516457D01*
X175106342Y-100516457D02*
X175049200Y-100545028D01*
X175049200Y-100545028D02*
X174906342Y-100545028D01*
X174906342Y-100545028D02*
X174849200Y-100516457D01*
X174849200Y-100516457D02*
X174820628Y-100487885D01*
X174820628Y-100487885D02*
X174792057Y-100430742D01*
X174792057Y-100430742D02*
X174792057Y-100373600D01*
X174792057Y-100373600D02*
X174820628Y-100287885D01*
X174820628Y-100287885D02*
X175163485Y-99945028D01*
X175163485Y-99945028D02*
X174792057Y-99945028D01*
X173963485Y-100545028D02*
X173849199Y-100545028D01*
X173849199Y-100545028D02*
X173792056Y-100516457D01*
X173792056Y-100516457D02*
X173734913Y-100459314D01*
X173734913Y-100459314D02*
X173706342Y-100345028D01*
X173706342Y-100345028D02*
X173706342Y-100145028D01*
X173706342Y-100145028D02*
X173734913Y-100030742D01*
X173734913Y-100030742D02*
X173792056Y-99973600D01*
X173792056Y-99973600D02*
X173849199Y-99945028D01*
X173849199Y-99945028D02*
X173963485Y-99945028D01*
X173963485Y-99945028D02*
X174020628Y-99973600D01*
X174020628Y-99973600D02*
X174077770Y-100030742D01*
X174077770Y-100030742D02*
X174106342Y-100145028D01*
X174106342Y-100145028D02*
X174106342Y-100345028D01*
X174106342Y-100345028D02*
X174077770Y-100459314D01*
X174077770Y-100459314D02*
X174020628Y-100516457D01*
X174020628Y-100516457D02*
X173963485Y-100545028D01*
X173449199Y-100173600D02*
X172992057Y-100173600D01*
X173220628Y-99945028D02*
X173220628Y-100402171D01*
X175163485Y-99573028D02*
X174792057Y-99573028D01*
X174792057Y-99573028D02*
X174992057Y-99344457D01*
X174992057Y-99344457D02*
X174906342Y-99344457D01*
X174906342Y-99344457D02*
X174849200Y-99315885D01*
X174849200Y-99315885D02*
X174820628Y-99287314D01*
X174820628Y-99287314D02*
X174792057Y-99230171D01*
X174792057Y-99230171D02*
X174792057Y-99087314D01*
X174792057Y-99087314D02*
X174820628Y-99030171D01*
X174820628Y-99030171D02*
X174849200Y-99001600D01*
X174849200Y-99001600D02*
X174906342Y-98973028D01*
X174906342Y-98973028D02*
X175077771Y-98973028D01*
X175077771Y-98973028D02*
X175134914Y-99001600D01*
X175134914Y-99001600D02*
X175163485Y-99030171D01*
X173734913Y-99030171D02*
X173763485Y-99001600D01*
X173763485Y-99001600D02*
X173849199Y-98973028D01*
X173849199Y-98973028D02*
X173906342Y-98973028D01*
X173906342Y-98973028D02*
X173992056Y-99001600D01*
X173992056Y-99001600D02*
X174049199Y-99058742D01*
X174049199Y-99058742D02*
X174077770Y-99115885D01*
X174077770Y-99115885D02*
X174106342Y-99230171D01*
X174106342Y-99230171D02*
X174106342Y-99315885D01*
X174106342Y-99315885D02*
X174077770Y-99430171D01*
X174077770Y-99430171D02*
X174049199Y-99487314D01*
X174049199Y-99487314D02*
X173992056Y-99544457D01*
X173992056Y-99544457D02*
X173906342Y-99573028D01*
X173906342Y-99573028D02*
X173849199Y-99573028D01*
X173849199Y-99573028D02*
X173763485Y-99544457D01*
X173763485Y-99544457D02*
X173734913Y-99515885D01*
X173363485Y-99573028D02*
X173249199Y-99573028D01*
X173249199Y-99573028D02*
X173192056Y-99544457D01*
X173192056Y-99544457D02*
X173134913Y-99487314D01*
X173134913Y-99487314D02*
X173106342Y-99373028D01*
X173106342Y-99373028D02*
X173106342Y-99173028D01*
X173106342Y-99173028D02*
X173134913Y-99058742D01*
X173134913Y-99058742D02*
X173192056Y-99001600D01*
X173192056Y-99001600D02*
X173249199Y-98973028D01*
X173249199Y-98973028D02*
X173363485Y-98973028D01*
X173363485Y-98973028D02*
X173420628Y-99001600D01*
X173420628Y-99001600D02*
X173477770Y-99058742D01*
X173477770Y-99058742D02*
X173506342Y-99173028D01*
X173506342Y-99173028D02*
X173506342Y-99373028D01*
X173506342Y-99373028D02*
X173477770Y-99487314D01*
X173477770Y-99487314D02*
X173420628Y-99544457D01*
X173420628Y-99544457D02*
X173363485Y-99573028D01*
X172849199Y-98973028D02*
X172849199Y-99573028D01*
X172849199Y-99573028D02*
X172649199Y-99144457D01*
X172649199Y-99144457D02*
X172449199Y-99573028D01*
X172449199Y-99573028D02*
X172449199Y-98973028D01*
X174849200Y-98401028D02*
X174849200Y-98001028D01*
X174992057Y-98629600D02*
X175134914Y-98201028D01*
X175134914Y-98201028D02*
X174763485Y-98201028D01*
X173963485Y-98601028D02*
X173849199Y-98601028D01*
X173849199Y-98601028D02*
X173792056Y-98572457D01*
X173792056Y-98572457D02*
X173734913Y-98515314D01*
X173734913Y-98515314D02*
X173706342Y-98401028D01*
X173706342Y-98401028D02*
X173706342Y-98201028D01*
X173706342Y-98201028D02*
X173734913Y-98086742D01*
X173734913Y-98086742D02*
X173792056Y-98029600D01*
X173792056Y-98029600D02*
X173849199Y-98001028D01*
X173849199Y-98001028D02*
X173963485Y-98001028D01*
X173963485Y-98001028D02*
X174020628Y-98029600D01*
X174020628Y-98029600D02*
X174077770Y-98086742D01*
X174077770Y-98086742D02*
X174106342Y-98201028D01*
X174106342Y-98201028D02*
X174106342Y-98401028D01*
X174106342Y-98401028D02*
X174077770Y-98515314D01*
X174077770Y-98515314D02*
X174020628Y-98572457D01*
X174020628Y-98572457D02*
X173963485Y-98601028D01*
X173449199Y-98229600D02*
X172992057Y-98229600D01*
X174820628Y-97629028D02*
X175106342Y-97629028D01*
X175106342Y-97629028D02*
X175134914Y-97343314D01*
X175134914Y-97343314D02*
X175106342Y-97371885D01*
X175106342Y-97371885D02*
X175049200Y-97400457D01*
X175049200Y-97400457D02*
X174906342Y-97400457D01*
X174906342Y-97400457D02*
X174849200Y-97371885D01*
X174849200Y-97371885D02*
X174820628Y-97343314D01*
X174820628Y-97343314D02*
X174792057Y-97286171D01*
X174792057Y-97286171D02*
X174792057Y-97143314D01*
X174792057Y-97143314D02*
X174820628Y-97086171D01*
X174820628Y-97086171D02*
X174849200Y-97057600D01*
X174849200Y-97057600D02*
X174906342Y-97029028D01*
X174906342Y-97029028D02*
X175049200Y-97029028D01*
X175049200Y-97029028D02*
X175106342Y-97057600D01*
X175106342Y-97057600D02*
X175134914Y-97086171D01*
X173763485Y-97600457D02*
X173820628Y-97629028D01*
X173820628Y-97629028D02*
X173906342Y-97629028D01*
X173906342Y-97629028D02*
X173992056Y-97600457D01*
X173992056Y-97600457D02*
X174049199Y-97543314D01*
X174049199Y-97543314D02*
X174077770Y-97486171D01*
X174077770Y-97486171D02*
X174106342Y-97371885D01*
X174106342Y-97371885D02*
X174106342Y-97286171D01*
X174106342Y-97286171D02*
X174077770Y-97171885D01*
X174077770Y-97171885D02*
X174049199Y-97114742D01*
X174049199Y-97114742D02*
X173992056Y-97057600D01*
X173992056Y-97057600D02*
X173906342Y-97029028D01*
X173906342Y-97029028D02*
X173849199Y-97029028D01*
X173849199Y-97029028D02*
X173763485Y-97057600D01*
X173763485Y-97057600D02*
X173734913Y-97086171D01*
X173734913Y-97086171D02*
X173734913Y-97286171D01*
X173734913Y-97286171D02*
X173849199Y-97286171D01*
X173477770Y-97029028D02*
X173477770Y-97629028D01*
X173477770Y-97629028D02*
X173134913Y-97029028D01*
X173134913Y-97029028D02*
X173134913Y-97629028D01*
X172849199Y-97029028D02*
X172849199Y-97629028D01*
X172849199Y-97629028D02*
X172706342Y-97629028D01*
X172706342Y-97629028D02*
X172620628Y-97600457D01*
X172620628Y-97600457D02*
X172563485Y-97543314D01*
X172563485Y-97543314D02*
X172534914Y-97486171D01*
X172534914Y-97486171D02*
X172506342Y-97371885D01*
X172506342Y-97371885D02*
X172506342Y-97286171D01*
X172506342Y-97286171D02*
X172534914Y-97171885D01*
X172534914Y-97171885D02*
X172563485Y-97114742D01*
X172563485Y-97114742D02*
X172620628Y-97057600D01*
X172620628Y-97057600D02*
X172706342Y-97029028D01*
X172706342Y-97029028D02*
X172849199Y-97029028D01*
D10*
X112461819Y-145029171D02*
X111461819Y-145029171D01*
X112461819Y-144600600D02*
X111461819Y-144600600D01*
X111461819Y-144600600D02*
X112461819Y-144086314D01*
X112461819Y-144086314D02*
X111461819Y-144086314D01*
X112080866Y-143657743D02*
X112080866Y-142972029D01*
X164461819Y-145029171D02*
X163461819Y-145029171D01*
X164461819Y-144600600D02*
X163461819Y-144600600D01*
X163461819Y-144600600D02*
X164461819Y-144086314D01*
X164461819Y-144086314D02*
X163461819Y-144086314D01*
X164080866Y-143657743D02*
X164080866Y-142972029D01*
X164461819Y-143314886D02*
X163699914Y-143314886D01*
X208461819Y-145029171D02*
X207461819Y-145029171D01*
X208461819Y-144600600D02*
X207461819Y-144600600D01*
X207461819Y-144600600D02*
X208461819Y-144086314D01*
X208461819Y-144086314D02*
X207461819Y-144086314D01*
X208080866Y-143657743D02*
X208080866Y-142972029D01*
X208461819Y-143314886D02*
X207699914Y-143314886D01*
X178461819Y-145029171D02*
X177461819Y-145029171D01*
X178461819Y-144600600D02*
X177461819Y-144600600D01*
X177461819Y-144600600D02*
X178461819Y-144086314D01*
X178461819Y-144086314D02*
X177461819Y-144086314D01*
X178080866Y-143657743D02*
X178080866Y-142972029D01*
D11*
X130792057Y-100917028D02*
X131134914Y-100917028D01*
X130963485Y-100917028D02*
X130963485Y-101517028D01*
X130963485Y-101517028D02*
X131020628Y-101431314D01*
X131020628Y-101431314D02*
X131077771Y-101374171D01*
X131077771Y-101374171D02*
X131134914Y-101345600D01*
X130163485Y-101517028D02*
X129963485Y-100917028D01*
X129963485Y-100917028D02*
X129763485Y-101517028D01*
X129563484Y-100917028D02*
X129563484Y-101517028D01*
X129277770Y-100917028D02*
X129277770Y-101517028D01*
X129277770Y-101517028D02*
X128934913Y-100917028D01*
X128934913Y-100917028D02*
X128934913Y-101517028D01*
X131134914Y-100487885D02*
X131106342Y-100516457D01*
X131106342Y-100516457D02*
X131049200Y-100545028D01*
X131049200Y-100545028D02*
X130906342Y-100545028D01*
X130906342Y-100545028D02*
X130849200Y-100516457D01*
X130849200Y-100516457D02*
X130820628Y-100487885D01*
X130820628Y-100487885D02*
X130792057Y-100430742D01*
X130792057Y-100430742D02*
X130792057Y-100373600D01*
X130792057Y-100373600D02*
X130820628Y-100287885D01*
X130820628Y-100287885D02*
X131163485Y-99945028D01*
X131163485Y-99945028D02*
X130792057Y-99945028D01*
X129963485Y-100545028D02*
X129849199Y-100545028D01*
X129849199Y-100545028D02*
X129792056Y-100516457D01*
X129792056Y-100516457D02*
X129734913Y-100459314D01*
X129734913Y-100459314D02*
X129706342Y-100345028D01*
X129706342Y-100345028D02*
X129706342Y-100145028D01*
X129706342Y-100145028D02*
X129734913Y-100030742D01*
X129734913Y-100030742D02*
X129792056Y-99973600D01*
X129792056Y-99973600D02*
X129849199Y-99945028D01*
X129849199Y-99945028D02*
X129963485Y-99945028D01*
X129963485Y-99945028D02*
X130020628Y-99973600D01*
X130020628Y-99973600D02*
X130077770Y-100030742D01*
X130077770Y-100030742D02*
X130106342Y-100145028D01*
X130106342Y-100145028D02*
X130106342Y-100345028D01*
X130106342Y-100345028D02*
X130077770Y-100459314D01*
X130077770Y-100459314D02*
X130020628Y-100516457D01*
X130020628Y-100516457D02*
X129963485Y-100545028D01*
X129449199Y-100173600D02*
X128992057Y-100173600D01*
X129220628Y-99945028D02*
X129220628Y-100402171D01*
X131163485Y-99573028D02*
X130792057Y-99573028D01*
X130792057Y-99573028D02*
X130992057Y-99344457D01*
X130992057Y-99344457D02*
X130906342Y-99344457D01*
X130906342Y-99344457D02*
X130849200Y-99315885D01*
X130849200Y-99315885D02*
X130820628Y-99287314D01*
X130820628Y-99287314D02*
X130792057Y-99230171D01*
X130792057Y-99230171D02*
X130792057Y-99087314D01*
X130792057Y-99087314D02*
X130820628Y-99030171D01*
X130820628Y-99030171D02*
X130849200Y-99001600D01*
X130849200Y-99001600D02*
X130906342Y-98973028D01*
X130906342Y-98973028D02*
X131077771Y-98973028D01*
X131077771Y-98973028D02*
X131134914Y-99001600D01*
X131134914Y-99001600D02*
X131163485Y-99030171D01*
X129734913Y-99030171D02*
X129763485Y-99001600D01*
X129763485Y-99001600D02*
X129849199Y-98973028D01*
X129849199Y-98973028D02*
X129906342Y-98973028D01*
X129906342Y-98973028D02*
X129992056Y-99001600D01*
X129992056Y-99001600D02*
X130049199Y-99058742D01*
X130049199Y-99058742D02*
X130077770Y-99115885D01*
X130077770Y-99115885D02*
X130106342Y-99230171D01*
X130106342Y-99230171D02*
X130106342Y-99315885D01*
X130106342Y-99315885D02*
X130077770Y-99430171D01*
X130077770Y-99430171D02*
X130049199Y-99487314D01*
X130049199Y-99487314D02*
X129992056Y-99544457D01*
X129992056Y-99544457D02*
X129906342Y-99573028D01*
X129906342Y-99573028D02*
X129849199Y-99573028D01*
X129849199Y-99573028D02*
X129763485Y-99544457D01*
X129763485Y-99544457D02*
X129734913Y-99515885D01*
X129363485Y-99573028D02*
X129249199Y-99573028D01*
X129249199Y-99573028D02*
X129192056Y-99544457D01*
X129192056Y-99544457D02*
X129134913Y-99487314D01*
X129134913Y-99487314D02*
X129106342Y-99373028D01*
X129106342Y-99373028D02*
X129106342Y-99173028D01*
X129106342Y-99173028D02*
X129134913Y-99058742D01*
X129134913Y-99058742D02*
X129192056Y-99001600D01*
X129192056Y-99001600D02*
X129249199Y-98973028D01*
X129249199Y-98973028D02*
X129363485Y-98973028D01*
X129363485Y-98973028D02*
X129420628Y-99001600D01*
X129420628Y-99001600D02*
X129477770Y-99058742D01*
X129477770Y-99058742D02*
X129506342Y-99173028D01*
X129506342Y-99173028D02*
X129506342Y-99373028D01*
X129506342Y-99373028D02*
X129477770Y-99487314D01*
X129477770Y-99487314D02*
X129420628Y-99544457D01*
X129420628Y-99544457D02*
X129363485Y-99573028D01*
X128849199Y-98973028D02*
X128849199Y-99573028D01*
X128849199Y-99573028D02*
X128649199Y-99144457D01*
X128649199Y-99144457D02*
X128449199Y-99573028D01*
X128449199Y-99573028D02*
X128449199Y-98973028D01*
X130849200Y-98401028D02*
X130849200Y-98001028D01*
X130992057Y-98629600D02*
X131134914Y-98201028D01*
X131134914Y-98201028D02*
X130763485Y-98201028D01*
X129963485Y-98601028D02*
X129849199Y-98601028D01*
X129849199Y-98601028D02*
X129792056Y-98572457D01*
X129792056Y-98572457D02*
X129734913Y-98515314D01*
X129734913Y-98515314D02*
X129706342Y-98401028D01*
X129706342Y-98401028D02*
X129706342Y-98201028D01*
X129706342Y-98201028D02*
X129734913Y-98086742D01*
X129734913Y-98086742D02*
X129792056Y-98029600D01*
X129792056Y-98029600D02*
X129849199Y-98001028D01*
X129849199Y-98001028D02*
X129963485Y-98001028D01*
X129963485Y-98001028D02*
X130020628Y-98029600D01*
X130020628Y-98029600D02*
X130077770Y-98086742D01*
X130077770Y-98086742D02*
X130106342Y-98201028D01*
X130106342Y-98201028D02*
X130106342Y-98401028D01*
X130106342Y-98401028D02*
X130077770Y-98515314D01*
X130077770Y-98515314D02*
X130020628Y-98572457D01*
X130020628Y-98572457D02*
X129963485Y-98601028D01*
X129449199Y-98229600D02*
X128992057Y-98229600D01*
X130820628Y-97629028D02*
X131106342Y-97629028D01*
X131106342Y-97629028D02*
X131134914Y-97343314D01*
X131134914Y-97343314D02*
X131106342Y-97371885D01*
X131106342Y-97371885D02*
X131049200Y-97400457D01*
X131049200Y-97400457D02*
X130906342Y-97400457D01*
X130906342Y-97400457D02*
X130849200Y-97371885D01*
X130849200Y-97371885D02*
X130820628Y-97343314D01*
X130820628Y-97343314D02*
X130792057Y-97286171D01*
X130792057Y-97286171D02*
X130792057Y-97143314D01*
X130792057Y-97143314D02*
X130820628Y-97086171D01*
X130820628Y-97086171D02*
X130849200Y-97057600D01*
X130849200Y-97057600D02*
X130906342Y-97029028D01*
X130906342Y-97029028D02*
X131049200Y-97029028D01*
X131049200Y-97029028D02*
X131106342Y-97057600D01*
X131106342Y-97057600D02*
X131134914Y-97086171D01*
X129763485Y-97600457D02*
X129820628Y-97629028D01*
X129820628Y-97629028D02*
X129906342Y-97629028D01*
X129906342Y-97629028D02*
X129992056Y-97600457D01*
X129992056Y-97600457D02*
X130049199Y-97543314D01*
X130049199Y-97543314D02*
X130077770Y-97486171D01*
X130077770Y-97486171D02*
X130106342Y-97371885D01*
X130106342Y-97371885D02*
X130106342Y-97286171D01*
X130106342Y-97286171D02*
X130077770Y-97171885D01*
X130077770Y-97171885D02*
X130049199Y-97114742D01*
X130049199Y-97114742D02*
X129992056Y-97057600D01*
X129992056Y-97057600D02*
X129906342Y-97029028D01*
X129906342Y-97029028D02*
X129849199Y-97029028D01*
X129849199Y-97029028D02*
X129763485Y-97057600D01*
X129763485Y-97057600D02*
X129734913Y-97086171D01*
X129734913Y-97086171D02*
X129734913Y-97286171D01*
X129734913Y-97286171D02*
X129849199Y-97286171D01*
X129477770Y-97029028D02*
X129477770Y-97629028D01*
X129477770Y-97629028D02*
X129134913Y-97029028D01*
X129134913Y-97029028D02*
X129134913Y-97629028D01*
X128849199Y-97029028D02*
X128849199Y-97629028D01*
X128849199Y-97629028D02*
X128706342Y-97629028D01*
X128706342Y-97629028D02*
X128620628Y-97600457D01*
X128620628Y-97600457D02*
X128563485Y-97543314D01*
X128563485Y-97543314D02*
X128534914Y-97486171D01*
X128534914Y-97486171D02*
X128506342Y-97371885D01*
X128506342Y-97371885D02*
X128506342Y-97286171D01*
X128506342Y-97286171D02*
X128534914Y-97171885D01*
X128534914Y-97171885D02*
X128563485Y-97114742D01*
X128563485Y-97114742D02*
X128620628Y-97057600D01*
X128620628Y-97057600D02*
X128706342Y-97029028D01*
X128706342Y-97029028D02*
X128849199Y-97029028D01*
X108792057Y-100917028D02*
X109134914Y-100917028D01*
X108963485Y-100917028D02*
X108963485Y-101517028D01*
X108963485Y-101517028D02*
X109020628Y-101431314D01*
X109020628Y-101431314D02*
X109077771Y-101374171D01*
X109077771Y-101374171D02*
X109134914Y-101345600D01*
X108163485Y-101517028D02*
X107963485Y-100917028D01*
X107963485Y-100917028D02*
X107763485Y-101517028D01*
X107563484Y-100917028D02*
X107563484Y-101517028D01*
X107277770Y-100917028D02*
X107277770Y-101517028D01*
X107277770Y-101517028D02*
X106934913Y-100917028D01*
X106934913Y-100917028D02*
X106934913Y-101517028D01*
X109134914Y-100487885D02*
X109106342Y-100516457D01*
X109106342Y-100516457D02*
X109049200Y-100545028D01*
X109049200Y-100545028D02*
X108906342Y-100545028D01*
X108906342Y-100545028D02*
X108849200Y-100516457D01*
X108849200Y-100516457D02*
X108820628Y-100487885D01*
X108820628Y-100487885D02*
X108792057Y-100430742D01*
X108792057Y-100430742D02*
X108792057Y-100373600D01*
X108792057Y-100373600D02*
X108820628Y-100287885D01*
X108820628Y-100287885D02*
X109163485Y-99945028D01*
X109163485Y-99945028D02*
X108792057Y-99945028D01*
X107963485Y-100545028D02*
X107849199Y-100545028D01*
X107849199Y-100545028D02*
X107792056Y-100516457D01*
X107792056Y-100516457D02*
X107734913Y-100459314D01*
X107734913Y-100459314D02*
X107706342Y-100345028D01*
X107706342Y-100345028D02*
X107706342Y-100145028D01*
X107706342Y-100145028D02*
X107734913Y-100030742D01*
X107734913Y-100030742D02*
X107792056Y-99973600D01*
X107792056Y-99973600D02*
X107849199Y-99945028D01*
X107849199Y-99945028D02*
X107963485Y-99945028D01*
X107963485Y-99945028D02*
X108020628Y-99973600D01*
X108020628Y-99973600D02*
X108077770Y-100030742D01*
X108077770Y-100030742D02*
X108106342Y-100145028D01*
X108106342Y-100145028D02*
X108106342Y-100345028D01*
X108106342Y-100345028D02*
X108077770Y-100459314D01*
X108077770Y-100459314D02*
X108020628Y-100516457D01*
X108020628Y-100516457D02*
X107963485Y-100545028D01*
X107449199Y-100173600D02*
X106992057Y-100173600D01*
X107220628Y-99945028D02*
X107220628Y-100402171D01*
X109163485Y-99573028D02*
X108792057Y-99573028D01*
X108792057Y-99573028D02*
X108992057Y-99344457D01*
X108992057Y-99344457D02*
X108906342Y-99344457D01*
X108906342Y-99344457D02*
X108849200Y-99315885D01*
X108849200Y-99315885D02*
X108820628Y-99287314D01*
X108820628Y-99287314D02*
X108792057Y-99230171D01*
X108792057Y-99230171D02*
X108792057Y-99087314D01*
X108792057Y-99087314D02*
X108820628Y-99030171D01*
X108820628Y-99030171D02*
X108849200Y-99001600D01*
X108849200Y-99001600D02*
X108906342Y-98973028D01*
X108906342Y-98973028D02*
X109077771Y-98973028D01*
X109077771Y-98973028D02*
X109134914Y-99001600D01*
X109134914Y-99001600D02*
X109163485Y-99030171D01*
X107734913Y-99030171D02*
X107763485Y-99001600D01*
X107763485Y-99001600D02*
X107849199Y-98973028D01*
X107849199Y-98973028D02*
X107906342Y-98973028D01*
X107906342Y-98973028D02*
X107992056Y-99001600D01*
X107992056Y-99001600D02*
X108049199Y-99058742D01*
X108049199Y-99058742D02*
X108077770Y-99115885D01*
X108077770Y-99115885D02*
X108106342Y-99230171D01*
X108106342Y-99230171D02*
X108106342Y-99315885D01*
X108106342Y-99315885D02*
X108077770Y-99430171D01*
X108077770Y-99430171D02*
X108049199Y-99487314D01*
X108049199Y-99487314D02*
X107992056Y-99544457D01*
X107992056Y-99544457D02*
X107906342Y-99573028D01*
X107906342Y-99573028D02*
X107849199Y-99573028D01*
X107849199Y-99573028D02*
X107763485Y-99544457D01*
X107763485Y-99544457D02*
X107734913Y-99515885D01*
X107363485Y-99573028D02*
X107249199Y-99573028D01*
X107249199Y-99573028D02*
X107192056Y-99544457D01*
X107192056Y-99544457D02*
X107134913Y-99487314D01*
X107134913Y-99487314D02*
X107106342Y-99373028D01*
X107106342Y-99373028D02*
X107106342Y-99173028D01*
X107106342Y-99173028D02*
X107134913Y-99058742D01*
X107134913Y-99058742D02*
X107192056Y-99001600D01*
X107192056Y-99001600D02*
X107249199Y-98973028D01*
X107249199Y-98973028D02*
X107363485Y-98973028D01*
X107363485Y-98973028D02*
X107420628Y-99001600D01*
X107420628Y-99001600D02*
X107477770Y-99058742D01*
X107477770Y-99058742D02*
X107506342Y-99173028D01*
X107506342Y-99173028D02*
X107506342Y-99373028D01*
X107506342Y-99373028D02*
X107477770Y-99487314D01*
X107477770Y-99487314D02*
X107420628Y-99544457D01*
X107420628Y-99544457D02*
X107363485Y-99573028D01*
X106849199Y-98973028D02*
X106849199Y-99573028D01*
X106849199Y-99573028D02*
X106649199Y-99144457D01*
X106649199Y-99144457D02*
X106449199Y-99573028D01*
X106449199Y-99573028D02*
X106449199Y-98973028D01*
X108849200Y-98401028D02*
X108849200Y-98001028D01*
X108992057Y-98629600D02*
X109134914Y-98201028D01*
X109134914Y-98201028D02*
X108763485Y-98201028D01*
X107963485Y-98601028D02*
X107849199Y-98601028D01*
X107849199Y-98601028D02*
X107792056Y-98572457D01*
X107792056Y-98572457D02*
X107734913Y-98515314D01*
X107734913Y-98515314D02*
X107706342Y-98401028D01*
X107706342Y-98401028D02*
X107706342Y-98201028D01*
X107706342Y-98201028D02*
X107734913Y-98086742D01*
X107734913Y-98086742D02*
X107792056Y-98029600D01*
X107792056Y-98029600D02*
X107849199Y-98001028D01*
X107849199Y-98001028D02*
X107963485Y-98001028D01*
X107963485Y-98001028D02*
X108020628Y-98029600D01*
X108020628Y-98029600D02*
X108077770Y-98086742D01*
X108077770Y-98086742D02*
X108106342Y-98201028D01*
X108106342Y-98201028D02*
X108106342Y-98401028D01*
X108106342Y-98401028D02*
X108077770Y-98515314D01*
X108077770Y-98515314D02*
X108020628Y-98572457D01*
X108020628Y-98572457D02*
X107963485Y-98601028D01*
X107449199Y-98229600D02*
X106992057Y-98229600D01*
X108820628Y-97629028D02*
X109106342Y-97629028D01*
X109106342Y-97629028D02*
X109134914Y-97343314D01*
X109134914Y-97343314D02*
X109106342Y-97371885D01*
X109106342Y-97371885D02*
X109049200Y-97400457D01*
X109049200Y-97400457D02*
X108906342Y-97400457D01*
X108906342Y-97400457D02*
X108849200Y-97371885D01*
X108849200Y-97371885D02*
X108820628Y-97343314D01*
X108820628Y-97343314D02*
X108792057Y-97286171D01*
X108792057Y-97286171D02*
X108792057Y-97143314D01*
X108792057Y-97143314D02*
X108820628Y-97086171D01*
X108820628Y-97086171D02*
X108849200Y-97057600D01*
X108849200Y-97057600D02*
X108906342Y-97029028D01*
X108906342Y-97029028D02*
X109049200Y-97029028D01*
X109049200Y-97029028D02*
X109106342Y-97057600D01*
X109106342Y-97057600D02*
X109134914Y-97086171D01*
X107763485Y-97600457D02*
X107820628Y-97629028D01*
X107820628Y-97629028D02*
X107906342Y-97629028D01*
X107906342Y-97629028D02*
X107992056Y-97600457D01*
X107992056Y-97600457D02*
X108049199Y-97543314D01*
X108049199Y-97543314D02*
X108077770Y-97486171D01*
X108077770Y-97486171D02*
X108106342Y-97371885D01*
X108106342Y-97371885D02*
X108106342Y-97286171D01*
X108106342Y-97286171D02*
X108077770Y-97171885D01*
X108077770Y-97171885D02*
X108049199Y-97114742D01*
X108049199Y-97114742D02*
X107992056Y-97057600D01*
X107992056Y-97057600D02*
X107906342Y-97029028D01*
X107906342Y-97029028D02*
X107849199Y-97029028D01*
X107849199Y-97029028D02*
X107763485Y-97057600D01*
X107763485Y-97057600D02*
X107734913Y-97086171D01*
X107734913Y-97086171D02*
X107734913Y-97286171D01*
X107734913Y-97286171D02*
X107849199Y-97286171D01*
X107477770Y-97029028D02*
X107477770Y-97629028D01*
X107477770Y-97629028D02*
X107134913Y-97029028D01*
X107134913Y-97029028D02*
X107134913Y-97629028D01*
X106849199Y-97029028D02*
X106849199Y-97629028D01*
X106849199Y-97629028D02*
X106706342Y-97629028D01*
X106706342Y-97629028D02*
X106620628Y-97600457D01*
X106620628Y-97600457D02*
X106563485Y-97543314D01*
X106563485Y-97543314D02*
X106534914Y-97486171D01*
X106534914Y-97486171D02*
X106506342Y-97371885D01*
X106506342Y-97371885D02*
X106506342Y-97286171D01*
X106506342Y-97286171D02*
X106534914Y-97171885D01*
X106534914Y-97171885D02*
X106563485Y-97114742D01*
X106563485Y-97114742D02*
X106620628Y-97057600D01*
X106620628Y-97057600D02*
X106706342Y-97029028D01*
X106706342Y-97029028D02*
X106849199Y-97029028D01*
D10*
X152710152Y-145107742D02*
X153376819Y-144869647D01*
X153376819Y-144869647D02*
X152710152Y-144631552D01*
X153376819Y-143726790D02*
X153376819Y-144298218D01*
X153376819Y-144012504D02*
X152376819Y-144012504D01*
X152376819Y-144012504D02*
X152519676Y-144107742D01*
X152519676Y-144107742D02*
X152614914Y-144202980D01*
X152614914Y-144202980D02*
X152662533Y-144298218D01*
X153281580Y-143298218D02*
X153329200Y-143250599D01*
X153329200Y-143250599D02*
X153376819Y-143298218D01*
X153376819Y-143298218D02*
X153329200Y-143345837D01*
X153329200Y-143345837D02*
X153281580Y-143298218D01*
X153281580Y-143298218D02*
X153376819Y-143298218D01*
X152376819Y-142631552D02*
X152376819Y-142536314D01*
X152376819Y-142536314D02*
X152424438Y-142441076D01*
X152424438Y-142441076D02*
X152472057Y-142393457D01*
X152472057Y-142393457D02*
X152567295Y-142345838D01*
X152567295Y-142345838D02*
X152757771Y-142298219D01*
X152757771Y-142298219D02*
X152995866Y-142298219D01*
X152995866Y-142298219D02*
X153186342Y-142345838D01*
X153186342Y-142345838D02*
X153281580Y-142393457D01*
X153281580Y-142393457D02*
X153329200Y-142441076D01*
X153329200Y-142441076D02*
X153376819Y-142536314D01*
X153376819Y-142536314D02*
X153376819Y-142631552D01*
X153376819Y-142631552D02*
X153329200Y-142726790D01*
X153329200Y-142726790D02*
X153281580Y-142774409D01*
X153281580Y-142774409D02*
X153186342Y-142822028D01*
X153186342Y-142822028D02*
X152995866Y-142869647D01*
X152995866Y-142869647D02*
X152757771Y-142869647D01*
X152757771Y-142869647D02*
X152567295Y-142822028D01*
X152567295Y-142822028D02*
X152472057Y-142774409D01*
X152472057Y-142774409D02*
X152424438Y-142726790D01*
X152424438Y-142726790D02*
X152376819Y-142631552D01*
X153376819Y-140583933D02*
X153376819Y-141155361D01*
X153376819Y-140869647D02*
X152376819Y-140869647D01*
X152376819Y-140869647D02*
X152519676Y-140964885D01*
X152519676Y-140964885D02*
X152614914Y-141060123D01*
X152614914Y-141060123D02*
X152662533Y-141155361D01*
X152376819Y-139964885D02*
X152376819Y-139869647D01*
X152376819Y-139869647D02*
X152424438Y-139774409D01*
X152424438Y-139774409D02*
X152472057Y-139726790D01*
X152472057Y-139726790D02*
X152567295Y-139679171D01*
X152567295Y-139679171D02*
X152757771Y-139631552D01*
X152757771Y-139631552D02*
X152995866Y-139631552D01*
X152995866Y-139631552D02*
X153186342Y-139679171D01*
X153186342Y-139679171D02*
X153281580Y-139726790D01*
X153281580Y-139726790D02*
X153329200Y-139774409D01*
X153329200Y-139774409D02*
X153376819Y-139869647D01*
X153376819Y-139869647D02*
X153376819Y-139964885D01*
X153376819Y-139964885D02*
X153329200Y-140060123D01*
X153329200Y-140060123D02*
X153281580Y-140107742D01*
X153281580Y-140107742D02*
X153186342Y-140155361D01*
X153186342Y-140155361D02*
X152995866Y-140202980D01*
X152995866Y-140202980D02*
X152757771Y-140202980D01*
X152757771Y-140202980D02*
X152567295Y-140155361D01*
X152567295Y-140155361D02*
X152472057Y-140107742D01*
X152472057Y-140107742D02*
X152424438Y-140060123D01*
X152424438Y-140060123D02*
X152376819Y-139964885D01*
X153281580Y-139202980D02*
X153329200Y-139155361D01*
X153329200Y-139155361D02*
X153376819Y-139202980D01*
X153376819Y-139202980D02*
X153329200Y-139250599D01*
X153329200Y-139250599D02*
X153281580Y-139202980D01*
X153281580Y-139202980D02*
X153376819Y-139202980D01*
X152472057Y-138774409D02*
X152424438Y-138726790D01*
X152424438Y-138726790D02*
X152376819Y-138631552D01*
X152376819Y-138631552D02*
X152376819Y-138393457D01*
X152376819Y-138393457D02*
X152424438Y-138298219D01*
X152424438Y-138298219D02*
X152472057Y-138250600D01*
X152472057Y-138250600D02*
X152567295Y-138202981D01*
X152567295Y-138202981D02*
X152662533Y-138202981D01*
X152662533Y-138202981D02*
X152805390Y-138250600D01*
X152805390Y-138250600D02*
X153376819Y-138822028D01*
X153376819Y-138822028D02*
X153376819Y-138202981D01*
X152376819Y-137583933D02*
X152376819Y-137488695D01*
X152376819Y-137488695D02*
X152424438Y-137393457D01*
X152424438Y-137393457D02*
X152472057Y-137345838D01*
X152472057Y-137345838D02*
X152567295Y-137298219D01*
X152567295Y-137298219D02*
X152757771Y-137250600D01*
X152757771Y-137250600D02*
X152995866Y-137250600D01*
X152995866Y-137250600D02*
X153186342Y-137298219D01*
X153186342Y-137298219D02*
X153281580Y-137345838D01*
X153281580Y-137345838D02*
X153329200Y-137393457D01*
X153329200Y-137393457D02*
X153376819Y-137488695D01*
X153376819Y-137488695D02*
X153376819Y-137583933D01*
X153376819Y-137583933D02*
X153329200Y-137679171D01*
X153329200Y-137679171D02*
X153281580Y-137726790D01*
X153281580Y-137726790D02*
X153186342Y-137774409D01*
X153186342Y-137774409D02*
X152995866Y-137822028D01*
X152995866Y-137822028D02*
X152757771Y-137822028D01*
X152757771Y-137822028D02*
X152567295Y-137774409D01*
X152567295Y-137774409D02*
X152472057Y-137726790D01*
X152472057Y-137726790D02*
X152424438Y-137679171D01*
X152424438Y-137679171D02*
X152376819Y-137583933D01*
X152472057Y-136869647D02*
X152424438Y-136822028D01*
X152424438Y-136822028D02*
X152376819Y-136726790D01*
X152376819Y-136726790D02*
X152376819Y-136488695D01*
X152376819Y-136488695D02*
X152424438Y-136393457D01*
X152424438Y-136393457D02*
X152472057Y-136345838D01*
X152472057Y-136345838D02*
X152567295Y-136298219D01*
X152567295Y-136298219D02*
X152662533Y-136298219D01*
X152662533Y-136298219D02*
X152805390Y-136345838D01*
X152805390Y-136345838D02*
X153376819Y-136917266D01*
X153376819Y-136917266D02*
X153376819Y-136298219D01*
X152376819Y-135964885D02*
X152376819Y-135345838D01*
X152376819Y-135345838D02*
X152757771Y-135679171D01*
X152757771Y-135679171D02*
X152757771Y-135536314D01*
X152757771Y-135536314D02*
X152805390Y-135441076D01*
X152805390Y-135441076D02*
X152853009Y-135393457D01*
X152853009Y-135393457D02*
X152948247Y-135345838D01*
X152948247Y-135345838D02*
X153186342Y-135345838D01*
X153186342Y-135345838D02*
X153281580Y-135393457D01*
X153281580Y-135393457D02*
X153329200Y-135441076D01*
X153329200Y-135441076D02*
X153376819Y-135536314D01*
X153376819Y-135536314D02*
X153376819Y-135822028D01*
X153376819Y-135822028D02*
X153329200Y-135917266D01*
X153329200Y-135917266D02*
X153281580Y-135964885D01*
X194626819Y-144786314D02*
X194626819Y-145262504D01*
X194626819Y-145262504D02*
X195103009Y-145310123D01*
X195103009Y-145310123D02*
X195055390Y-145262504D01*
X195055390Y-145262504D02*
X195007771Y-145167266D01*
X195007771Y-145167266D02*
X195007771Y-144929171D01*
X195007771Y-144929171D02*
X195055390Y-144833933D01*
X195055390Y-144833933D02*
X195103009Y-144786314D01*
X195103009Y-144786314D02*
X195198247Y-144738695D01*
X195198247Y-144738695D02*
X195436342Y-144738695D01*
X195436342Y-144738695D02*
X195531580Y-144786314D01*
X195531580Y-144786314D02*
X195579200Y-144833933D01*
X195579200Y-144833933D02*
X195626819Y-144929171D01*
X195626819Y-144929171D02*
X195626819Y-145167266D01*
X195626819Y-145167266D02*
X195579200Y-145262504D01*
X195579200Y-145262504D02*
X195531580Y-145310123D01*
X194626819Y-143833933D02*
X194626819Y-144310123D01*
X194626819Y-144310123D02*
X195103009Y-144357742D01*
X195103009Y-144357742D02*
X195055390Y-144310123D01*
X195055390Y-144310123D02*
X195007771Y-144214885D01*
X195007771Y-144214885D02*
X195007771Y-143976790D01*
X195007771Y-143976790D02*
X195055390Y-143881552D01*
X195055390Y-143881552D02*
X195103009Y-143833933D01*
X195103009Y-143833933D02*
X195198247Y-143786314D01*
X195198247Y-143786314D02*
X195436342Y-143786314D01*
X195436342Y-143786314D02*
X195531580Y-143833933D01*
X195531580Y-143833933D02*
X195579200Y-143881552D01*
X195579200Y-143881552D02*
X195626819Y-143976790D01*
X195626819Y-143976790D02*
X195626819Y-144214885D01*
X195626819Y-144214885D02*
X195579200Y-144310123D01*
X195579200Y-144310123D02*
X195531580Y-144357742D01*
X195626819Y-142929171D02*
X194626819Y-142929171D01*
X195579200Y-142929171D02*
X195626819Y-143024409D01*
X195626819Y-143024409D02*
X195626819Y-143214885D01*
X195626819Y-143214885D02*
X195579200Y-143310123D01*
X195579200Y-143310123D02*
X195531580Y-143357742D01*
X195531580Y-143357742D02*
X195436342Y-143405361D01*
X195436342Y-143405361D02*
X195150628Y-143405361D01*
X195150628Y-143405361D02*
X195055390Y-143357742D01*
X195055390Y-143357742D02*
X195007771Y-143310123D01*
X195007771Y-143310123D02*
X194960152Y-143214885D01*
X194960152Y-143214885D02*
X194960152Y-143024409D01*
X194960152Y-143024409D02*
X195007771Y-142929171D01*
X195103009Y-142119647D02*
X195150628Y-141976790D01*
X195150628Y-141976790D02*
X195198247Y-141929171D01*
X195198247Y-141929171D02*
X195293485Y-141881552D01*
X195293485Y-141881552D02*
X195436342Y-141881552D01*
X195436342Y-141881552D02*
X195531580Y-141929171D01*
X195531580Y-141929171D02*
X195579200Y-141976790D01*
X195579200Y-141976790D02*
X195626819Y-142072028D01*
X195626819Y-142072028D02*
X195626819Y-142452980D01*
X195626819Y-142452980D02*
X194626819Y-142452980D01*
X194626819Y-142452980D02*
X194626819Y-142119647D01*
X194626819Y-142119647D02*
X194674438Y-142024409D01*
X194674438Y-142024409D02*
X194722057Y-141976790D01*
X194722057Y-141976790D02*
X194817295Y-141929171D01*
X194817295Y-141929171D02*
X194912533Y-141929171D01*
X194912533Y-141929171D02*
X195007771Y-141976790D01*
X195007771Y-141976790D02*
X195055390Y-142024409D01*
X195055390Y-142024409D02*
X195103009Y-142119647D01*
X195103009Y-142119647D02*
X195103009Y-142452980D01*
X195626819Y-140214885D02*
X195626819Y-140691075D01*
X195626819Y-140691075D02*
X194626819Y-140691075D01*
X195626819Y-139738694D02*
X195579200Y-139833932D01*
X195579200Y-139833932D02*
X195531580Y-139881551D01*
X195531580Y-139881551D02*
X195436342Y-139929170D01*
X195436342Y-139929170D02*
X195150628Y-139929170D01*
X195150628Y-139929170D02*
X195055390Y-139881551D01*
X195055390Y-139881551D02*
X195007771Y-139833932D01*
X195007771Y-139833932D02*
X194960152Y-139738694D01*
X194960152Y-139738694D02*
X194960152Y-139595837D01*
X194960152Y-139595837D02*
X195007771Y-139500599D01*
X195007771Y-139500599D02*
X195055390Y-139452980D01*
X195055390Y-139452980D02*
X195150628Y-139405361D01*
X195150628Y-139405361D02*
X195436342Y-139405361D01*
X195436342Y-139405361D02*
X195531580Y-139452980D01*
X195531580Y-139452980D02*
X195579200Y-139500599D01*
X195579200Y-139500599D02*
X195626819Y-139595837D01*
X195626819Y-139595837D02*
X195626819Y-139738694D01*
X194960152Y-139072027D02*
X195626819Y-138881551D01*
X195626819Y-138881551D02*
X195150628Y-138691075D01*
X195150628Y-138691075D02*
X195626819Y-138500599D01*
X195626819Y-138500599D02*
X194960152Y-138310123D01*
X195245866Y-137929170D02*
X195245866Y-137167266D01*
X195626819Y-136691075D02*
X194626819Y-136691075D01*
X194626819Y-136691075D02*
X195626819Y-136119647D01*
X195626819Y-136119647D02*
X194626819Y-136119647D01*
X195626819Y-135500599D02*
X195579200Y-135595837D01*
X195579200Y-135595837D02*
X195531580Y-135643456D01*
X195531580Y-135643456D02*
X195436342Y-135691075D01*
X195436342Y-135691075D02*
X195150628Y-135691075D01*
X195150628Y-135691075D02*
X195055390Y-135643456D01*
X195055390Y-135643456D02*
X195007771Y-135595837D01*
X195007771Y-135595837D02*
X194960152Y-135500599D01*
X194960152Y-135500599D02*
X194960152Y-135357742D01*
X194960152Y-135357742D02*
X195007771Y-135262504D01*
X195007771Y-135262504D02*
X195055390Y-135214885D01*
X195055390Y-135214885D02*
X195150628Y-135167266D01*
X195150628Y-135167266D02*
X195436342Y-135167266D01*
X195436342Y-135167266D02*
X195531580Y-135214885D01*
X195531580Y-135214885D02*
X195579200Y-135262504D01*
X195579200Y-135262504D02*
X195626819Y-135357742D01*
X195626819Y-135357742D02*
X195626819Y-135500599D01*
X195626819Y-134738694D02*
X194960152Y-134738694D01*
X194626819Y-134738694D02*
X194674438Y-134786313D01*
X194674438Y-134786313D02*
X194722057Y-134738694D01*
X194722057Y-134738694D02*
X194674438Y-134691075D01*
X194674438Y-134691075D02*
X194626819Y-134738694D01*
X194626819Y-134738694D02*
X194722057Y-134738694D01*
X195579200Y-134310123D02*
X195626819Y-134214885D01*
X195626819Y-134214885D02*
X195626819Y-134024409D01*
X195626819Y-134024409D02*
X195579200Y-133929171D01*
X195579200Y-133929171D02*
X195483961Y-133881552D01*
X195483961Y-133881552D02*
X195436342Y-133881552D01*
X195436342Y-133881552D02*
X195341104Y-133929171D01*
X195341104Y-133929171D02*
X195293485Y-134024409D01*
X195293485Y-134024409D02*
X195293485Y-134167266D01*
X195293485Y-134167266D02*
X195245866Y-134262504D01*
X195245866Y-134262504D02*
X195150628Y-134310123D01*
X195150628Y-134310123D02*
X195103009Y-134310123D01*
X195103009Y-134310123D02*
X195007771Y-134262504D01*
X195007771Y-134262504D02*
X194960152Y-134167266D01*
X194960152Y-134167266D02*
X194960152Y-134024409D01*
X194960152Y-134024409D02*
X195007771Y-133929171D01*
X195579200Y-133072028D02*
X195626819Y-133167266D01*
X195626819Y-133167266D02*
X195626819Y-133357742D01*
X195626819Y-133357742D02*
X195579200Y-133452980D01*
X195579200Y-133452980D02*
X195483961Y-133500599D01*
X195483961Y-133500599D02*
X195103009Y-133500599D01*
X195103009Y-133500599D02*
X195007771Y-133452980D01*
X195007771Y-133452980D02*
X194960152Y-133357742D01*
X194960152Y-133357742D02*
X194960152Y-133167266D01*
X194960152Y-133167266D02*
X195007771Y-133072028D01*
X195007771Y-133072028D02*
X195103009Y-133024409D01*
X195103009Y-133024409D02*
X195198247Y-133024409D01*
X195198247Y-133024409D02*
X195293485Y-133500599D01*
X195341104Y-131881551D02*
X195341104Y-131405361D01*
X195626819Y-131976789D02*
X194626819Y-131643456D01*
X194626819Y-131643456D02*
X195626819Y-131310123D01*
X195626819Y-130976789D02*
X194960152Y-130976789D01*
X195055390Y-130976789D02*
X195007771Y-130929170D01*
X195007771Y-130929170D02*
X194960152Y-130833932D01*
X194960152Y-130833932D02*
X194960152Y-130691075D01*
X194960152Y-130691075D02*
X195007771Y-130595837D01*
X195007771Y-130595837D02*
X195103009Y-130548218D01*
X195103009Y-130548218D02*
X195626819Y-130548218D01*
X195103009Y-130548218D02*
X195007771Y-130500599D01*
X195007771Y-130500599D02*
X194960152Y-130405361D01*
X194960152Y-130405361D02*
X194960152Y-130262504D01*
X194960152Y-130262504D02*
X195007771Y-130167265D01*
X195007771Y-130167265D02*
X195103009Y-130119646D01*
X195103009Y-130119646D02*
X195626819Y-130119646D01*
X194960152Y-129643456D02*
X195960152Y-129643456D01*
X195007771Y-129643456D02*
X194960152Y-129548218D01*
X194960152Y-129548218D02*
X194960152Y-129357742D01*
X194960152Y-129357742D02*
X195007771Y-129262504D01*
X195007771Y-129262504D02*
X195055390Y-129214885D01*
X195055390Y-129214885D02*
X195150628Y-129167266D01*
X195150628Y-129167266D02*
X195436342Y-129167266D01*
X195436342Y-129167266D02*
X195531580Y-129214885D01*
X195531580Y-129214885D02*
X195579200Y-129262504D01*
X195579200Y-129262504D02*
X195626819Y-129357742D01*
X195626819Y-129357742D02*
X195626819Y-129548218D01*
X195626819Y-129548218D02*
X195579200Y-129643456D01*
X195626819Y-128595837D02*
X195579200Y-128691075D01*
X195579200Y-128691075D02*
X195483961Y-128738694D01*
X195483961Y-128738694D02*
X194626819Y-128738694D01*
X195626819Y-128214884D02*
X194960152Y-128214884D01*
X194626819Y-128214884D02*
X194674438Y-128262503D01*
X194674438Y-128262503D02*
X194722057Y-128214884D01*
X194722057Y-128214884D02*
X194674438Y-128167265D01*
X194674438Y-128167265D02*
X194626819Y-128214884D01*
X194626819Y-128214884D02*
X194722057Y-128214884D01*
X194960152Y-127881551D02*
X194960152Y-127500599D01*
X195626819Y-127738694D02*
X194769676Y-127738694D01*
X194769676Y-127738694D02*
X194674438Y-127691075D01*
X194674438Y-127691075D02*
X194626819Y-127595837D01*
X194626819Y-127595837D02*
X194626819Y-127500599D01*
X195626819Y-127167265D02*
X194960152Y-127167265D01*
X194626819Y-127167265D02*
X194674438Y-127214884D01*
X194674438Y-127214884D02*
X194722057Y-127167265D01*
X194722057Y-127167265D02*
X194674438Y-127119646D01*
X194674438Y-127119646D02*
X194626819Y-127167265D01*
X194626819Y-127167265D02*
X194722057Y-127167265D01*
X195579200Y-126310123D02*
X195626819Y-126405361D01*
X195626819Y-126405361D02*
X195626819Y-126595837D01*
X195626819Y-126595837D02*
X195579200Y-126691075D01*
X195579200Y-126691075D02*
X195483961Y-126738694D01*
X195483961Y-126738694D02*
X195103009Y-126738694D01*
X195103009Y-126738694D02*
X195007771Y-126691075D01*
X195007771Y-126691075D02*
X194960152Y-126595837D01*
X194960152Y-126595837D02*
X194960152Y-126405361D01*
X194960152Y-126405361D02*
X195007771Y-126310123D01*
X195007771Y-126310123D02*
X195103009Y-126262504D01*
X195103009Y-126262504D02*
X195198247Y-126262504D01*
X195198247Y-126262504D02*
X195293485Y-126738694D01*
X195626819Y-125833932D02*
X194960152Y-125833932D01*
X195150628Y-125833932D02*
X195055390Y-125786313D01*
X195055390Y-125786313D02*
X195007771Y-125738694D01*
X195007771Y-125738694D02*
X194960152Y-125643456D01*
X194960152Y-125643456D02*
X194960152Y-125548218D01*
D12*
%TO.C,R12*%
X162499200Y-121075600D03*
X162499200Y-119425600D03*
%TD*%
D13*
%TO.C,J3*%
X119824200Y-103000600D03*
D14*
X117284200Y-103000600D03*
X114744200Y-103000600D03*
X112204200Y-103000600D03*
X109664200Y-103000600D03*
%TD*%
D15*
%TO.C,C4*%
X181759319Y-130646415D03*
X180209319Y-130646415D03*
%TD*%
D16*
%TO.C,PS1*%
X120809200Y-106470600D03*
D17*
X120809200Y-109010600D03*
X120809200Y-111550600D03*
X120809200Y-114090600D03*
%TD*%
D18*
%TO.C,U1*%
X177641700Y-128913600D03*
X178276700Y-128913600D03*
X178911700Y-128913600D03*
X179546700Y-128913600D03*
X180181700Y-128913600D03*
X180816700Y-128913600D03*
X181451700Y-128913600D03*
X182086700Y-128913600D03*
X182721700Y-128913600D03*
X183356700Y-128913600D03*
X183356700Y-124087600D03*
X182721700Y-124087600D03*
X182086700Y-124087600D03*
X181451700Y-124087600D03*
X180816700Y-124087600D03*
X180181700Y-124087600D03*
X179546700Y-124087600D03*
X178911700Y-124087600D03*
X178276700Y-124087600D03*
X177641700Y-124087600D03*
%TD*%
D19*
%TO.C,FB3*%
X180004972Y-122443196D03*
X180004972Y-120868196D03*
%TD*%
D15*
%TO.C,C9*%
X110524200Y-129500600D03*
X108974200Y-129500600D03*
%TD*%
D20*
%TO.C,C15*%
X209499200Y-119975600D03*
X209499200Y-121525600D03*
%TD*%
D19*
%TO.C,FB2*%
X178238904Y-140098100D03*
X178238904Y-138523100D03*
%TD*%
%TO.C,FB2*%
X200238904Y-140098100D03*
X200238904Y-138523100D03*
%TD*%
D20*
%TO.C,C16*%
X119999200Y-119975600D03*
X119999200Y-121525600D03*
%TD*%
D21*
%TO.C,R10*%
X121843904Y-134300896D03*
X121843904Y-135950896D03*
%TD*%
D22*
%TO.C,R8*%
X116924200Y-118000600D03*
X118574200Y-118000600D03*
%TD*%
D23*
%TO.C,C1*%
X134213904Y-134060600D03*
X135763904Y-134060600D03*
%TD*%
D15*
%TO.C,C19*%
X143524200Y-123750600D03*
X141974200Y-123750600D03*
%TD*%
D24*
%TO.C,R2*%
X118574200Y-116500600D03*
X116924200Y-116500600D03*
%TD*%
D23*
%TO.C,C10*%
X132974200Y-115000600D03*
X134524200Y-115000600D03*
%TD*%
D25*
%TO.C,J1*%
X115999200Y-98750600D03*
X111749200Y-98750600D03*
X120249200Y-98750600D03*
%TD*%
D23*
%TO.C,C10*%
X154974200Y-115000600D03*
X156524200Y-115000600D03*
%TD*%
D20*
%TO.C,C16*%
X207999200Y-119975600D03*
X207999200Y-121525600D03*
%TD*%
D12*
%TO.C,R4*%
X138999200Y-121075600D03*
X138999200Y-119425600D03*
%TD*%
D20*
%TO.C,C18*%
X141024200Y-129500600D03*
X141024200Y-131050600D03*
%TD*%
D26*
%TO.C,D1*%
X202276404Y-142060600D03*
X200701404Y-142060600D03*
%TD*%
D21*
%TO.C,R10*%
X187843904Y-134300896D03*
X187843904Y-135950896D03*
%TD*%
D15*
%TO.C,C20*%
X121524200Y-125250600D03*
X119974200Y-125250600D03*
%TD*%
D27*
%TO.C,TP2*%
X153238904Y-112060600D03*
%TD*%
D24*
%TO.C,R9*%
X134574200Y-116500600D03*
X132924200Y-116500600D03*
%TD*%
D12*
%TO.C,R4*%
X204999200Y-121075600D03*
X204999200Y-119425600D03*
%TD*%
D21*
%TO.C,R7*%
X178499200Y-120425600D03*
X178499200Y-122075600D03*
%TD*%
D28*
%TO.C,R11*%
X188884200Y-138425600D03*
X186344200Y-140965600D03*
X183804200Y-138425600D03*
%TD*%
D21*
%TO.C,R10*%
X209843904Y-134300896D03*
X209843904Y-135950896D03*
%TD*%
D24*
%TO.C,R9*%
X200574200Y-116500600D03*
X198924200Y-116500600D03*
%TD*%
D19*
%TO.C,FB2*%
X134238904Y-140098100D03*
X134238904Y-138523100D03*
%TD*%
D20*
%TO.C,C18*%
X207024200Y-129500600D03*
X207024200Y-131050600D03*
%TD*%
D15*
%TO.C,C9*%
X132524200Y-129500600D03*
X130974200Y-129500600D03*
%TD*%
D27*
%TO.C,TP5*%
X167024200Y-131675600D03*
%TD*%
%TO.C,TP1*%
X124194200Y-135015600D03*
%TD*%
D20*
%TO.C,C18*%
X119024200Y-129500600D03*
X119024200Y-131050600D03*
%TD*%
D15*
%TO.C,C2*%
X134224530Y-132553966D03*
X132674530Y-132553966D03*
%TD*%
D18*
%TO.C,U1*%
X155641700Y-128913600D03*
X156276700Y-128913600D03*
X156911700Y-128913600D03*
X157546700Y-128913600D03*
X158181700Y-128913600D03*
X158816700Y-128913600D03*
X159451700Y-128913600D03*
X160086700Y-128913600D03*
X160721700Y-128913600D03*
X161356700Y-128913600D03*
X161356700Y-124087600D03*
X160721700Y-124087600D03*
X160086700Y-124087600D03*
X159451700Y-124087600D03*
X158816700Y-124087600D03*
X158181700Y-124087600D03*
X157546700Y-124087600D03*
X156911700Y-124087600D03*
X156276700Y-124087600D03*
X155641700Y-124087600D03*
%TD*%
D22*
%TO.C,R8*%
X138924200Y-118000600D03*
X140574200Y-118000600D03*
%TD*%
D23*
%TO.C,C1*%
X156213904Y-134060600D03*
X157763904Y-134060600D03*
%TD*%
D24*
%TO.C,R2*%
X162574200Y-116500600D03*
X160924200Y-116500600D03*
%TD*%
D27*
%TO.C,TP3*%
X195613904Y-114635600D03*
%TD*%
D15*
%TO.C,C7*%
X159755220Y-132142322D03*
X158205220Y-132142322D03*
%TD*%
%TO.C,C7*%
X203755220Y-132142322D03*
X202205220Y-132142322D03*
%TD*%
D24*
%TO.C,R9*%
X178574200Y-116500600D03*
X176924200Y-116500600D03*
%TD*%
D27*
%TO.C,TP2*%
X131238904Y-112060600D03*
%TD*%
%TO.C,TP4*%
X174024200Y-107665600D03*
%TD*%
%TO.C,TP5*%
X211024200Y-131675600D03*
%TD*%
D20*
%TO.C,C16*%
X185999200Y-119975600D03*
X185999200Y-121525600D03*
%TD*%
D19*
%TO.C,FB2*%
X112238904Y-140098100D03*
X112238904Y-138523100D03*
%TD*%
D29*
%TO.C,D2*%
X124104200Y-101770600D03*
X124104200Y-97770600D03*
%TD*%
D16*
%TO.C,PS1*%
X186809200Y-106470600D03*
D17*
X186809200Y-109010600D03*
X186809200Y-111550600D03*
X186809200Y-114090600D03*
%TD*%
D26*
%TO.C,D1*%
X136276404Y-142060600D03*
X134701404Y-142060600D03*
%TD*%
D20*
%TO.C,C8*%
X113979381Y-117915145D03*
X113979381Y-119465145D03*
%TD*%
D12*
%TO.C,R6*%
X136012051Y-116538801D03*
X136012051Y-114888801D03*
%TD*%
D15*
%TO.C,C2*%
X156224530Y-132553966D03*
X154674530Y-132553966D03*
%TD*%
D27*
%TO.C,TP2*%
X175238904Y-112060600D03*
%TD*%
D22*
%TO.C,R13*%
X186079200Y-116995600D03*
X187729200Y-116995600D03*
%TD*%
D15*
%TO.C,C9*%
X154524200Y-129500600D03*
X152974200Y-129500600D03*
%TD*%
D24*
%TO.C,R9*%
X156574200Y-116500600D03*
X154924200Y-116500600D03*
%TD*%
D15*
%TO.C,C4*%
X137759319Y-130646415D03*
X136209319Y-130646415D03*
%TD*%
D12*
%TO.C,R6*%
X158012051Y-116538801D03*
X158012051Y-114888801D03*
%TD*%
D21*
%TO.C,R10*%
X165843904Y-134300896D03*
X165843904Y-135950896D03*
%TD*%
D23*
%TO.C,C3*%
X138974200Y-115000600D03*
X140524200Y-115000600D03*
%TD*%
D16*
%TO.C,PS1*%
X142809200Y-106470600D03*
D17*
X142809200Y-109010600D03*
X142809200Y-111550600D03*
X142809200Y-114090600D03*
%TD*%
D20*
%TO.C,C5*%
X115462123Y-117917475D03*
X115462123Y-119467475D03*
%TD*%
D15*
%TO.C,C4*%
X115759319Y-130646415D03*
X114209319Y-130646415D03*
%TD*%
%TO.C,C20*%
X209524200Y-125250600D03*
X207974200Y-125250600D03*
%TD*%
D12*
%TO.C,R1*%
X115261341Y-135243501D03*
X115261341Y-133593501D03*
%TD*%
D20*
%TO.C,C16*%
X141999200Y-119975600D03*
X141999200Y-121525600D03*
%TD*%
D22*
%TO.C,R3*%
X176924200Y-118000600D03*
X178574200Y-118000600D03*
%TD*%
D30*
%TO.C,C17*%
X184999200Y-134025600D03*
X184999200Y-132475600D03*
%TD*%
D20*
%TO.C,C6*%
X178238904Y-135535600D03*
X178238904Y-137085600D03*
%TD*%
D18*
%TO.C,U1*%
X133641700Y-128913600D03*
X134276700Y-128913600D03*
X134911700Y-128913600D03*
X135546700Y-128913600D03*
X136181700Y-128913600D03*
X136816700Y-128913600D03*
X137451700Y-128913600D03*
X138086700Y-128913600D03*
X138721700Y-128913600D03*
X139356700Y-128913600D03*
X139356700Y-124087600D03*
X138721700Y-124087600D03*
X138086700Y-124087600D03*
X137451700Y-124087600D03*
X136816700Y-124087600D03*
X136181700Y-124087600D03*
X135546700Y-124087600D03*
X134911700Y-124087600D03*
X134276700Y-124087600D03*
X133641700Y-124087600D03*
%TD*%
D13*
%TO.C,J3*%
X185824200Y-103000600D03*
D14*
X183284200Y-103000600D03*
X180744200Y-103000600D03*
X178204200Y-103000600D03*
X175664200Y-103000600D03*
%TD*%
D20*
%TO.C,C15*%
X121499200Y-119975600D03*
X121499200Y-121525600D03*
%TD*%
D27*
%TO.C,TP2*%
X109238904Y-112060600D03*
%TD*%
D19*
%TO.C,FB2*%
X156238904Y-140098100D03*
X156238904Y-138523100D03*
%TD*%
D13*
%TO.C,J2*%
X205274200Y-144250600D03*
D14*
X202734200Y-144250600D03*
%TD*%
D15*
%TO.C,C7*%
X181755220Y-132142322D03*
X180205220Y-132142322D03*
%TD*%
D12*
%TO.C,R12*%
X184499200Y-121075600D03*
X184499200Y-119425600D03*
%TD*%
D24*
%TO.C,R2*%
X206574200Y-116500600D03*
X204924200Y-116500600D03*
%TD*%
D27*
%TO.C,TP1*%
X146194200Y-135015600D03*
%TD*%
D18*
%TO.C,U1*%
X111641700Y-128913600D03*
X112276700Y-128913600D03*
X112911700Y-128913600D03*
X113546700Y-128913600D03*
X114181700Y-128913600D03*
X114816700Y-128913600D03*
X115451700Y-128913600D03*
X116086700Y-128913600D03*
X116721700Y-128913600D03*
X117356700Y-128913600D03*
X117356700Y-124087600D03*
X116721700Y-124087600D03*
X116086700Y-124087600D03*
X115451700Y-124087600D03*
X114816700Y-124087600D03*
X114181700Y-124087600D03*
X113546700Y-124087600D03*
X112911700Y-124087600D03*
X112276700Y-124087600D03*
X111641700Y-124087600D03*
%TD*%
D12*
%TO.C,R12*%
X206499200Y-121075600D03*
X206499200Y-119425600D03*
%TD*%
D15*
%TO.C,C19*%
X121524200Y-123750600D03*
X119974200Y-123750600D03*
%TD*%
D26*
%TO.C,D1*%
X114276404Y-142060600D03*
X112701404Y-142060600D03*
%TD*%
D20*
%TO.C,C15*%
X143499200Y-119975600D03*
X143499200Y-121525600D03*
%TD*%
D12*
%TO.C,R1*%
X203261341Y-135243501D03*
X203261341Y-133593501D03*
%TD*%
D21*
%TO.C,R10*%
X143843904Y-134300896D03*
X143843904Y-135950896D03*
%TD*%
D13*
%TO.C,J2*%
X183274200Y-144250600D03*
D14*
X180734200Y-144250600D03*
%TD*%
D28*
%TO.C,R11*%
X122884200Y-138425600D03*
X120344200Y-140965600D03*
X117804200Y-138425600D03*
%TD*%
D26*
%TO.C,D1*%
X180276404Y-142060600D03*
X178701404Y-142060600D03*
%TD*%
D19*
%TO.C,FB3*%
X136004972Y-122443196D03*
X136004972Y-120868196D03*
%TD*%
D31*
%TO.C,FB1*%
X203497395Y-120871256D03*
X203497395Y-122446256D03*
%TD*%
D22*
%TO.C,R3*%
X110924200Y-118000600D03*
X112574200Y-118000600D03*
%TD*%
D18*
%TO.C,U1*%
X199641700Y-128913600D03*
X200276700Y-128913600D03*
X200911700Y-128913600D03*
X201546700Y-128913600D03*
X202181700Y-128913600D03*
X202816700Y-128913600D03*
X203451700Y-128913600D03*
X204086700Y-128913600D03*
X204721700Y-128913600D03*
X205356700Y-128913600D03*
X205356700Y-124087600D03*
X204721700Y-124087600D03*
X204086700Y-124087600D03*
X203451700Y-124087600D03*
X202816700Y-124087600D03*
X202181700Y-124087600D03*
X201546700Y-124087600D03*
X200911700Y-124087600D03*
X200276700Y-124087600D03*
X199641700Y-124087600D03*
%TD*%
D15*
%TO.C,C7*%
X137755220Y-132142322D03*
X136205220Y-132142322D03*
%TD*%
D31*
%TO.C,FB6*%
X161237556Y-131282976D03*
X161237556Y-132857976D03*
%TD*%
D15*
%TO.C,C9*%
X198524200Y-129500600D03*
X196974200Y-129500600D03*
%TD*%
D20*
%TO.C,C15*%
X165499200Y-119975600D03*
X165499200Y-121525600D03*
%TD*%
D12*
%TO.C,R4*%
X160999200Y-121075600D03*
X160999200Y-119425600D03*
%TD*%
D29*
%TO.C,D2*%
X190104200Y-101770600D03*
X190104200Y-97770600D03*
%TD*%
D23*
%TO.C,C1*%
X178213904Y-134060600D03*
X179763904Y-134060600D03*
%TD*%
D22*
%TO.C,R8*%
X204924200Y-118000600D03*
X206574200Y-118000600D03*
%TD*%
D13*
%TO.C,J3*%
X163824200Y-103000600D03*
D14*
X161284200Y-103000600D03*
X158744200Y-103000600D03*
X156204200Y-103000600D03*
X153664200Y-103000600D03*
%TD*%
D28*
%TO.C,R11*%
X144884200Y-138425600D03*
X142344200Y-140965600D03*
X139804200Y-138425600D03*
%TD*%
D15*
%TO.C,C4*%
X203759319Y-130646415D03*
X202209319Y-130646415D03*
%TD*%
D32*
%TO.C,TR1*%
X134264200Y-112705600D03*
X136804200Y-112705600D03*
X139344200Y-112705600D03*
X139344200Y-107625600D03*
X136804200Y-107625600D03*
X134264200Y-107625600D03*
%TD*%
D29*
%TO.C,D2*%
X168104200Y-101770600D03*
X168104200Y-97770600D03*
%TD*%
D15*
%TO.C,C9*%
X176524200Y-129500600D03*
X174974200Y-129500600D03*
%TD*%
D31*
%TO.C,FB6*%
X205237556Y-131282976D03*
X205237556Y-132857976D03*
%TD*%
D22*
%TO.C,R13*%
X164079200Y-116995600D03*
X165729200Y-116995600D03*
%TD*%
D20*
%TO.C,C5*%
X137462123Y-117917475D03*
X137462123Y-119467475D03*
%TD*%
D15*
%TO.C,C19*%
X187524200Y-123750600D03*
X185974200Y-123750600D03*
%TD*%
D25*
%TO.C,J1*%
X137999200Y-98750600D03*
X133749200Y-98750600D03*
X142249200Y-98750600D03*
%TD*%
D27*
%TO.C,TP1*%
X212194200Y-135015600D03*
%TD*%
%TO.C,TP3*%
X151613904Y-114635600D03*
%TD*%
D19*
%TO.C,FB3*%
X158004972Y-122443196D03*
X158004972Y-120868196D03*
%TD*%
D31*
%TO.C,FB1*%
X181497395Y-120871256D03*
X181497395Y-122446256D03*
%TD*%
D12*
%TO.C,R12*%
X140499200Y-121075600D03*
X140499200Y-119425600D03*
%TD*%
%TO.C,R5*%
X137521496Y-116552371D03*
X137521496Y-114902371D03*
%TD*%
D31*
%TO.C,FB1*%
X115497395Y-120871256D03*
X115497395Y-122446256D03*
%TD*%
D33*
%TO.C,D3*%
X168499200Y-121938100D03*
X168499200Y-120063100D03*
%TD*%
D12*
%TO.C,R4*%
X116999200Y-121075600D03*
X116999200Y-119425600D03*
%TD*%
D31*
%TO.C,FB6*%
X183237556Y-131282976D03*
X183237556Y-132857976D03*
%TD*%
D28*
%TO.C,R11*%
X210884200Y-138425600D03*
X208344200Y-140965600D03*
X205804200Y-138425600D03*
%TD*%
D20*
%TO.C,C6*%
X112238904Y-135535600D03*
X112238904Y-137085600D03*
%TD*%
D28*
%TO.C,R11*%
X166884200Y-138425600D03*
X164344200Y-140965600D03*
X161804200Y-138425600D03*
%TD*%
D15*
%TO.C,C2*%
X178224530Y-132553966D03*
X176674530Y-132553966D03*
%TD*%
D13*
%TO.C,J2*%
X139274200Y-144250600D03*
D14*
X136734200Y-144250600D03*
%TD*%
D12*
%TO.C,R5*%
X159521496Y-116552371D03*
X159521496Y-114902371D03*
%TD*%
D24*
%TO.C,R2*%
X140574200Y-116500600D03*
X138924200Y-116500600D03*
%TD*%
D12*
%TO.C,R1*%
X137261341Y-135243501D03*
X137261341Y-133593501D03*
%TD*%
D27*
%TO.C,TP2*%
X197238904Y-112060600D03*
%TD*%
D12*
%TO.C,R1*%
X181261341Y-135243501D03*
X181261341Y-133593501D03*
%TD*%
%TO.C,R5*%
X115521496Y-116552371D03*
X115521496Y-114902371D03*
%TD*%
D29*
%TO.C,D2*%
X212104200Y-101770600D03*
X212104200Y-97770600D03*
%TD*%
D25*
%TO.C,J1*%
X159999200Y-98750600D03*
X155749200Y-98750600D03*
X164249200Y-98750600D03*
%TD*%
D31*
%TO.C,FB1*%
X159497395Y-120871256D03*
X159497395Y-122446256D03*
%TD*%
D20*
%TO.C,C6*%
X200238904Y-135535600D03*
X200238904Y-137085600D03*
%TD*%
%TO.C,C5*%
X159462123Y-117917475D03*
X159462123Y-119467475D03*
%TD*%
%TO.C,C8*%
X157979381Y-117915145D03*
X157979381Y-119465145D03*
%TD*%
%TO.C,C6*%
X134238904Y-135535600D03*
X134238904Y-137085600D03*
%TD*%
D22*
%TO.C,R13*%
X142079200Y-116995600D03*
X143729200Y-116995600D03*
%TD*%
D31*
%TO.C,FB6*%
X139237556Y-131282976D03*
X139237556Y-132857976D03*
%TD*%
D30*
%TO.C,C17*%
X206999200Y-134025600D03*
X206999200Y-132475600D03*
%TD*%
D27*
%TO.C,TP4*%
X108024200Y-107665600D03*
%TD*%
D21*
%TO.C,R7*%
X156499200Y-120425600D03*
X156499200Y-122075600D03*
%TD*%
D23*
%TO.C,C1*%
X200213904Y-134060600D03*
X201763904Y-134060600D03*
%TD*%
D19*
%TO.C,FB3*%
X114004972Y-122443196D03*
X114004972Y-120868196D03*
%TD*%
D27*
%TO.C,TP4*%
X130024200Y-107665600D03*
%TD*%
D12*
%TO.C,R6*%
X202012051Y-116538801D03*
X202012051Y-114888801D03*
%TD*%
%TO.C,R5*%
X181521496Y-116552371D03*
X181521496Y-114902371D03*
%TD*%
D27*
%TO.C,TP5*%
X145024200Y-131675600D03*
%TD*%
D23*
%TO.C,C10*%
X110974200Y-115000600D03*
X112524200Y-115000600D03*
%TD*%
D22*
%TO.C,R13*%
X208079200Y-116995600D03*
X209729200Y-116995600D03*
%TD*%
D33*
%TO.C,D3*%
X190499200Y-121938100D03*
X190499200Y-120063100D03*
%TD*%
D26*
%TO.C,D1*%
X158276404Y-142060600D03*
X156701404Y-142060600D03*
%TD*%
D27*
%TO.C,TP4*%
X152024200Y-107665600D03*
%TD*%
D21*
%TO.C,R7*%
X134499200Y-120425600D03*
X134499200Y-122075600D03*
%TD*%
D15*
%TO.C,C2*%
X200224530Y-132553966D03*
X198674530Y-132553966D03*
%TD*%
D24*
%TO.C,R2*%
X184574200Y-116500600D03*
X182924200Y-116500600D03*
%TD*%
D21*
%TO.C,R7*%
X112499200Y-120425600D03*
X112499200Y-122075600D03*
%TD*%
D12*
%TO.C,R12*%
X118499200Y-121075600D03*
X118499200Y-119425600D03*
%TD*%
D25*
%TO.C,J1*%
X181999200Y-98750600D03*
X177749200Y-98750600D03*
X186249200Y-98750600D03*
%TD*%
D15*
%TO.C,C4*%
X159759319Y-130646415D03*
X158209319Y-130646415D03*
%TD*%
D30*
%TO.C,C17*%
X162999200Y-134025600D03*
X162999200Y-132475600D03*
%TD*%
D29*
%TO.C,D2*%
X146104200Y-101770600D03*
X146104200Y-97770600D03*
%TD*%
D12*
%TO.C,R6*%
X114012051Y-116538801D03*
X114012051Y-114888801D03*
%TD*%
D27*
%TO.C,TP3*%
X173613904Y-114635600D03*
%TD*%
%TO.C,TP4*%
X196024200Y-107665600D03*
%TD*%
D20*
%TO.C,C15*%
X187499200Y-119975600D03*
X187499200Y-121525600D03*
%TD*%
D23*
%TO.C,C3*%
X160974200Y-115000600D03*
X162524200Y-115000600D03*
%TD*%
D31*
%TO.C,FB1*%
X137497395Y-120871256D03*
X137497395Y-122446256D03*
%TD*%
D27*
%TO.C,TP5*%
X123024200Y-131675600D03*
%TD*%
D16*
%TO.C,PS1*%
X164809200Y-106470600D03*
D17*
X164809200Y-109010600D03*
X164809200Y-111550600D03*
X164809200Y-114090600D03*
%TD*%
D20*
%TO.C,C6*%
X156238904Y-135535600D03*
X156238904Y-137085600D03*
%TD*%
D12*
%TO.C,R6*%
X180012051Y-116538801D03*
X180012051Y-114888801D03*
%TD*%
D32*
%TO.C,TR1*%
X156264200Y-112705600D03*
X158804200Y-112705600D03*
X161344200Y-112705600D03*
X161344200Y-107625600D03*
X158804200Y-107625600D03*
X156264200Y-107625600D03*
%TD*%
D15*
%TO.C,C19*%
X209524200Y-123750600D03*
X207974200Y-123750600D03*
%TD*%
D12*
%TO.C,R5*%
X203521496Y-116552371D03*
X203521496Y-114902371D03*
%TD*%
D33*
%TO.C,D3*%
X124499200Y-121938100D03*
X124499200Y-120063100D03*
%TD*%
%TO.C,D3*%
X212499200Y-121938100D03*
X212499200Y-120063100D03*
%TD*%
D15*
%TO.C,C19*%
X165524200Y-123750600D03*
X163974200Y-123750600D03*
%TD*%
D23*
%TO.C,C3*%
X182974200Y-115000600D03*
X184524200Y-115000600D03*
%TD*%
D15*
%TO.C,C20*%
X165524200Y-125250600D03*
X163974200Y-125250600D03*
%TD*%
D32*
%TO.C,TR1*%
X178264200Y-112705600D03*
X180804200Y-112705600D03*
X183344200Y-112705600D03*
X183344200Y-107625600D03*
X180804200Y-107625600D03*
X178264200Y-107625600D03*
%TD*%
D20*
%TO.C,C5*%
X181462123Y-117917475D03*
X181462123Y-119467475D03*
%TD*%
D16*
%TO.C,PS1*%
X208809200Y-106470600D03*
D17*
X208809200Y-109010600D03*
X208809200Y-111550600D03*
X208809200Y-114090600D03*
%TD*%
D19*
%TO.C,FB3*%
X202004972Y-122443196D03*
X202004972Y-120868196D03*
%TD*%
D23*
%TO.C,C3*%
X116974200Y-115000600D03*
X118524200Y-115000600D03*
%TD*%
D22*
%TO.C,R3*%
X198924200Y-118000600D03*
X200574200Y-118000600D03*
%TD*%
D21*
%TO.C,R7*%
X200499200Y-120425600D03*
X200499200Y-122075600D03*
%TD*%
D32*
%TO.C,TR1*%
X200264200Y-112705600D03*
X202804200Y-112705600D03*
X205344200Y-112705600D03*
X205344200Y-107625600D03*
X202804200Y-107625600D03*
X200264200Y-107625600D03*
%TD*%
D20*
%TO.C,C8*%
X179979381Y-117915145D03*
X179979381Y-119465145D03*
%TD*%
D15*
%TO.C,C7*%
X115755220Y-132142322D03*
X114205220Y-132142322D03*
%TD*%
D20*
%TO.C,C8*%
X135979381Y-117915145D03*
X135979381Y-119465145D03*
%TD*%
D32*
%TO.C,TR1*%
X112264200Y-112705600D03*
X114804200Y-112705600D03*
X117344200Y-112705600D03*
X117344200Y-107625600D03*
X114804200Y-107625600D03*
X112264200Y-107625600D03*
%TD*%
D22*
%TO.C,R8*%
X160924200Y-118000600D03*
X162574200Y-118000600D03*
%TD*%
D20*
%TO.C,C16*%
X163999200Y-119975600D03*
X163999200Y-121525600D03*
%TD*%
D13*
%TO.C,J3*%
X141824200Y-103000600D03*
D14*
X139284200Y-103000600D03*
X136744200Y-103000600D03*
X134204200Y-103000600D03*
X131664200Y-103000600D03*
%TD*%
D13*
%TO.C,J3*%
X207824200Y-103000600D03*
D14*
X205284200Y-103000600D03*
X202744200Y-103000600D03*
X200204200Y-103000600D03*
X197664200Y-103000600D03*
%TD*%
D15*
%TO.C,C20*%
X187524200Y-125250600D03*
X185974200Y-125250600D03*
%TD*%
D22*
%TO.C,R3*%
X132924200Y-118000600D03*
X134574200Y-118000600D03*
%TD*%
D20*
%TO.C,C18*%
X185024200Y-129500600D03*
X185024200Y-131050600D03*
%TD*%
%TO.C,C5*%
X203462123Y-117917475D03*
X203462123Y-119467475D03*
%TD*%
D30*
%TO.C,C17*%
X118999200Y-134025600D03*
X118999200Y-132475600D03*
%TD*%
D23*
%TO.C,C10*%
X176974200Y-115000600D03*
X178524200Y-115000600D03*
%TD*%
D27*
%TO.C,TP3*%
X129613904Y-114635600D03*
%TD*%
D25*
%TO.C,J1*%
X203999200Y-98750600D03*
X199749200Y-98750600D03*
X208249200Y-98750600D03*
%TD*%
D13*
%TO.C,J2*%
X161274200Y-144250600D03*
D14*
X158734200Y-144250600D03*
%TD*%
D24*
%TO.C,R9*%
X112574200Y-116500600D03*
X110924200Y-116500600D03*
%TD*%
D27*
%TO.C,TP5*%
X189024200Y-131675600D03*
%TD*%
D23*
%TO.C,C3*%
X204974200Y-115000600D03*
X206524200Y-115000600D03*
%TD*%
D27*
%TO.C,TP1*%
X190194200Y-135015600D03*
%TD*%
D22*
%TO.C,R8*%
X182924200Y-118000600D03*
X184574200Y-118000600D03*
%TD*%
D15*
%TO.C,C20*%
X143524200Y-125250600D03*
X141974200Y-125250600D03*
%TD*%
D23*
%TO.C,C10*%
X198974200Y-115000600D03*
X200524200Y-115000600D03*
%TD*%
D13*
%TO.C,J2*%
X117274200Y-144250600D03*
D14*
X114734200Y-144250600D03*
%TD*%
D27*
%TO.C,TP1*%
X168194200Y-135015600D03*
%TD*%
D23*
%TO.C,C1*%
X112213904Y-134060600D03*
X113763904Y-134060600D03*
%TD*%
D20*
%TO.C,C18*%
X163024200Y-129500600D03*
X163024200Y-131050600D03*
%TD*%
D15*
%TO.C,C2*%
X112224530Y-132553966D03*
X110674530Y-132553966D03*
%TD*%
D22*
%TO.C,R13*%
X120079200Y-116995600D03*
X121729200Y-116995600D03*
%TD*%
D12*
%TO.C,R4*%
X182999200Y-121075600D03*
X182999200Y-119425600D03*
%TD*%
%TO.C,R1*%
X159261341Y-135243501D03*
X159261341Y-133593501D03*
%TD*%
D31*
%TO.C,FB6*%
X117237556Y-131282976D03*
X117237556Y-132857976D03*
%TD*%
D30*
%TO.C,C17*%
X140999200Y-134025600D03*
X140999200Y-132475600D03*
%TD*%
D20*
%TO.C,C8*%
X201979381Y-117915145D03*
X201979381Y-119465145D03*
%TD*%
D33*
%TO.C,D3*%
X146499200Y-121938100D03*
X146499200Y-120063100D03*
%TD*%
D22*
%TO.C,R3*%
X154924200Y-118000600D03*
X156574200Y-118000600D03*
%TD*%
D27*
%TO.C,TP3*%
X107613904Y-114635600D03*
%TD*%
M02*
